<svg width="469" height="539" viewBox="0 0 469 539" fill="none" xmlns="http://www.w3.org/2000/svg">
<path d="M354.289 515.429C357.404 515.429 435.42 300.046 474.039 192.354V0.854492L273.969 515.429H354.289Z" fill="#B10610" stroke="black"/>
<path d="M336.807 493.097C336.237 494.592 335.453 495.782 334.454 496.666C333.436 497.542 332.293 498.058 331.025 498.216C329.756 498.374 328.44 498.149 327.076 497.541L319.857 494.323C318.493 493.715 317.412 492.872 316.615 491.794C315.818 490.716 315.353 489.483 315.222 488.095C315.09 486.707 315.309 485.265 315.879 483.77C316.442 482.295 317.213 481.111 318.191 480.218C319.17 479.325 320.275 478.791 321.504 478.616C322.733 478.441 324.001 478.644 325.307 479.226C325.404 479.27 325.476 479.349 325.524 479.463C325.56 479.549 325.558 479.642 325.52 479.741L324.617 482.557C324.526 482.796 324.373 482.868 324.159 482.773C323.009 482.26 321.943 482.217 320.96 482.642C319.985 483.046 319.266 483.857 318.802 485.073C318.338 486.289 318.317 487.422 318.737 488.472C319.157 489.522 319.942 490.303 321.092 490.816L328.545 494.137C329.675 494.641 330.732 494.681 331.714 494.256C332.697 493.831 333.42 493.01 333.884 491.794C334.348 490.579 334.376 489.46 333.967 488.438C333.547 487.388 332.762 486.607 331.612 486.095C331.398 485.999 331.337 485.832 331.428 485.592L332.594 482.894C332.632 482.794 332.691 482.727 332.773 482.694C332.862 482.64 332.945 482.631 333.023 482.665C334.348 483.256 335.399 484.086 336.177 485.155C336.935 486.216 337.37 487.436 337.482 488.816C337.595 490.195 337.37 491.622 336.807 493.097ZM325.539 459.16C325.577 459.06 325.646 458.998 325.747 458.973C325.836 458.919 325.929 458.914 326.026 458.958L328.277 459.961C328.374 460.004 328.447 460.083 328.494 460.197C328.53 460.283 328.529 460.376 328.491 460.476L326.393 465.977C326.355 466.077 326.384 466.148 326.482 466.192L343.493 473.773C343.59 473.817 343.663 473.896 343.71 474.01C343.746 474.096 343.745 474.189 343.707 474.288L342.658 477.039C342.62 477.139 342.556 477.215 342.467 477.269C342.367 477.294 342.268 477.285 342.17 477.242L325.159 469.66C325.062 469.617 324.994 469.645 324.956 469.744L322.938 475.037C322.9 475.136 322.836 475.213 322.747 475.267C322.646 475.292 322.547 475.283 322.45 475.239L320.199 474.236C320.102 474.193 320.035 474.128 320 474.042C319.952 473.928 319.947 473.821 319.985 473.721L325.539 459.16ZM334.863 442.603C334.96 442.646 335.033 442.725 335.08 442.84C335.116 442.926 335.115 443.018 335.077 443.118L331.2 453.284C331.162 453.383 331.191 453.455 331.289 453.498L336.754 455.934C336.852 455.978 336.92 455.95 336.958 455.85L339.569 449.003C339.607 448.903 339.676 448.841 339.777 448.816C339.866 448.762 339.959 448.757 340.057 448.801L342.278 449.791C342.375 449.834 342.448 449.913 342.495 450.027C342.531 450.113 342.53 450.206 342.492 450.306L339.88 457.153C339.842 457.252 339.872 457.324 339.97 457.367L348.329 461.093C348.426 461.136 348.499 461.215 348.546 461.33C348.582 461.416 348.581 461.508 348.543 461.608L347.494 464.359C347.456 464.458 347.392 464.535 347.303 464.589C347.203 464.614 347.104 464.605 347.006 464.561L327.248 455.755C327.15 455.712 327.084 455.647 327.048 455.561C327.001 455.447 326.996 455.34 327.034 455.24L332.154 441.815C332.192 441.716 332.261 441.653 332.362 441.628C332.451 441.575 332.544 441.57 332.641 441.613L334.863 442.603ZM358.967 434.992C358.397 436.487 357.613 437.677 356.615 438.561C355.597 439.437 354.454 439.953 353.185 440.111C351.917 440.269 350.601 440.043 349.237 439.436L342.017 436.218C340.653 435.61 339.573 434.767 338.775 433.689C337.978 432.611 337.514 431.378 337.382 429.99C337.25 428.602 337.47 427.16 338.04 425.665C338.602 424.19 339.373 423.006 340.352 422.113C341.331 421.22 342.435 420.686 343.665 420.511C344.894 420.336 346.161 420.539 347.467 421.121C347.564 421.165 347.637 421.244 347.684 421.358C347.72 421.444 347.719 421.537 347.681 421.636L346.778 424.452C346.687 424.691 346.534 424.763 346.32 424.668C345.17 424.155 344.104 424.112 343.121 424.536C342.146 424.941 341.426 425.752 340.963 426.968C340.499 428.184 340.477 429.317 340.897 430.367C341.318 431.417 342.102 432.198 343.252 432.711L350.705 436.032C351.836 436.536 352.892 436.575 353.875 436.151C354.858 435.726 355.581 434.905 356.045 433.689C356.508 432.473 356.536 431.355 356.128 430.333C355.707 429.283 354.923 428.502 353.773 427.989C353.559 427.894 353.497 427.727 353.588 427.487L354.754 424.789C354.792 424.689 354.852 424.622 354.933 424.589C355.022 424.535 355.105 424.525 355.183 424.56C356.508 425.151 357.56 425.981 358.337 427.05C359.095 428.111 359.531 429.331 359.643 430.71C359.755 432.09 359.53 433.517 358.967 434.992ZM347.699 401.055C347.737 400.955 347.807 400.893 347.907 400.868C347.996 400.814 348.089 400.809 348.187 400.852L350.437 401.856C350.535 401.899 350.607 401.978 350.655 402.092C350.691 402.178 350.689 402.271 350.651 402.371L348.553 407.872C348.515 407.972 348.545 408.043 348.642 408.087L365.653 415.668C365.751 415.712 365.823 415.79 365.871 415.905C365.906 415.991 365.905 416.084 365.867 416.183L364.818 418.934C364.78 419.034 364.717 419.11 364.628 419.164C364.527 419.189 364.428 419.18 364.331 419.136L347.32 411.555C347.222 411.512 347.154 411.54 347.116 411.639L345.098 416.932C345.06 417.031 344.997 417.108 344.908 417.162C344.807 417.187 344.708 417.177 344.61 417.134L342.36 416.131C342.262 416.088 342.196 416.023 342.16 415.937C342.113 415.823 342.108 415.716 342.146 415.616L347.699 401.055ZM357.023 384.498C357.121 384.541 357.193 384.62 357.241 384.735C357.276 384.821 357.275 384.913 357.237 385.013L353.36 395.179C353.322 395.278 353.352 395.35 353.449 395.393L358.915 397.829C359.012 397.873 359.08 397.845 359.118 397.745L361.729 390.898C361.767 390.798 361.837 390.736 361.938 390.711C362.026 390.657 362.12 390.652 362.217 390.696L364.438 391.686C364.536 391.729 364.608 391.808 364.656 391.922C364.691 392.008 364.69 392.101 364.652 392.201L362.041 399.048C362.003 399.147 362.033 399.219 362.13 399.262L370.489 402.988C370.587 403.031 370.659 403.11 370.707 403.225C370.743 403.31 370.741 403.403 370.703 403.503L369.654 406.254C369.616 406.353 369.553 406.43 369.464 406.484C369.363 406.509 369.264 406.5 369.167 406.456L349.408 397.65C349.311 397.607 349.244 397.542 349.209 397.456C349.161 397.342 349.156 397.235 349.194 397.135L354.314 383.71C354.352 383.611 354.422 383.548 354.522 383.523C354.611 383.47 354.704 383.464 354.802 383.508L357.023 384.498ZM381.128 376.887C380.558 378.382 379.773 379.572 378.775 380.456C377.757 381.332 376.614 381.848 375.346 382.006C374.077 382.163 372.761 381.938 371.397 381.33L364.178 378.113C362.814 377.505 361.733 376.662 360.936 375.584C360.139 374.506 359.674 373.272 359.543 371.884C359.411 370.496 359.63 369.055 360.2 367.56C360.763 366.085 361.534 364.901 362.512 364.008C363.491 363.115 364.596 362.581 365.825 362.406C367.054 362.231 368.322 362.434 369.627 363.016C369.725 363.06 369.797 363.139 369.845 363.253C369.881 363.339 369.879 363.432 369.841 363.531L368.938 366.347C368.847 366.586 368.694 366.658 368.48 366.563C367.33 366.05 366.264 366.006 365.281 366.431C364.306 366.836 363.587 367.647 363.123 368.863C362.659 370.079 362.638 371.212 363.058 372.262C363.478 373.312 364.263 374.093 365.413 374.606L372.866 377.927C373.996 378.431 375.053 378.47 376.035 378.045C377.018 377.621 377.741 376.8 378.205 375.584C378.669 374.368 378.696 373.25 378.288 372.228C377.868 371.178 377.083 370.397 375.933 369.884C375.719 369.789 375.657 369.621 375.749 369.382L376.915 366.684C376.953 366.584 377.012 366.517 377.094 366.484C377.182 366.43 377.266 366.42 377.344 366.455C378.669 367.046 379.72 367.876 380.498 368.945C381.256 370.006 381.691 371.226 381.803 372.605C381.916 373.985 381.69 375.412 381.128 376.887ZM369.86 342.95C369.898 342.85 369.967 342.788 370.068 342.763C370.157 342.709 370.25 342.704 370.347 342.747L372.598 343.75C372.695 343.794 372.768 343.873 372.815 343.987C372.851 344.073 372.85 344.166 372.812 344.266L370.714 349.767C370.676 349.867 370.705 349.938 370.803 349.982L387.814 357.563C387.911 357.606 387.984 357.685 388.031 357.8C388.067 357.886 388.066 357.979 388.028 358.078L386.979 360.829C386.941 360.929 386.877 361.005 386.788 361.059C386.688 361.084 386.589 361.075 386.491 361.031L369.48 353.45C369.383 353.407 369.315 353.435 369.277 353.534L367.259 358.827C367.22 358.926 367.157 359.003 367.068 359.057C366.967 359.082 366.868 359.072 366.771 359.029L364.52 358.026C364.423 357.983 364.356 357.918 364.321 357.832C364.273 357.718 364.268 357.611 364.306 357.511L369.86 342.95ZM379.184 326.393C379.281 326.436 379.354 326.515 379.401 326.63C379.437 326.715 379.436 326.808 379.398 326.908L375.521 337.074C375.483 337.173 375.512 337.245 375.61 337.288L381.075 339.724C381.173 339.768 381.241 339.74 381.279 339.64L383.89 332.793C383.928 332.693 383.997 332.631 384.098 332.606C384.187 332.552 384.28 332.547 384.377 332.59L386.599 333.58C386.696 333.624 386.769 333.703 386.816 333.817C386.852 333.903 386.851 333.996 386.813 334.096L384.201 340.943C384.163 341.042 384.193 341.114 384.291 341.157L392.65 344.883C392.747 344.926 392.82 345.005 392.867 345.12C392.903 345.205 392.902 345.298 392.864 345.398L391.815 348.149C391.777 348.248 391.713 348.325 391.624 348.379C391.524 348.404 391.425 348.394 391.327 348.351L371.569 339.545C371.471 339.502 371.405 339.437 371.369 339.351C371.321 339.237 371.317 339.13 371.355 339.03L376.475 325.605C376.513 325.506 376.582 325.443 376.683 325.418C376.772 325.364 376.865 325.359 376.962 325.403L379.184 326.393ZM403.288 318.782C402.718 320.277 401.934 321.466 400.936 322.351C399.918 323.226 398.774 323.743 397.506 323.901C396.238 324.058 394.921 323.833 393.557 323.225L386.338 320.008C384.974 319.4 383.893 318.557 383.096 317.479C382.299 316.401 381.835 315.167 381.703 313.779C381.571 312.391 381.791 310.95 382.361 309.455C382.923 307.98 383.694 306.796 384.673 305.903C385.652 305.01 386.756 304.476 387.985 304.301C389.215 304.126 390.482 304.329 391.788 304.911C391.885 304.954 391.958 305.033 392.005 305.148C392.041 305.234 392.04 305.327 392.002 305.426L391.099 308.242C391.008 308.481 390.855 308.553 390.641 308.458C389.491 307.945 388.425 307.901 387.442 308.326C386.467 308.731 385.747 309.542 385.284 310.758C384.82 311.973 384.798 313.107 385.218 314.157C385.638 315.207 386.423 315.988 387.573 316.5L395.026 319.822C396.157 320.326 397.213 320.365 398.196 319.94C399.179 319.516 399.902 318.695 400.366 317.479C400.829 316.263 400.857 315.145 400.449 314.123C400.028 313.073 399.243 312.292 398.094 311.779C397.879 311.684 397.818 311.516 397.909 311.277L399.075 308.579C399.113 308.479 399.173 308.412 399.254 308.378C399.343 308.325 399.426 308.315 399.504 308.35C400.829 308.941 401.881 309.771 402.658 310.84C403.416 311.901 403.852 313.121 403.964 314.5C404.076 315.88 403.851 317.307 403.288 318.782ZM392.02 284.845C392.058 284.745 392.128 284.683 392.228 284.658C392.317 284.604 392.41 284.599 392.508 284.642L394.758 285.645C394.856 285.689 394.928 285.768 394.976 285.882C395.012 285.968 395.01 286.061 394.972 286.16L392.874 291.662C392.836 291.762 392.866 291.833 392.963 291.877L409.974 299.458C410.072 299.501 410.144 299.58 410.192 299.695C410.227 299.781 410.226 299.873 410.188 299.973L409.139 302.724C409.101 302.823 409.038 302.9 408.949 302.954C408.848 302.979 408.749 302.97 408.652 302.926L391.641 295.345C391.543 295.301 391.475 295.33 391.437 295.429L389.419 300.721C389.381 300.821 389.318 300.898 389.229 300.951C389.128 300.977 389.029 300.967 388.931 300.924L386.681 299.921C386.583 299.877 386.517 299.813 386.481 299.727C386.434 299.612 386.429 299.505 386.467 299.406L392.02 284.845ZM401.344 268.288C401.442 268.331 401.514 268.41 401.562 268.525C401.597 268.61 401.596 268.703 401.558 268.803L397.681 278.969C397.643 279.068 397.673 279.14 397.77 279.183L403.236 281.619C403.333 281.663 403.401 281.634 403.439 281.535L406.05 274.688C406.088 274.588 406.158 274.526 406.259 274.501C406.347 274.447 406.441 274.442 406.538 274.485L408.759 275.475C408.857 275.519 408.929 275.598 408.977 275.712C409.012 275.798 409.011 275.891 408.973 275.991L406.362 282.837C406.324 282.937 406.354 283.009 406.451 283.052L414.81 286.778C414.908 286.821 414.98 286.9 415.028 287.014C415.064 287.1 415.062 287.193 415.024 287.293L413.975 290.043C413.937 290.143 413.874 290.22 413.785 290.274C413.684 290.299 413.585 290.289 413.488 290.246L393.729 281.44C393.632 281.397 393.565 281.332 393.53 281.246C393.482 281.132 393.477 281.025 393.515 280.925L398.635 267.5C398.673 267.401 398.743 267.338 398.843 267.313C398.932 267.259 399.025 267.254 399.123 267.298L401.344 268.288ZM425.449 260.677C424.879 262.172 424.094 263.361 423.096 264.246C422.078 265.121 420.935 265.638 419.667 265.796C418.398 265.953 417.082 265.728 415.718 265.12L408.498 261.903C407.134 261.295 406.054 260.452 405.257 259.374C404.46 258.295 403.995 257.062 403.864 255.674C403.732 254.286 403.951 252.845 404.521 251.35C405.084 249.875 405.854 248.691 406.833 247.798C407.812 246.905 408.917 246.371 410.146 246.196C411.375 246.021 412.643 246.224 413.948 246.806C414.046 246.849 414.118 246.928 414.166 247.043C414.202 247.129 414.2 247.221 414.162 247.321L413.259 250.137C413.168 250.376 413.015 250.448 412.801 250.352C411.651 249.84 410.585 249.796 409.602 250.221C408.627 250.626 407.908 251.437 407.444 252.653C406.98 253.868 406.959 255.001 407.379 256.052C407.799 257.102 408.584 257.883 409.734 258.395L417.187 261.717C418.317 262.221 419.373 262.26 420.356 261.835C421.339 261.41 422.062 260.59 422.526 259.374C422.99 258.158 423.017 257.04 422.609 256.018C422.189 254.968 421.404 254.187 420.254 253.674C420.04 253.579 419.978 253.411 420.07 253.172L421.236 250.474C421.274 250.374 421.333 250.307 421.415 250.273C421.503 250.22 421.587 250.21 421.665 250.245C422.99 250.836 424.041 251.666 424.819 252.735C425.577 253.796 426.012 255.016 426.124 256.395C426.237 257.775 426.011 259.202 425.449 260.677ZM414.181 226.74C414.219 226.64 414.288 226.578 414.389 226.553C414.478 226.499 414.571 226.494 414.668 226.537L416.919 227.54C417.016 227.584 417.089 227.663 417.136 227.777C417.172 227.863 417.171 227.956 417.133 228.055L415.035 233.557C414.997 233.657 415.026 233.728 415.124 233.772L432.135 241.353C432.232 241.396 432.305 241.475 432.352 241.59C432.388 241.676 432.387 241.768 432.349 241.868L431.3 244.619C431.262 244.718 431.198 244.795 431.109 244.849C431.009 244.874 430.909 244.865 430.812 244.821L413.801 237.24C413.704 237.196 413.636 237.225 413.598 237.324L411.579 242.616C411.541 242.716 411.478 242.793 411.389 242.846C411.288 242.871 411.189 242.862 411.092 242.819L408.841 241.816C408.744 241.772 408.677 241.708 408.642 241.622C408.594 241.507 408.589 241.4 408.627 241.301L414.181 226.74ZM423.505 210.183C423.602 210.226 423.675 210.305 423.722 210.419C423.758 210.505 423.757 210.598 423.719 210.698L419.842 220.864C419.803 220.963 419.833 221.035 419.931 221.078L425.396 223.514C425.494 223.558 425.562 223.529 425.6 223.43L428.211 216.583C428.249 216.483 428.318 216.421 428.419 216.396C428.508 216.342 428.601 216.337 428.698 216.38L430.92 217.37C431.017 217.414 431.09 217.493 431.137 217.607C431.173 217.693 431.172 217.786 431.134 217.885L428.522 224.732C428.484 224.832 428.514 224.904 428.612 224.947L436.971 228.673C437.068 228.716 437.141 228.795 437.188 228.909C437.224 228.995 437.223 229.088 437.185 229.188L436.136 231.938C436.098 232.038 436.034 232.115 435.945 232.168C435.845 232.193 435.746 232.184 435.648 232.141L415.89 223.335C415.792 223.292 415.726 223.227 415.69 223.141C415.642 223.027 415.638 222.92 415.676 222.82L420.796 209.395C420.834 209.295 420.903 209.233 421.004 209.208C421.093 209.154 421.186 209.149 421.283 209.193L423.505 210.183ZM447.609 202.572C447.039 204.067 446.255 205.256 445.256 206.141C444.239 207.016 443.095 207.533 441.827 207.691C440.559 207.848 439.242 207.623 437.878 207.015L430.659 203.798C429.295 203.19 428.214 202.347 427.417 201.269C426.62 200.19 426.156 198.957 426.024 197.569C425.892 196.181 426.112 194.74 426.682 193.245C427.244 191.77 428.015 190.586 428.994 189.693C429.973 188.8 431.077 188.266 432.306 188.091C433.536 187.916 434.803 188.119 436.109 188.701C436.206 188.744 436.279 188.823 436.326 188.938C436.362 189.024 436.361 189.116 436.323 189.216L435.42 192.032C435.329 192.271 435.176 192.343 434.961 192.247C433.812 191.735 432.746 191.691 431.763 192.116C430.788 192.521 430.068 193.332 429.605 194.547C429.141 195.763 429.119 196.896 429.539 197.947C429.959 198.997 430.744 199.778 431.894 200.29L439.347 203.612C440.478 204.116 441.534 204.155 442.517 203.73C443.5 203.305 444.223 202.485 444.686 201.269C445.15 200.053 445.178 198.934 444.77 197.913C444.349 196.863 443.564 196.082 442.415 195.569C442.2 195.474 442.139 195.306 442.23 195.067L443.396 192.368C443.434 192.269 443.494 192.202 443.575 192.168C443.664 192.115 443.747 192.105 443.825 192.14C445.15 192.73 446.202 193.56 446.979 194.63C447.737 195.691 448.172 196.911 448.285 198.29C448.397 199.67 448.172 201.097 447.609 202.572ZM436.341 168.635C436.379 168.535 436.449 168.473 436.549 168.448C436.638 168.394 436.731 168.389 436.829 168.432L439.079 169.435C439.177 169.479 439.249 169.558 439.297 169.672C439.332 169.758 439.331 169.851 439.293 169.95L437.195 175.452C437.157 175.551 437.187 175.623 437.284 175.666L454.295 183.248C454.393 183.291 454.465 183.37 454.513 183.485C454.548 183.571 454.547 183.663 454.509 183.763L453.46 186.514C453.422 186.613 453.359 186.69 453.27 186.744C453.169 186.769 453.07 186.76 452.973 186.716L435.961 179.135C435.864 179.091 435.796 179.119 435.758 179.219L433.74 184.511C433.702 184.611 433.638 184.688 433.55 184.741C433.449 184.766 433.35 184.757 433.252 184.714L431.002 183.711C430.904 183.667 430.838 183.603 430.802 183.517C430.755 183.402 430.75 183.295 430.788 183.196L436.341 168.635ZM445.665 152.078C445.763 152.121 445.835 152.2 445.883 152.314C445.918 152.4 445.917 152.493 445.879 152.593L442.002 162.758C441.964 162.858 441.994 162.93 442.091 162.973L447.557 165.409C447.654 165.452 447.722 165.424 447.76 165.325L450.371 158.478C450.409 158.378 450.479 158.316 450.579 158.291C450.668 158.237 450.761 158.232 450.859 158.275L453.08 159.265C453.178 159.309 453.25 159.388 453.298 159.502C453.333 159.588 453.332 159.681 453.294 159.78L450.683 166.627C450.645 166.727 450.675 166.799 450.772 166.842L459.131 170.568C459.229 170.611 459.301 170.69 459.349 170.804C459.384 170.89 459.383 170.983 459.345 171.083L458.296 173.833C458.258 173.933 458.195 174.01 458.106 174.063C458.005 174.088 457.906 174.079 457.809 174.036L438.05 165.23C437.953 165.187 437.886 165.122 437.85 165.036C437.803 164.922 437.798 164.814 437.836 164.715L442.956 151.29C442.994 151.19 443.064 151.128 443.164 151.103C443.253 151.049 443.346 151.044 443.444 151.088L445.665 152.078ZM469.77 144.467C469.2 145.962 468.415 147.151 467.417 148.036C466.399 148.911 465.256 149.428 463.988 149.586C462.719 149.743 461.403 149.518 460.039 148.91L452.819 145.693C451.455 145.085 450.375 144.242 449.578 143.163C448.781 142.085 448.316 140.852 448.185 139.464C448.053 138.076 448.272 136.635 448.842 135.14C449.405 133.665 450.175 132.481 451.154 131.588C452.133 130.695 453.237 130.161 454.467 129.986C455.696 129.811 456.964 130.014 458.269 130.596C458.367 130.639 458.439 130.718 458.487 130.833C458.522 130.919 458.521 131.011 458.483 131.111L457.58 133.927C457.489 134.166 457.336 134.238 457.122 134.142C455.972 133.63 454.906 133.586 453.923 134.011C452.948 134.416 452.229 135.226 451.765 136.442C451.301 137.658 451.28 138.791 451.7 139.841C452.12 140.892 452.905 141.673 454.055 142.185L461.508 145.507C462.638 146.011 463.694 146.05 464.677 145.625C465.66 145.2 466.383 144.38 466.847 143.164C467.311 141.948 467.338 140.829 466.93 139.808C466.51 138.758 465.725 137.976 464.575 137.464C464.361 137.369 464.299 137.201 464.391 136.962L465.557 134.263C465.595 134.164 465.654 134.097 465.736 134.063C465.824 134.01 465.908 134 465.986 134.035C467.311 134.625 468.362 135.455 469.14 136.525C469.898 137.586 470.333 138.806 470.445 140.185C470.558 141.564 470.332 142.992 469.77 144.467ZM458.502 110.53C458.54 110.43 458.609 110.368 458.71 110.343C458.799 110.289 458.892 110.284 458.989 110.327L461.24 111.33C461.337 111.374 461.41 111.453 461.457 111.567C461.493 111.653 461.492 111.746 461.454 111.845L459.356 117.347C459.318 117.446 459.347 117.518 459.445 117.561L476.456 125.143C476.553 125.186 476.626 125.265 476.673 125.38C476.709 125.465 476.708 125.558 476.67 125.658L475.621 128.409C475.583 128.508 475.519 128.585 475.43 128.639C475.33 128.664 475.23 128.655 475.133 128.611L458.122 121.03C458.025 120.986 457.957 121.014 457.919 121.114L455.9 126.406C455.862 126.506 455.799 126.583 455.71 126.636C455.609 126.661 455.51 126.652 455.413 126.609L453.162 125.606C453.065 125.562 452.998 125.498 452.963 125.412C452.915 125.297 452.91 125.19 452.948 125.091L458.502 110.53ZM467.826 93.9725C467.923 94.0159 467.996 94.0949 468.043 94.2093C468.079 94.2952 468.078 94.3879 468.04 94.4876L464.162 104.653C464.124 104.753 464.154 104.825 464.252 104.868L469.717 107.304C469.815 107.347 469.882 107.319 469.92 107.22L472.532 100.373C472.57 100.273 472.639 100.211 472.74 100.186C472.829 100.132 472.922 100.127 473.019 100.17L475.241 101.16C475.338 101.204 475.411 101.283 475.458 101.397C475.494 101.483 475.493 101.576 475.455 101.675L472.843 108.522C472.805 108.622 472.835 108.693 472.932 108.737L481.292 112.462C481.389 112.506 481.462 112.585 481.509 112.699C481.545 112.785 481.544 112.878 481.506 112.978L480.457 115.728C480.419 115.828 480.355 115.905 480.266 115.958C480.166 115.983 480.067 115.974 479.969 115.931L460.211 107.125C460.113 107.081 460.047 107.017 460.011 106.931C459.963 106.816 459.959 106.709 459.997 106.61L465.117 93.185C465.155 93.0853 465.224 93.0229 465.325 92.9979C465.414 92.9442 465.507 92.9391 465.604 92.9825L467.826 93.9725Z" fill="black"/>
<path d="M474.521 227.094L474.327 227.212C472.263 229.825 473.576 275.259 474.521 298.309C355.096 370.248 115.271 514.126 111.377 514.126H2.33594L474.327 227.212C474.389 227.134 474.454 227.094 474.521 227.094Z" fill="#B10610" stroke="black"/>
<path d="M105.357 500.168C103.994 501.007 102.657 501.469 101.344 501.553C100.022 501.618 98.826 501.319 97.7562 500.655C96.6865 499.991 95.817 498.991 95.1479 497.656L91.6066 490.59C90.9375 489.255 90.6312 487.909 90.6878 486.551C90.7444 485.194 91.1518 483.919 91.9101 482.729C92.6684 481.538 93.7288 480.524 95.0913 479.685C96.4357 478.857 97.7594 478.392 99.0625 478.288C100.366 478.185 101.543 478.446 102.593 479.072C103.644 479.698 104.489 480.65 105.13 481.928C105.178 482.023 105.184 482.131 105.15 482.252C105.124 482.343 105.066 482.416 104.975 482.472L102.539 484.159C102.321 484.293 102.16 484.255 102.055 484.045C101.491 482.92 100.701 482.221 99.6845 481.948C98.6864 481.664 97.6332 481.863 96.5251 482.546C95.4169 483.228 94.6988 484.119 94.3707 485.22C94.0427 486.32 94.1606 487.433 94.7246 488.558L98.3806 495.853C98.935 496.959 99.7203 497.649 100.737 497.922C101.753 498.194 102.815 497.99 103.923 497.307C105.031 496.625 105.745 495.749 106.065 494.679C106.393 493.578 106.275 492.466 105.711 491.34C105.606 491.131 105.662 490.959 105.88 490.824L108.444 489.395C108.535 489.339 108.622 489.323 108.705 489.347C108.807 489.359 108.877 489.404 108.915 489.48C109.565 490.777 109.857 492.095 109.791 493.433C109.715 494.753 109.293 495.998 108.525 497.17C107.757 498.341 106.701 499.341 105.357 500.168ZM117.73 466.047C117.821 465.991 117.913 465.984 118.006 466.027C118.107 466.039 118.182 466.093 118.229 466.189L119.333 468.391C119.381 468.487 119.388 468.595 119.353 468.716C119.328 468.807 119.269 468.88 119.179 468.936L114.165 472.023C114.074 472.079 114.052 472.154 114.1 472.25L122.444 488.9C122.492 488.995 122.499 489.103 122.464 489.224C122.439 489.315 122.38 489.389 122.289 489.444L119.782 490.988C119.692 491.044 119.596 491.066 119.494 491.053C119.401 491.01 119.331 490.941 119.283 490.846L110.939 474.196C110.891 474.1 110.822 474.081 110.731 474.137L105.908 477.106C105.817 477.162 105.721 477.184 105.62 477.171C105.527 477.129 105.457 477.059 105.409 476.964L104.305 474.761C104.257 474.666 104.246 474.573 104.272 474.482C104.306 474.361 104.369 474.273 104.46 474.217L117.73 466.047ZM135.127 458.631C135.175 458.726 135.181 458.834 135.147 458.955C135.121 459.046 135.063 459.12 134.972 459.176L125.707 464.879C125.616 464.935 125.595 465.011 125.642 465.106L128.323 470.456C128.371 470.551 128.441 470.571 128.531 470.515L134.772 466.674C134.862 466.618 134.954 466.611 135.047 466.654C135.148 466.666 135.223 466.72 135.271 466.816L136.36 468.99C136.408 469.085 136.415 469.193 136.38 469.314C136.355 469.405 136.296 469.478 136.205 469.534L129.965 473.376C129.874 473.432 129.853 473.508 129.901 473.603L134.001 481.785C134.049 481.88 134.056 481.989 134.021 482.11C133.995 482.2 133.937 482.274 133.846 482.33L131.339 483.873C131.248 483.929 131.152 483.951 131.051 483.938C130.958 483.895 130.888 483.826 130.84 483.731L121.148 464.392C121.1 464.296 121.089 464.203 121.115 464.113C121.149 463.992 121.212 463.903 121.303 463.847L133.538 456.315C133.629 456.259 133.721 456.252 133.813 456.295C133.915 456.307 133.989 456.361 134.037 456.457L135.127 458.631ZM158.313 467.566C156.951 468.405 155.613 468.866 154.301 468.951C152.978 469.016 151.782 468.717 150.713 468.053C149.643 467.389 148.773 466.389 148.104 465.054L144.563 457.988C143.894 456.653 143.588 455.306 143.644 453.949C143.701 452.591 144.108 451.317 144.866 450.127C145.625 448.936 146.685 447.921 148.048 447.082C149.392 446.255 150.716 445.789 152.019 445.686C153.322 445.582 154.499 445.844 155.55 446.47C156.6 447.096 157.446 448.047 158.086 449.325C158.134 449.421 158.141 449.529 158.106 449.65C158.08 449.741 158.022 449.814 157.931 449.87L155.496 451.556C155.278 451.691 155.116 451.653 155.011 451.443C154.447 450.318 153.657 449.619 152.641 449.346C151.643 449.062 150.59 449.261 149.481 449.943C148.373 450.626 147.655 451.517 147.327 452.617C146.999 453.718 147.117 454.831 147.681 455.956L151.337 463.251C151.891 464.357 152.677 465.047 153.693 465.319C154.709 465.592 155.771 465.387 156.88 464.705C157.988 464.023 158.702 463.147 159.021 462.077C159.349 460.976 159.231 459.863 158.667 458.738C158.562 458.528 158.618 458.356 158.836 458.222L161.401 456.793C161.492 456.737 161.579 456.721 161.662 456.745C161.763 456.757 161.833 456.802 161.871 456.878C162.521 458.175 162.813 459.492 162.747 460.831C162.671 462.15 162.249 463.396 161.482 464.567C160.714 465.739 159.658 466.738 158.313 467.566ZM170.687 433.444C170.778 433.388 170.869 433.382 170.962 433.425C171.063 433.437 171.138 433.491 171.186 433.586L172.29 435.789C172.338 435.885 172.344 435.993 172.31 436.114C172.284 436.205 172.226 436.278 172.135 436.334L167.121 439.421C167.03 439.477 167.009 439.552 167.056 439.648L175.401 456.298C175.449 456.393 175.455 456.501 175.421 456.622C175.395 456.713 175.337 456.786 175.246 456.842L172.739 458.386C172.648 458.442 172.552 458.463 172.451 458.451C172.358 458.408 172.288 458.339 172.24 458.244L163.895 441.594C163.848 441.498 163.778 441.478 163.687 441.534L158.864 444.504C158.773 444.56 158.677 444.581 158.576 444.569C158.483 444.526 158.413 444.457 158.365 444.362L157.261 442.159C157.213 442.064 157.202 441.971 157.228 441.88C157.263 441.759 157.325 441.67 157.416 441.614L170.687 433.444ZM188.083 426.029C188.131 426.124 188.138 426.232 188.103 426.353C188.077 426.444 188.019 426.517 187.928 426.573L178.663 432.277C178.572 432.333 178.551 432.409 178.599 432.504L181.28 437.854C181.328 437.949 181.397 437.969 181.488 437.913L187.728 434.071C187.819 434.015 187.911 434.009 188.003 434.051C188.105 434.064 188.179 434.118 188.227 434.213L189.317 436.387C189.364 436.483 189.371 436.591 189.337 436.712C189.311 436.803 189.253 436.876 189.162 436.932L182.922 440.774C182.831 440.83 182.809 440.905 182.857 441.001L186.957 449.183C187.005 449.278 187.012 449.386 186.978 449.507C186.952 449.598 186.893 449.671 186.803 449.727L184.296 451.271C184.205 451.327 184.109 451.348 184.007 451.336C183.915 451.293 183.844 451.224 183.796 451.129L174.104 431.79C174.057 431.694 174.046 431.601 174.071 431.51C174.106 431.389 174.168 431.301 174.259 431.245L186.494 423.712C186.585 423.656 186.677 423.65 186.77 423.693C186.871 423.705 186.946 423.759 186.994 423.854L188.083 426.029ZM211.27 434.964C209.907 435.803 208.57 436.264 207.257 436.349C205.935 436.414 204.739 436.115 203.669 435.45C202.599 434.786 201.73 433.787 201.061 432.452L197.519 425.385C196.85 424.05 196.544 422.704 196.601 421.347C196.657 419.989 197.065 418.715 197.823 417.524C198.581 416.334 199.642 415.319 201.004 414.48C202.348 413.653 203.672 413.187 204.975 413.084C206.278 412.98 207.455 413.241 208.506 413.867C209.557 414.493 210.402 415.445 211.042 416.723C211.09 416.818 211.097 416.927 211.063 417.048C211.037 417.138 210.978 417.212 210.888 417.268L208.452 418.954C208.234 419.088 208.073 419.051 207.968 418.841C207.404 417.715 206.613 417.016 205.597 416.744C204.599 416.46 203.546 416.659 202.438 417.341C201.33 418.023 200.612 418.915 200.283 420.015C199.955 421.115 200.073 422.228 200.637 423.354L204.293 430.649C204.848 431.755 205.633 432.444 206.649 432.717C207.666 432.99 208.728 432.785 209.836 432.103C210.944 431.421 211.658 430.544 211.977 429.474C212.305 428.374 212.188 427.261 211.624 426.136C211.518 425.926 211.575 425.754 211.793 425.62L214.357 424.191C214.448 424.135 214.535 424.119 214.618 424.142C214.72 424.155 214.789 424.199 214.828 424.276C215.478 425.573 215.769 426.89 215.703 428.229C215.628 429.548 215.206 430.794 214.438 431.965C213.67 433.137 212.614 434.136 211.27 434.964ZM223.643 400.842C223.734 400.786 223.826 400.78 223.918 400.822C224.02 400.835 224.094 400.889 224.142 400.984L225.246 403.187C225.294 403.282 225.301 403.39 225.266 403.511C225.24 403.602 225.182 403.676 225.091 403.731L220.077 406.818C219.986 406.874 219.965 406.95 220.013 407.045L228.357 423.695C228.405 423.791 228.412 423.899 228.377 424.02C228.351 424.111 228.293 424.184 228.202 424.24L225.695 425.783C225.604 425.839 225.508 425.861 225.407 425.848C225.314 425.806 225.244 425.737 225.196 425.641L216.852 408.991C216.804 408.896 216.735 408.876 216.644 408.932L211.821 411.902C211.73 411.957 211.634 411.979 211.532 411.967C211.44 411.924 211.369 411.855 211.321 411.76L210.217 409.557C210.17 409.461 210.159 409.368 210.185 409.278C210.219 409.156 210.282 409.068 210.372 409.012L223.643 400.842ZM241.04 393.426C241.087 393.522 241.094 393.63 241.06 393.751C241.034 393.842 240.975 393.915 240.885 393.971L231.62 399.675C231.529 399.731 231.507 399.806 231.555 399.902L234.236 405.252C234.284 405.347 234.353 405.367 234.444 405.311L240.684 401.469C240.775 401.413 240.867 401.406 240.96 401.449C241.061 401.462 241.136 401.516 241.183 401.611L242.273 403.785C242.321 403.881 242.328 403.989 242.293 404.11C242.267 404.201 242.209 404.274 242.118 404.33L235.878 408.172C235.787 408.227 235.766 408.303 235.813 408.398L239.914 416.58C239.962 416.676 239.968 416.784 239.934 416.905C239.908 416.996 239.85 417.069 239.759 417.125L237.252 418.668C237.161 418.724 237.065 418.746 236.964 418.734C236.871 418.691 236.801 418.622 236.753 418.527L227.061 399.187C227.013 399.092 227.002 398.999 227.028 398.908C227.062 398.787 227.125 398.699 227.216 398.643L239.451 391.11C239.542 391.054 239.633 391.048 239.726 391.09C239.828 391.103 239.902 391.157 239.95 391.252L241.04 393.426ZM264.226 402.361C262.864 403.2 261.526 403.662 260.213 403.746C258.891 403.812 257.695 403.512 256.625 402.848C255.556 402.184 254.686 401.184 254.017 399.849L250.476 392.783C249.807 391.448 249.5 390.102 249.557 388.744C249.613 387.387 250.021 386.113 250.779 384.922C251.538 383.731 252.598 382.717 253.96 381.878C255.305 381.05 256.628 380.585 257.932 380.481C259.235 380.378 260.412 380.639 261.462 381.265C262.513 381.891 263.358 382.843 263.999 384.121C264.047 384.216 264.053 384.324 264.019 384.445C263.993 384.536 263.935 384.609 263.844 384.665L261.409 386.352C261.191 386.486 261.029 386.448 260.924 386.238C260.36 385.113 259.57 384.414 258.554 384.141C257.555 383.857 256.502 384.057 255.394 384.739C254.286 385.421 253.568 386.312 253.24 387.413C252.912 388.513 253.03 389.626 253.594 390.751L257.25 398.046C257.804 399.153 258.589 399.842 259.606 400.115C260.622 400.388 261.684 400.183 262.792 399.501C263.9 398.818 264.614 397.942 264.934 396.872C265.262 395.772 265.144 394.659 264.58 393.534C264.475 393.324 264.531 393.152 264.749 393.018L267.314 391.589C267.404 391.533 267.491 391.517 267.575 391.54C267.676 391.553 267.746 391.597 267.784 391.673C268.434 392.97 268.726 394.288 268.66 395.626C268.584 396.946 268.162 398.191 267.394 399.363C266.626 400.534 265.57 401.534 264.226 402.361ZM276.6 368.24C276.69 368.184 276.782 368.177 276.875 368.22C276.976 368.232 277.051 368.286 277.099 368.382L278.203 370.585C278.25 370.68 278.257 370.788 278.223 370.909C278.197 371 278.138 371.073 278.048 371.129L273.034 374.216C272.943 374.272 272.921 374.348 272.969 374.443L281.313 391.093C281.361 391.188 281.368 391.297 281.334 391.418C281.308 391.508 281.249 391.582 281.159 391.638L278.652 393.181C278.561 393.237 278.465 393.259 278.363 393.246C278.271 393.203 278.2 393.134 278.152 393.039L269.808 376.389C269.76 376.294 269.691 376.274 269.6 376.33L264.777 379.299C264.686 379.355 264.59 379.377 264.489 379.364C264.396 379.322 264.326 379.253 264.278 379.157L263.174 376.954C263.126 376.859 263.115 376.766 263.141 376.675C263.175 376.554 263.238 376.466 263.329 376.41L276.6 368.24ZM293.996 360.824C294.044 360.919 294.05 361.028 294.016 361.149C293.99 361.239 293.932 361.313 293.841 361.369L284.576 367.073C284.485 367.129 284.464 367.204 284.511 367.3L287.193 372.649C287.24 372.745 287.31 372.764 287.4 372.708L293.641 368.867C293.732 368.811 293.823 368.804 293.916 368.847C294.017 368.859 294.092 368.913 294.14 369.009L295.229 371.183C295.277 371.278 295.284 371.386 295.249 371.507C295.224 371.598 295.165 371.672 295.074 371.728L288.834 375.569C288.743 375.625 288.722 375.701 288.77 375.796L292.87 383.978C292.918 384.074 292.925 384.182 292.89 384.303C292.864 384.394 292.806 384.467 292.715 384.523L290.208 386.066C290.117 386.122 290.021 386.144 289.92 386.131C289.827 386.089 289.757 386.02 289.709 385.924L280.017 366.585C279.969 366.49 279.958 366.397 279.984 366.306C280.019 366.185 280.081 366.096 280.172 366.04L292.407 358.508C292.498 358.452 292.59 358.445 292.683 358.488C292.784 358.501 292.858 358.554 292.906 358.65L293.996 360.824ZM317.182 369.759C315.82 370.598 314.482 371.06 313.17 371.144C311.847 371.209 310.651 370.91 309.582 370.246C308.512 369.582 307.642 368.582 306.973 367.247L303.432 360.181C302.763 358.846 302.457 357.499 302.513 356.142C302.57 354.784 302.977 353.51 303.736 352.32C304.494 351.129 305.554 350.114 306.917 349.276C308.261 348.448 309.585 347.982 310.888 347.879C312.191 347.776 313.368 348.037 314.419 348.663C315.469 349.289 316.315 350.241 316.955 351.518C317.003 351.614 317.01 351.722 316.975 351.843C316.949 351.934 316.891 352.007 316.8 352.063L314.365 353.75C314.147 353.884 313.985 353.846 313.88 353.636C313.316 352.511 312.526 351.812 311.51 351.539C310.512 351.255 309.459 351.454 308.351 352.136C307.242 352.819 306.524 353.71 306.196 354.81C305.868 355.911 305.986 357.024 306.55 358.149L310.206 365.444C310.76 366.55 311.546 367.24 312.562 367.513C313.578 367.785 314.641 367.581 315.749 366.898C316.857 366.216 317.571 365.34 317.89 364.27C318.218 363.169 318.1 362.057 317.536 360.931C317.431 360.721 317.488 360.549 317.706 360.415L320.27 358.986C320.361 358.93 320.448 358.914 320.531 358.938C320.632 358.95 320.702 358.995 320.74 359.071C321.39 360.368 321.682 361.686 321.616 363.024C321.54 364.343 321.119 365.589 320.351 366.76C319.583 367.932 318.527 368.932 317.182 369.759ZM329.556 335.637C329.647 335.582 329.738 335.575 329.831 335.618C329.933 335.63 330.007 335.684 330.055 335.779L331.159 337.982C331.207 338.078 331.213 338.186 331.179 338.307C331.153 338.398 331.095 338.471 331.004 338.527L325.99 341.614C325.899 341.67 325.878 341.745 325.925 341.841L334.27 358.491C334.318 358.586 334.324 358.694 334.29 358.815C334.264 358.906 334.206 358.979 334.115 359.035L331.608 360.579C331.517 360.635 331.421 360.656 331.32 360.644C331.227 360.601 331.157 360.532 331.109 360.437L322.764 343.787C322.717 343.691 322.647 343.672 322.556 343.728L317.733 346.697C317.642 346.753 317.546 346.775 317.445 346.762C317.352 346.719 317.282 346.65 317.234 346.555L316.13 344.352C316.082 344.257 316.071 344.164 316.097 344.073C316.132 343.952 316.194 343.863 316.285 343.808L329.556 335.637ZM346.952 328.222C347 328.317 347.007 328.425 346.972 328.546C346.946 328.637 346.888 328.71 346.797 328.766L337.532 334.47C337.442 334.526 337.42 334.602 337.468 334.697L340.149 340.047C340.197 340.142 340.266 340.162 340.357 340.106L346.597 336.264C346.688 336.208 346.78 336.202 346.872 336.245C346.974 336.257 347.048 336.311 347.096 336.406L348.186 338.581C348.234 338.676 348.24 338.784 348.206 338.905C348.18 338.996 348.122 339.069 348.031 339.125L341.791 342.967C341.7 343.023 341.678 343.099 341.726 343.194L345.827 351.376C345.874 351.471 345.881 351.579 345.847 351.7C345.821 351.791 345.762 351.865 345.672 351.921L343.165 353.464C343.074 353.52 342.978 353.542 342.876 353.529C342.784 353.486 342.713 353.417 342.666 353.322L332.973 333.983C332.926 333.887 332.915 333.794 332.94 333.704C332.975 333.582 333.038 333.494 333.128 333.438L345.364 325.906C345.454 325.85 345.546 325.843 345.639 325.886C345.74 325.898 345.815 325.952 345.863 326.048L346.952 328.222ZM370.139 337.157C368.776 337.996 367.439 338.457 366.126 338.542C364.804 338.607 363.608 338.308 362.538 337.644C361.468 336.979 360.599 335.98 359.93 334.645L356.388 327.579C355.719 326.243 355.413 324.897 355.47 323.54C355.526 322.182 355.934 320.908 356.692 319.717C357.45 318.527 358.511 317.512 359.873 316.673C361.217 315.846 362.541 315.38 363.844 315.277C365.147 315.173 366.324 315.434 367.375 316.06C368.426 316.686 369.271 317.638 369.912 318.916C369.959 319.012 369.966 319.12 369.932 319.241C369.906 319.332 369.847 319.405 369.757 319.461L367.321 321.147C367.103 321.281 366.942 321.244 366.837 321.034C366.273 319.909 365.483 319.21 364.466 318.937C363.468 318.653 362.415 318.852 361.307 319.534C360.199 320.216 359.481 321.108 359.153 322.208C358.824 323.309 358.942 324.421 359.506 325.547L363.162 332.842C363.717 333.948 364.502 334.637 365.518 334.91C366.535 335.183 367.597 334.978 368.705 334.296C369.813 333.614 370.527 332.738 370.846 331.667C371.175 330.567 371.057 329.454 370.493 328.329C370.388 328.119 370.444 327.947 370.662 327.813L373.226 326.384C373.317 326.328 373.404 326.312 373.487 326.336C373.589 326.348 373.658 326.392 373.697 326.469C374.347 327.766 374.639 329.083 374.572 330.422C374.497 331.741 374.075 332.987 373.307 334.158C372.539 335.33 371.483 336.329 370.139 337.157ZM382.512 303.035C382.603 302.979 382.695 302.973 382.788 303.015C382.889 303.028 382.963 303.082 383.011 303.177L384.115 305.38C384.163 305.475 384.17 305.584 384.135 305.705C384.109 305.795 384.051 305.869 383.96 305.925L378.946 309.011C378.856 309.067 378.834 309.143 378.882 309.238L387.226 325.888C387.274 325.984 387.281 326.092 387.246 326.213C387.22 326.304 387.162 326.377 387.071 326.433L384.564 327.976C384.473 328.032 384.377 328.054 384.276 328.042C384.183 327.999 384.113 327.93 384.065 327.834L375.721 311.184C375.673 311.089 375.604 311.069 375.513 311.125L370.69 314.095C370.599 314.151 370.503 314.172 370.401 314.16C370.309 314.117 370.238 314.048 370.191 313.953L369.087 311.75C369.039 311.655 369.028 311.561 369.054 311.471C369.088 311.35 369.151 311.261 369.242 311.205L382.512 303.035ZM399.909 295.62C399.956 295.715 399.963 295.823 399.929 295.944C399.903 296.035 399.845 296.108 399.754 296.164L390.489 301.868C390.398 301.924 390.376 302 390.424 302.095L393.105 307.445C393.153 307.54 393.222 307.56 393.313 307.504L399.553 303.662C399.644 303.606 399.736 303.6 399.829 303.642C399.93 303.655 400.005 303.709 400.052 303.804L401.142 305.978C401.19 306.074 401.197 306.182 401.162 306.303C401.136 306.394 401.078 306.467 400.987 306.523L394.747 310.365C394.656 310.421 394.635 310.496 394.682 310.592L398.783 318.774C398.831 318.869 398.837 318.977 398.803 319.098C398.777 319.189 398.719 319.262 398.628 319.318L396.121 320.862C396.03 320.918 395.934 320.939 395.833 320.927C395.74 320.884 395.67 320.815 395.622 320.72L385.93 301.38C385.882 301.285 385.871 301.192 385.897 301.101C385.931 300.98 385.994 300.892 386.085 300.836L398.32 293.303C398.411 293.247 398.503 293.241 398.595 293.284C398.697 293.296 398.771 293.35 398.819 293.445L399.909 295.62ZM423.095 304.555C421.733 305.393 420.395 305.855 419.082 305.939C417.76 306.005 416.564 305.705 415.494 305.041C414.425 304.377 413.555 303.378 412.886 302.043L409.345 294.976C408.676 293.641 408.369 292.295 408.426 290.937C408.483 289.58 408.89 288.306 409.648 287.115C410.407 285.925 411.467 284.91 412.83 284.071C414.174 283.243 415.498 282.778 416.801 282.674C418.104 282.571 419.281 282.832 420.331 283.458C421.382 284.084 422.228 285.036 422.868 286.314C422.916 286.409 422.922 286.517 422.888 286.638C422.862 286.729 422.804 286.803 422.713 286.859L420.278 288.545C420.06 288.679 419.898 288.641 419.793 288.432C419.229 287.306 418.439 286.607 417.423 286.335C416.425 286.051 415.371 286.25 414.263 286.932C413.155 287.614 412.437 288.505 412.109 289.606C411.781 290.706 411.899 291.819 412.463 292.944L416.119 300.24C416.673 301.346 417.458 302.035 418.475 302.308C419.491 302.581 420.553 302.376 421.661 301.694C422.77 301.012 423.483 300.135 423.803 299.065C424.131 297.965 424.013 296.852 423.449 295.727C423.344 295.517 423.4 295.345 423.618 295.211L426.183 293.782C426.273 293.726 426.36 293.71 426.444 293.733C426.545 293.746 426.615 293.79 426.653 293.866C427.303 295.163 427.595 296.481 427.529 297.82C427.453 299.139 427.031 300.384 426.263 301.556C425.496 302.727 424.439 303.727 423.095 304.555ZM435.469 270.433C435.559 270.377 435.651 270.37 435.744 270.413C435.845 270.426 435.92 270.48 435.968 270.575L437.072 272.778C437.119 272.873 437.126 272.981 437.092 273.102C437.066 273.193 437.008 273.266 436.917 273.322L431.903 276.409C431.812 276.465 431.79 276.541 431.838 276.636L440.183 293.286C440.23 293.382 440.237 293.49 440.203 293.611C440.177 293.702 440.118 293.775 440.028 293.831L437.521 295.374C437.43 295.43 437.334 295.452 437.232 295.439C437.14 295.397 437.069 295.328 437.022 295.232L428.677 278.582C428.629 278.487 428.56 278.467 428.469 278.523L423.646 281.492C423.555 281.548 423.459 281.57 423.358 281.558C423.265 281.515 423.195 281.446 423.147 281.35L422.043 279.148C421.995 279.052 421.984 278.959 422.01 278.868C422.044 278.747 422.107 278.659 422.198 278.603L435.469 270.433ZM452.865 263.017C452.913 263.113 452.919 263.221 452.885 263.342C452.859 263.433 452.801 263.506 452.71 263.562L443.445 269.266C443.354 269.322 443.333 269.397 443.381 269.493L446.062 274.842C446.109 274.938 446.179 274.958 446.27 274.902L452.51 271.06C452.601 271.004 452.692 270.997 452.785 271.04C452.886 271.053 452.961 271.106 453.009 271.202L454.099 273.376C454.146 273.471 454.153 273.58 454.119 273.701C454.093 273.791 454.034 273.865 453.944 273.921L447.703 277.762C447.612 277.818 447.591 277.894 447.639 277.989L451.739 286.171C451.787 286.267 451.794 286.375 451.759 286.496C451.734 286.587 451.675 286.66 451.584 286.716L449.077 288.259C448.987 288.315 448.89 288.337 448.789 288.325C448.696 288.282 448.626 288.213 448.578 288.117L438.886 268.778C438.838 268.683 438.827 268.59 438.853 268.499C438.888 268.378 438.95 268.289 439.041 268.234L451.276 260.701C451.367 260.645 451.459 260.638 451.552 260.681C451.653 260.694 451.728 260.748 451.775 260.843L452.865 263.017ZM122.383 534.141C121.02 534.98 119.683 535.441 118.37 535.526C117.048 535.591 115.852 535.291 114.782 534.627C113.712 533.963 112.843 532.964 112.174 531.629L108.632 524.562C107.963 523.227 107.657 521.881 107.714 520.523C107.77 519.166 108.178 517.892 108.936 516.701C109.694 515.511 110.755 514.496 112.117 513.657C113.461 512.83 114.785 512.364 116.088 512.26C117.391 512.157 118.568 512.418 119.619 513.044C120.67 513.67 121.515 514.622 122.156 515.9C122.203 515.995 122.21 516.103 122.176 516.225C122.15 516.315 122.091 516.389 122.001 516.445L119.565 518.131C119.347 518.265 119.186 518.227 119.081 518.018C118.517 516.892 117.727 516.193 116.71 515.921C115.712 515.637 114.659 515.836 113.551 516.518C112.443 517.2 111.725 518.092 111.397 519.192C111.068 520.292 111.186 521.405 111.75 522.53L115.406 529.826C115.961 530.932 116.746 531.621 117.762 531.894C118.779 532.167 119.841 531.962 120.949 531.28C122.057 530.598 122.771 529.721 123.09 528.651C123.419 527.551 123.301 526.438 122.737 525.313C122.631 525.103 122.688 524.931 122.906 524.797L125.47 523.368C125.561 523.312 125.648 523.296 125.731 523.319C125.833 523.332 125.902 523.376 125.941 523.453C126.591 524.749 126.883 526.067 126.816 527.406C126.741 528.725 126.319 529.97 125.551 531.142C124.783 532.313 123.727 533.313 122.383 534.141ZM134.756 500.019C134.847 499.963 134.939 499.956 135.032 499.999C135.133 500.012 135.207 500.066 135.255 500.161L136.359 502.364C136.407 502.459 136.414 502.567 136.379 502.688C136.353 502.779 136.295 502.853 136.204 502.908L131.19 505.995C131.099 506.051 131.078 506.127 131.126 506.222L139.47 522.872C139.518 522.968 139.525 523.076 139.49 523.197C139.464 523.288 139.406 523.361 139.315 523.417L136.808 524.96C136.717 525.016 136.621 525.038 136.52 525.025C136.427 524.983 136.357 524.914 136.309 524.818L127.965 508.168C127.917 508.073 127.848 508.053 127.757 508.109L122.934 511.078C122.843 511.134 122.747 511.156 122.645 511.144C122.553 511.101 122.482 511.032 122.435 510.936L121.331 508.734C121.283 508.638 121.272 508.545 121.298 508.454C121.332 508.333 121.395 508.245 121.486 508.189L134.756 500.019ZM152.153 492.603C152.2 492.699 152.207 492.807 152.173 492.928C152.147 493.019 152.089 493.092 151.998 493.148L142.733 498.852C142.642 498.908 142.62 498.983 142.668 499.079L145.349 504.428C145.397 504.524 145.466 504.544 145.557 504.488L151.797 500.646C151.888 500.59 151.98 500.583 152.073 500.626C152.174 500.639 152.249 500.693 152.296 500.788L153.386 502.962C153.434 503.057 153.441 503.166 153.406 503.287C153.38 503.377 153.322 503.451 153.231 503.507L146.991 507.348C146.9 507.404 146.879 507.48 146.926 507.575L151.027 515.757C151.075 515.853 151.081 515.961 151.047 516.082C151.021 516.173 150.963 516.246 150.872 516.302L148.365 517.845C148.274 517.901 148.178 517.923 148.077 517.911C147.984 517.868 147.914 517.799 147.866 517.703L138.174 498.364C138.126 498.269 138.115 498.176 138.141 498.085C138.175 497.964 138.238 497.876 138.329 497.82L150.564 490.287C150.655 490.231 150.747 490.225 150.839 490.267C150.941 490.28 151.015 490.334 151.063 490.429L152.153 492.603Z" fill="black"/>
</svg>
