<svg width="460" height="526" viewBox="0 0 460 526" fill="none" xmlns="http://www.w3.org/2000/svg">
<path d="M105.844 515.574C102.728 515.574 24.7124 300.191 -13.9062 192.5V1L186.164 515.574H105.844Z" fill="#B10610" stroke="black"/>
<path d="M-21.3666 115.42C-21.9304 113.922 -22.1303 112.516 -21.9662 111.2C-21.7816 109.879 -21.2643 108.746 -20.4142 107.803C-19.5642 106.859 -18.4239 106.173 -16.9934 105.745L-9.42198 103.476C-7.99148 103.047 -6.61816 102.98 -5.30203 103.275C-3.98589 103.569 -2.81725 104.196 -1.79612 105.157C-0.77498 106.117 0.0174961 107.346 0.581313 108.844C1.13761 110.321 1.34391 111.714 1.20021 113.024C1.05652 114.333 0.580079 115.454 -0.229097 116.385C-1.03827 117.316 -2.12746 117.987 -3.49665 118.397C-3.59883 118.428 -3.70582 118.415 -3.81764 118.36C-3.9015 118.318 -3.96222 118.248 -3.99981 118.148L-5.1905 115.439C-5.28071 115.199 -5.21342 115.046 -4.98863 114.978C-3.78292 114.617 -2.9513 113.957 -2.49376 112.998C-2.02871 112.058 -2.02547 110.98 -2.48404 109.762C-2.94261 108.544 -3.67882 107.676 -4.69265 107.158C-5.70649 106.64 -6.81626 106.561 -8.02196 106.922L-15.8386 109.264C-17.0239 109.62 -17.8453 110.277 -18.3028 111.236C-18.7604 112.195 -18.7598 113.284 -18.3013 114.501C-17.8427 115.719 -17.1205 116.58 -16.1346 117.085C-15.1208 117.603 -14.011 117.682 -12.8053 117.32C-12.5805 117.253 -12.423 117.339 -12.3328 117.579L-11.418 120.371C-11.3804 120.47 -11.381 120.559 -11.4197 120.638C-11.451 120.736 -11.5074 120.797 -11.5892 120.822C-12.9788 121.238 -14.3215 121.296 -15.6172 120.996C-16.8924 120.689 -18.0304 120.052 -19.0311 119.086C-20.0318 118.119 -20.8103 116.897 -21.3666 115.42ZM9.65695 133.671C9.69454 133.771 9.68374 133.863 9.62455 133.947C9.59331 134.046 9.5266 134.11 9.42442 134.141L7.0641 134.848C6.96192 134.879 6.85493 134.866 6.74311 134.811C6.65925 134.769 6.59853 134.699 6.56094 134.599L4.4861 129.088C4.44851 128.989 4.37862 128.954 4.27645 128.985L-13.5639 134.33C-13.6661 134.361 -13.7731 134.348 -13.8849 134.293C-13.9688 134.252 -14.0295 134.181 -14.0671 134.081L-15.1045 131.326C-15.1421 131.226 -15.1453 131.127 -15.114 131.029C-15.0548 130.944 -14.9742 130.887 -14.872 130.856L2.96839 125.511C3.07057 125.48 3.10286 125.415 3.06528 125.315L1.06936 120.014C1.03178 119.915 1.0286 119.816 1.05984 119.717C1.11903 119.633 1.19971 119.575 1.30189 119.545L3.66221 118.838C3.76439 118.807 3.85741 118.812 3.94127 118.854C4.05308 118.909 4.12779 118.987 4.16537 119.087L9.65695 133.671ZM13.6362 152.211C13.534 152.242 13.427 152.229 13.3152 152.174C13.2313 152.133 13.1706 152.062 13.133 151.962L9.29906 141.78C9.26148 141.68 9.19159 141.646 9.08941 141.676L3.3572 143.394C3.25502 143.424 3.22273 143.49 3.26031 143.589L5.8426 150.447C5.88018 150.547 5.86938 150.639 5.81019 150.724C5.77896 150.822 5.71225 150.886 5.61007 150.917L3.2804 151.615C3.17822 151.646 3.07123 151.633 2.95941 151.578C2.87555 151.536 2.81483 151.466 2.77724 151.366L0.194958 144.508C0.15737 144.408 0.0874873 144.373 -0.0146911 144.404L-8.78161 147.031C-8.88378 147.062 -8.99078 147.049 -9.10259 146.994C-9.18645 146.952 -9.24718 146.882 -9.28477 146.782L-10.3222 144.027C-10.3598 143.927 -10.363 143.828 -10.3317 143.73C-10.2725 143.645 -10.1918 143.588 -10.0897 143.557L10.6321 137.348C10.7343 137.317 10.8273 137.323 10.9112 137.364C11.023 137.42 11.0977 137.497 11.1353 137.597L16.1984 151.044C16.236 151.143 16.2252 151.236 16.166 151.32C16.1347 151.418 16.068 151.483 15.9658 151.513L13.6362 152.211ZM0.547356 173.618C-0.0164614 172.121 -0.216303 170.715 -0.0521684 169.399C0.132402 168.077 0.64971 166.945 1.49976 166.001C2.34981 165.058 3.49008 164.372 4.92058 163.943L12.492 161.674C13.9225 161.246 15.2958 161.179 16.612 161.473C17.9281 161.768 19.0967 162.395 20.1179 163.355C21.139 164.316 21.9315 165.545 22.4953 167.042C23.0516 168.519 23.2579 169.913 23.1142 171.222C22.9705 172.532 22.4941 173.652 21.6849 174.583C20.8757 175.514 19.7865 176.185 18.4173 176.595C18.3152 176.626 18.2082 176.614 18.0963 176.558C18.0125 176.517 17.9518 176.446 17.9142 176.346L16.7235 173.637C16.6333 173.398 16.7006 173.244 16.9254 173.177C18.1311 172.815 18.9627 172.155 19.4202 171.196C19.8853 170.257 19.8885 169.178 19.4299 167.961C18.9714 166.743 18.2352 165.875 17.2213 165.356C16.2075 164.838 15.0977 164.76 13.892 165.121L6.07537 167.463C4.8901 167.818 4.06869 168.475 3.61116 169.434C3.15362 170.394 3.15414 171.482 3.61271 172.7C4.07128 173.918 4.79351 174.779 5.77939 175.283C6.79323 175.802 7.903 175.88 9.1087 175.519C9.33349 175.451 9.491 175.538 9.58121 175.777L10.496 178.569C10.5336 178.669 10.533 178.758 10.4943 178.836C10.463 178.934 10.4065 178.996 10.3248 179.02C8.93517 179.437 7.59251 179.495 6.2968 179.194C5.02154 178.887 3.88356 178.251 2.88286 177.284C1.88216 176.318 1.10366 175.096 0.547356 173.618ZM31.5709 191.87C31.6085 191.969 31.5977 192.062 31.5385 192.146C31.5073 192.244 31.4406 192.309 31.3384 192.339L28.9781 193.046C28.8759 193.077 28.7689 193.065 28.6571 193.009C28.5732 192.968 28.5125 192.897 28.4749 192.797L26.4001 187.287C26.3625 187.187 26.2926 187.153 26.1904 187.183L8.35006 192.529C8.24788 192.559 8.14089 192.547 8.02908 192.492C7.94522 192.45 7.88449 192.379 7.8469 192.28L6.80948 189.524C6.77189 189.425 6.76872 189.326 6.79995 189.227C6.85915 189.143 6.93983 189.085 7.04201 189.055L24.8824 183.709C24.9846 183.679 25.0168 183.613 24.9793 183.514L22.9833 178.213C22.9458 178.113 22.9426 178.014 22.9738 177.916C23.033 177.831 23.1137 177.774 23.2159 177.743L25.5762 177.036C25.6784 177.005 25.7714 177.011 25.8553 177.052C25.9671 177.108 26.0418 177.185 26.0794 177.285L31.5709 191.87ZM35.5502 210.41C35.448 210.44 35.341 210.428 35.2292 210.373C35.1453 210.331 35.0846 210.26 35.047 210.161L31.213 199.978C31.1755 199.879 31.1056 199.844 31.0034 199.875L25.2712 201.592C25.169 201.623 25.1367 201.688 25.1743 201.788L27.7566 208.646C27.7942 208.746 27.7834 208.838 27.7242 208.922C27.6929 209.02 27.6262 209.085 27.5241 209.115L25.1944 209.813C25.0922 209.844 24.9852 209.832 24.8734 209.776C24.7895 209.735 24.7288 209.664 24.6912 209.564L22.1089 202.706C22.0714 202.607 22.0015 202.572 21.8993 202.603L13.1324 205.229C13.0302 205.26 12.9232 205.248 12.8114 205.192C12.7275 205.151 12.6668 205.08 12.6292 204.98L11.5918 202.225C11.5542 202.125 11.551 202.026 11.5823 201.928C11.6415 201.844 11.7221 201.786 11.8243 201.755L32.5461 195.547C32.6483 195.516 32.7413 195.521 32.8252 195.563C32.937 195.618 33.0117 195.696 33.0493 195.796L38.1124 209.242C38.1499 209.342 38.1391 209.434 38.08 209.518C38.0487 209.617 37.982 209.681 37.8798 209.712L35.5502 210.41ZM22.4613 231.817C21.8975 230.319 21.6977 228.913 21.8618 227.597C22.0464 226.276 22.5637 225.143 23.4137 224.2C24.2638 223.256 25.4041 222.57 26.8346 222.142L34.406 219.873C35.8365 219.444 37.2098 219.377 38.5259 219.672C39.8421 219.966 41.0107 220.593 42.0319 221.554C43.053 222.514 43.8455 223.743 44.4093 225.241C44.9656 226.718 45.1719 228.111 45.0282 229.421C44.8845 230.73 44.408 231.851 43.5989 232.782C42.7897 233.713 41.7005 234.384 40.3313 234.794C40.2291 234.825 40.1221 234.812 40.0103 234.757C39.9265 234.715 39.8657 234.645 39.8282 234.545L38.6375 231.836C38.5473 231.596 38.6145 231.443 38.8393 231.375C40.045 231.014 40.8767 230.354 41.3342 229.395C41.7993 228.455 41.8025 227.377 41.3439 226.159C40.8854 224.941 40.1492 224.073 39.1353 223.555C38.1215 223.037 37.0117 222.958 35.806 223.319L27.9894 225.661C26.8041 226.017 25.9827 226.674 25.5251 227.633C25.0676 228.592 25.0681 229.68 25.5267 230.898C25.9853 232.116 26.7075 232.977 27.6934 233.482C28.7072 234 29.817 234.079 31.0227 233.717C31.2475 233.65 31.405 233.736 31.4952 233.976L32.41 236.768C32.4476 236.867 32.447 236.956 32.4083 237.035C32.377 237.133 32.3205 237.194 32.2388 237.219C30.8492 237.635 29.5065 237.693 28.2108 237.393C26.9355 237.086 25.7975 236.449 24.7968 235.483C23.7961 234.516 23.0176 233.294 22.4613 231.817ZM53.4849 250.068C53.5225 250.168 53.5117 250.26 53.4525 250.344C53.4213 250.443 53.3546 250.507 53.2524 250.538L50.8921 251.245C50.7899 251.276 50.6829 251.263 50.5711 251.208C50.4872 251.166 50.4265 251.096 50.3889 250.996L48.3141 245.485C48.2765 245.386 48.2066 245.351 48.1044 245.382L30.264 250.727C30.1619 250.758 30.0549 250.745 29.9431 250.69C29.8592 250.648 29.7985 250.578 29.7609 250.478L28.7235 247.723C28.6859 247.623 28.6827 247.524 28.7139 247.426C28.7731 247.341 28.8538 247.284 28.956 247.253L46.7964 241.908C46.8985 241.877 46.9308 241.812 46.8932 241.712L44.8973 236.411C44.8597 236.312 44.8566 236.213 44.8878 236.114C44.947 236.03 45.0277 235.972 45.1299 235.942L47.4902 235.235C47.5924 235.204 47.6854 235.209 47.7692 235.251C47.8811 235.306 47.9558 235.384 47.9933 235.484L53.4849 250.068ZM57.4641 268.608C57.362 268.639 57.255 268.626 57.1432 268.571C57.0593 268.53 56.9986 268.459 56.961 268.359L53.127 258.177C53.0894 258.077 53.0196 258.043 52.9174 258.073L47.1852 259.791C47.083 259.821 47.0507 259.887 47.0883 259.986L49.6706 266.844C49.7082 266.944 49.6974 267.036 49.6382 267.121C49.6069 267.219 49.5402 267.283 49.438 267.314L47.1084 268.012C47.0062 268.043 46.8992 268.03 46.7874 267.975C46.7035 267.933 46.6428 267.863 46.6052 267.763L44.0229 260.905C43.9853 260.805 43.9155 260.77 43.8133 260.801L35.0464 263.428C34.9442 263.458 34.8372 263.446 34.7254 263.391C34.6415 263.349 34.5808 263.279 34.5432 263.179L33.5058 260.424C33.4682 260.324 33.465 260.225 33.4963 260.126C33.5554 260.042 33.6361 259.985 33.7383 259.954L54.4601 253.745C54.5623 253.714 54.6553 253.72 54.7392 253.761C54.851 253.817 54.9257 253.894 54.9633 253.994L60.0263 267.441C60.0639 267.54 60.0531 267.633 59.9939 267.717C59.9627 267.815 59.896 267.88 59.7938 267.91L57.4641 268.608ZM44.3753 290.015C43.8115 288.518 43.6117 287.111 43.7758 285.796C43.9604 284.474 44.4777 283.342 45.3277 282.398C46.1778 281.455 47.318 280.769 48.7485 280.34L56.32 278.071C57.7505 277.643 59.1238 277.576 60.4399 277.87C61.7561 278.164 62.9247 278.792 63.9458 279.752C64.967 280.713 65.7594 281.942 66.3233 283.439C66.8796 284.916 67.0859 286.31 66.9422 287.619C66.7985 288.929 66.322 290.049 65.5129 290.98C64.7037 291.911 63.6145 292.582 62.2453 292.992C62.1431 293.023 62.0361 293.011 61.9243 292.955C61.8405 292.914 61.7797 292.843 61.7421 292.743L60.5515 290.034C60.4612 289.794 60.5285 289.641 60.7533 289.574C61.959 289.212 62.7907 288.552 63.2482 287.593C63.7132 286.654 63.7165 285.575 63.2579 284.357C62.7993 283.14 62.0631 282.272 61.0493 281.753C60.0355 281.235 58.9257 281.157 57.72 281.518L49.9033 283.86C48.7181 284.215 47.8967 284.872 47.4391 285.831C46.9816 286.79 46.9821 287.879 47.4407 289.097C47.8992 290.315 48.6215 291.176 49.6074 291.68C50.6212 292.199 51.731 292.277 52.9367 291.916C53.1615 291.848 53.319 291.935 53.4092 292.174L54.324 294.966C54.3616 295.066 54.361 295.155 54.3222 295.233C54.291 295.331 54.2345 295.393 54.1528 295.417C52.7631 295.834 51.4205 295.892 50.1248 295.591C48.8495 295.284 47.7115 294.648 46.7108 293.681C45.7101 292.715 44.9316 291.493 44.3753 290.015ZM75.3989 308.267C75.4365 308.366 75.4257 308.458 75.3665 308.543C75.3353 308.641 75.2686 308.706 75.1664 308.736L72.8061 309.443C72.7039 309.474 72.5969 309.462 72.4851 309.406C72.4012 309.365 72.3405 309.294 72.3029 309.194L70.228 303.684C70.1905 303.584 70.1206 303.549 70.0184 303.58L52.178 308.926C52.0759 308.956 51.9689 308.944 51.857 308.889C51.7732 308.847 51.7125 308.776 51.6749 308.676L50.6374 305.921C50.5999 305.822 50.5967 305.722 50.6279 305.624C50.6871 305.54 50.7678 305.482 50.87 305.452L68.7103 300.106C68.8125 300.076 68.8448 300.01 68.8072 299.911L66.8113 294.61C66.7737 294.51 66.7706 294.411 66.8018 294.313C66.861 294.228 66.9417 294.171 67.0438 294.14L69.4042 293.433C69.5063 293.402 69.5994 293.408 69.6832 293.449C69.795 293.505 69.8697 293.582 69.9073 293.682L75.3989 308.267ZM79.3781 326.807C79.276 326.837 79.169 326.825 79.0571 326.77C78.9733 326.728 78.9126 326.657 78.875 326.558L75.041 316.375C75.0034 316.276 74.9335 316.241 74.8314 316.272L69.0992 317.989C68.997 318.02 68.9647 318.085 69.0023 318.185L71.5845 325.043C71.6221 325.143 71.6113 325.235 71.5521 325.319C71.5209 325.417 71.4542 325.482 71.352 325.512L69.0224 326.21C68.9202 326.241 68.8132 326.229 68.7014 326.173C68.6175 326.132 68.5568 326.061 68.5192 325.961L65.9369 319.103C65.8993 319.004 65.8294 318.969 65.7273 319L56.9603 321.626C56.8582 321.657 56.7512 321.645 56.6394 321.589C56.5555 321.548 56.4948 321.477 56.4572 321.377L55.4198 318.622C55.3822 318.522 55.379 318.423 55.4102 318.325C55.4694 318.241 55.5501 318.183 55.6523 318.152L76.3741 311.944C76.4763 311.913 76.5693 311.918 76.6531 311.96C76.765 312.015 76.8397 312.093 76.8772 312.193L81.9403 325.639C81.9779 325.739 81.9671 325.831 81.9079 325.915C81.8767 326.014 81.81 326.078 81.7078 326.109L79.3781 326.807ZM66.2893 348.214C65.7255 346.716 65.5256 345.31 65.6898 343.994C65.8744 342.673 66.3917 341.54 67.2417 340.597C68.0918 339.653 69.232 338.967 70.6625 338.539L78.234 336.27C79.6645 335.841 81.0378 335.774 82.3539 336.069C83.67 336.363 84.8387 336.99 85.8598 337.951C86.881 338.911 87.6734 340.14 88.2372 341.638C88.7935 343.115 88.9998 344.508 88.8562 345.818C88.7125 347.127 88.236 348.248 87.4268 349.179C86.6177 350.11 85.5285 350.781 84.1593 351.191C84.0571 351.222 83.9501 351.209 83.8383 351.154C83.7544 351.112 83.6937 351.042 83.6561 350.942L82.4654 348.233C82.3752 347.993 82.4425 347.839 82.6673 347.772C83.873 347.411 84.7046 346.751 85.1622 345.792C85.6272 344.852 85.6305 343.774 85.1719 342.556C84.7133 341.338 83.9771 340.47 82.9633 339.952C81.9494 339.434 80.8397 339.355 79.634 339.716L71.8173 342.058C70.632 342.414 69.8106 343.071 69.3531 344.03C68.8956 344.989 68.8961 346.077 69.3547 347.295C69.8132 348.513 70.5355 349.374 71.5213 349.879C72.5352 350.397 73.6449 350.476 74.8507 350.114C75.0754 350.047 75.2329 350.133 75.3232 350.373L76.238 353.164C76.2756 353.264 76.275 353.353 76.2362 353.432C76.205 353.53 76.1485 353.591 76.0667 353.616C74.6771 354.032 73.3345 354.09 72.0388 353.79C70.7635 353.483 69.6255 352.846 68.6248 351.88C67.6241 350.913 66.8456 349.691 66.2893 348.214ZM97.3129 366.465C97.3505 366.565 97.3397 366.657 97.2805 366.741C97.2492 366.84 97.1825 366.904 97.0804 366.935L94.72 367.642C94.6179 367.672 94.5109 367.66 94.399 367.605C94.3152 367.563 94.2545 367.493 94.2169 367.393L92.142 361.882C92.1044 361.783 92.0346 361.748 91.9324 361.779L74.092 367.124C73.9898 367.155 73.8828 367.142 73.771 367.087C73.6872 367.045 73.6264 366.975 73.5889 366.875L72.5514 364.12C72.5138 364.02 72.5107 363.921 72.5419 363.823C72.6011 363.738 72.6818 363.681 72.784 363.65L90.6243 358.305C90.7265 358.274 90.7588 358.209 90.7212 358.109L88.7253 352.808C88.6877 352.709 88.6845 352.609 88.7158 352.511C88.775 352.427 88.8556 352.369 88.9578 352.339L91.3181 351.632C91.4203 351.601 91.5133 351.606 91.5972 351.648C91.709 351.703 91.7837 351.781 91.8213 351.881L97.3129 366.465ZM101.292 385.005C101.19 385.036 101.083 385.023 100.971 384.968C100.887 384.927 100.827 384.856 100.789 384.756L96.955 374.574C96.9174 374.474 96.8475 374.44 96.7453 374.47L91.0131 376.188C90.911 376.218 90.8787 376.284 90.9162 376.383L93.4985 383.241C93.5361 383.341 93.5253 383.433 93.4661 383.518C93.4349 383.616 93.3682 383.68 93.266 383.711L90.9363 384.409C90.8342 384.44 90.7272 384.427 90.6153 384.372C90.5315 384.33 90.4708 384.26 90.4332 384.16L87.8509 377.302C87.8133 377.202 87.7434 377.167 87.6412 377.198L78.8743 379.825C78.7722 379.855 78.6652 379.843 78.5533 379.788C78.4695 379.746 78.4088 379.676 78.3712 379.576L77.3337 376.821C77.2962 376.721 77.293 376.622 77.3242 376.523C77.3834 376.439 77.4641 376.382 77.5663 376.351L98.2881 370.142C98.3903 370.111 98.4833 370.117 98.5671 370.158C98.6789 370.214 98.7536 370.291 98.7912 370.391L103.854 383.838C103.892 383.937 103.881 384.029 103.822 384.114C103.791 384.212 103.724 384.277 103.622 384.307L101.292 385.005ZM88.2033 406.412C87.6395 404.915 87.4396 403.508 87.6038 402.193C87.7883 400.871 88.3056 399.739 89.1557 398.795C90.0057 397.852 91.146 397.166 92.5765 396.737L100.148 394.468C101.578 394.04 102.952 393.973 104.268 394.267C105.584 394.561 106.753 395.189 107.774 396.149C108.795 397.11 109.587 398.339 110.151 399.836C110.708 401.313 110.914 402.707 110.77 404.016C110.626 405.326 110.15 406.446 109.341 407.377C108.532 408.308 107.442 408.979 106.073 409.389C105.971 409.42 105.864 409.408 105.752 409.352C105.668 409.311 105.608 409.24 105.57 409.14L104.379 406.431C104.289 406.191 104.357 406.038 104.581 405.971C105.787 405.609 106.619 404.949 107.076 403.99C107.541 403.051 107.544 401.972 107.086 400.754C106.627 399.537 105.891 398.669 104.877 398.15C103.863 397.632 102.754 397.554 101.548 397.915L93.7313 400.257C92.546 400.612 91.7246 401.269 91.2671 402.228C90.8096 403.187 90.8101 404.276 91.2686 405.494C91.7272 406.712 92.4494 407.573 93.4353 408.077C94.4492 408.596 95.5589 408.674 96.7646 408.313C96.9894 408.245 97.1469 408.331 97.2371 408.571L98.152 411.363C98.1895 411.463 98.189 411.552 98.1502 411.63C98.119 411.728 98.0625 411.79 97.9807 411.814C96.5911 412.231 95.2484 412.288 93.9527 411.988C92.6775 411.681 91.5395 411.045 90.5388 410.078C89.5381 409.112 88.7596 407.89 88.2033 406.412ZM119.227 424.664C119.264 424.763 119.254 424.855 119.194 424.94C119.163 425.038 119.097 425.103 118.994 425.133L116.634 425.84C116.532 425.871 116.425 425.859 116.313 425.803C116.229 425.762 116.168 425.691 116.131 425.591L114.056 420.081C114.018 419.981 113.949 419.946 113.846 419.977L96.006 425.323C95.9038 425.353 95.7968 425.341 95.685 425.285C95.6012 425.244 95.5404 425.173 95.5028 425.073L94.4654 422.318C94.4278 422.218 94.4247 422.119 94.4559 422.021C94.5151 421.937 94.5958 421.879 94.6979 421.849L112.538 416.503C112.64 416.473 112.673 416.407 112.635 416.308L110.639 411.007C110.602 410.907 110.599 410.808 110.63 410.71C110.689 410.625 110.77 410.568 110.872 410.537L113.232 409.83C113.334 409.799 113.427 409.805 113.511 409.846C113.623 409.902 113.698 409.979 113.735 410.079L119.227 424.664ZM123.206 443.204C123.104 443.234 122.997 443.222 122.885 443.167C122.801 443.125 122.741 443.054 122.703 442.955L118.869 432.772C118.831 432.673 118.762 432.638 118.659 432.669L112.927 434.386C112.825 434.417 112.793 434.482 112.83 434.582L115.413 441.44C115.45 441.54 115.439 441.632 115.38 441.716C115.349 441.814 115.282 441.879 115.18 441.909L112.85 442.607C112.748 442.638 112.641 442.626 112.529 442.57C112.445 442.529 112.385 442.458 112.347 442.358L109.765 435.5C109.727 435.4 109.657 435.366 109.555 435.396L100.788 438.023C100.686 438.054 100.579 438.042 100.467 437.986C100.383 437.945 100.323 437.874 100.285 437.774L99.2477 435.019C99.2101 434.919 99.207 434.82 99.2382 434.722C99.2974 434.638 99.3781 434.58 99.4803 434.549L120.202 428.341C120.304 428.31 120.397 428.315 120.481 428.357C120.593 428.412 120.668 428.49 120.705 428.59L125.768 442.036C125.806 442.136 125.795 442.228 125.736 442.312C125.705 442.411 125.638 442.475 125.536 442.506L123.206 443.204ZM110.117 464.611C109.553 463.113 109.354 461.707 109.518 460.391C109.702 459.07 110.22 457.937 111.07 456.994C111.92 456.05 113.06 455.364 114.49 454.936L122.062 452.667C123.492 452.238 124.866 452.171 126.182 452.466C127.498 452.76 128.667 453.387 129.688 454.348C130.709 455.308 131.501 456.537 132.065 458.034C132.622 459.512 132.828 460.905 132.684 462.215C132.54 463.524 132.064 464.645 131.255 465.576C130.446 466.507 129.356 467.178 127.987 467.588C127.885 467.619 127.778 467.606 127.666 467.551C127.582 467.509 127.522 467.439 127.484 467.339L126.293 464.63C126.203 464.39 126.27 464.236 126.495 464.169C127.701 463.808 128.533 463.148 128.99 462.188C129.455 461.249 129.458 460.171 129 458.953C128.541 457.735 127.805 456.867 126.791 456.349C125.777 455.83 124.668 455.752 123.462 456.113L115.645 458.455C114.46 458.811 113.639 459.468 113.181 460.427C112.724 461.386 112.724 462.474 113.183 463.692C113.641 464.91 114.363 465.771 115.349 466.276C116.363 466.794 117.473 466.872 118.679 466.511C118.903 466.444 119.061 466.53 119.151 466.77L120.066 469.561C120.104 469.661 120.103 469.75 120.064 469.829C120.033 469.927 119.976 469.988 119.895 470.013C118.505 470.429 117.162 470.487 115.867 470.186C114.591 469.88 113.453 469.243 112.453 468.277C111.452 467.31 110.674 466.088 110.117 464.611ZM141.141 482.862C141.178 482.962 141.168 483.054 141.108 483.138C141.077 483.237 141.011 483.301 140.908 483.332L138.548 484.039C138.446 484.069 138.339 484.057 138.227 484.002C138.143 483.96 138.082 483.89 138.045 483.79L135.97 478.279C135.932 478.18 135.863 478.145 135.76 478.176L117.92 483.521C117.818 483.552 117.711 483.539 117.599 483.484C117.515 483.442 117.454 483.372 117.417 483.272L116.379 480.517C116.342 480.417 116.339 480.318 116.37 480.22C116.429 480.135 116.51 480.078 116.612 480.047L134.452 474.702C134.554 474.671 134.587 474.606 134.549 474.506L132.553 469.205C132.516 469.105 132.513 469.006 132.544 468.908C132.603 468.824 132.684 468.766 132.786 468.736L135.146 468.029C135.248 467.998 135.341 468.003 135.425 468.045C135.537 468.1 135.612 468.178 135.649 468.278L141.141 482.862ZM145.12 501.402C145.018 501.433 144.911 501.42 144.799 501.365C144.715 501.324 144.655 501.253 144.617 501.153L140.783 490.971C140.745 490.871 140.675 490.836 140.573 490.867L134.841 492.585C134.739 492.615 134.707 492.68 134.744 492.78L137.326 499.638C137.364 499.738 137.353 499.83 137.294 499.915C137.263 500.013 137.196 500.077 137.094 500.108L134.764 500.806C134.662 500.836 134.555 500.824 134.443 500.769C134.359 500.727 134.299 500.657 134.261 500.557L131.679 493.699C131.641 493.599 131.571 493.564 131.469 493.595L122.702 496.222C122.6 496.252 122.493 496.24 122.381 496.185C122.297 496.143 122.237 496.072 122.199 495.973L121.162 493.218C121.124 493.118 121.121 493.019 121.152 492.92C121.211 492.836 121.292 492.779 121.394 492.748L142.116 486.539C142.218 486.508 142.311 486.514 142.395 486.555C142.507 486.611 142.582 486.688 142.619 486.788L147.682 500.235C147.72 500.334 147.709 500.426 147.65 500.511C147.619 500.609 147.552 500.674 147.45 500.704L145.12 501.402ZM-57.7677 126.327C-58.3315 124.829 -58.5314 123.423 -58.3672 122.107C-58.1827 120.786 -57.6654 119.653 -56.8153 118.71C-55.9653 117.766 -54.825 117.08 -53.3945 116.652L-45.8231 114.383C-44.3926 113.954 -43.0193 113.887 -41.7031 114.182C-40.387 114.476 -39.2183 115.103 -38.1972 116.064C-37.1761 117.024 -36.3836 118.253 -35.8198 119.75C-35.2635 121.228 -35.0572 122.621 -35.2009 123.931C-35.3446 125.24 -35.821 126.361 -36.6302 127.292C-37.4394 128.223 -38.5285 128.894 -39.8977 129.304C-39.9999 129.335 -40.1069 129.322 -40.2187 129.267C-40.3026 129.225 -40.3633 129.155 -40.4009 129.055L-41.5916 126.346C-41.6818 126.106 -41.6145 125.952 -41.3897 125.885C-40.184 125.524 -39.3524 124.864 -38.8949 123.905C-38.4298 122.965 -38.4266 121.887 -38.8851 120.669C-39.3437 119.451 -40.0799 118.583 -41.0937 118.065C-42.1076 117.547 -43.2173 117.468 -44.4231 117.829L-52.2397 120.171C-53.425 120.527 -54.2464 121.184 -54.7039 122.143C-55.1615 123.102 -55.1609 124.19 -54.7024 125.408C-54.2438 126.626 -53.5216 127.487 -52.5357 127.992C-51.5218 128.51 -50.4121 128.588 -49.2064 128.227C-48.9816 128.16 -48.8241 128.246 -48.7339 128.486L-47.8191 131.277C-47.7815 131.377 -47.7821 131.466 -47.8208 131.545C-47.852 131.643 -47.9085 131.704 -47.9903 131.729C-49.3799 132.145 -50.7226 132.203 -52.0183 131.902C-53.2935 131.596 -54.4315 130.959 -55.4322 129.993C-56.4329 129.026 -57.2114 127.804 -57.7677 126.327ZM-26.7441 144.578C-26.7066 144.678 -26.7174 144.77 -26.7765 144.854C-26.8078 144.953 -26.8745 145.017 -26.9767 145.048L-29.337 145.755C-29.4392 145.785 -29.5462 145.773 -29.658 145.718C-29.7418 145.676 -29.8026 145.606 -29.8401 145.506L-31.915 139.995C-31.9526 139.896 -32.0225 139.861 -32.1246 139.892L-49.965 145.237C-50.0672 145.268 -50.1742 145.255 -50.286 145.2C-50.3699 145.158 -50.4306 145.088 -50.4682 144.988L-51.5056 142.233C-51.5432 142.133 -51.5464 142.034 -51.5151 141.936C-51.4559 141.851 -51.3752 141.794 -51.2731 141.763L-33.4327 136.418C-33.3305 136.387 -33.2982 136.322 -33.3358 136.222L-35.3317 130.921C-35.3693 130.821 -35.3725 130.722 -35.3413 130.624C-35.2821 130.54 -35.2014 130.482 -35.0992 130.452L-32.7389 129.745C-32.6367 129.714 -32.5437 129.719 -32.4598 129.761C-32.348 129.816 -32.2733 129.894 -32.2357 129.994L-26.7441 144.578ZM-22.7649 163.118C-22.8671 163.149 -22.9741 163.136 -23.0859 163.081C-23.1698 163.04 -23.2305 162.969 -23.2681 162.869L-27.102 152.687C-27.1396 152.587 -27.2095 152.552 -27.3117 152.583L-33.0439 154.301C-33.1461 154.331 -33.1784 154.396 -33.1408 154.496L-30.5585 161.354C-30.5209 161.454 -30.5317 161.546 -30.5909 161.631C-30.6221 161.729 -30.6888 161.793 -30.791 161.824L-33.1207 162.522C-33.2229 162.553 -33.3299 162.54 -33.4417 162.485C-33.5255 162.443 -33.5863 162.373 -33.6238 162.273L-36.2061 155.415C-36.2437 155.315 -36.3136 155.28 -36.4158 155.311L-45.1827 157.938C-45.2849 157.968 -45.3919 157.956 -45.5037 157.901C-45.5875 157.859 -45.6483 157.788 -45.6859 157.689L-46.7233 154.934C-46.7609 154.834 -46.764 154.735 -46.7328 154.636C-46.6736 154.552 -46.5929 154.495 -46.4908 154.464L-25.769 148.255C-25.6668 148.224 -25.5738 148.23 -25.4899 148.271C-25.3781 148.327 -25.3034 148.404 -25.2658 148.504L-20.2027 161.951C-20.1651 162.05 -20.1759 162.142 -20.2351 162.227C-20.2664 162.325 -20.3331 162.39 -20.4352 162.42L-22.7649 163.118Z" fill="black"/>
<path d="M-14.3963 227.238L-14.2024 227.356C-12.1384 229.97 -13.4509 275.403 -14.3963 298.454C105.029 370.393 344.854 514.271 348.748 514.271H457.789L-14.2024 227.356C-14.2639 227.278 -14.3286 227.238 -14.3963 227.238Z" fill="#B10610" stroke="black"/>
<path d="M-19.3574 275.308C-20.7223 274.473 -21.7348 273.493 -22.3951 272.368C-23.0423 271.226 -23.3034 270.034 -23.1784 268.792C-23.0534 267.551 -22.5359 266.338 -21.6257 265.154L-16.8083 258.888C-15.8982 257.704 -14.8164 256.836 -13.5632 256.285C-12.3099 255.734 -10.9761 255.53 -9.56174 255.674C-8.14738 255.818 -6.75777 256.308 -5.39291 257.143C-4.04625 257.967 -3.03631 258.933 -2.36308 260.041C-1.68985 261.149 -1.40273 262.307 -1.5017 263.515C-1.60068 264.722 -2.08575 265.893 -2.95691 267.026C-3.02192 267.11 -3.11682 267.164 -3.24163 267.187C-3.33523 267.205 -3.42752 267.186 -3.51851 267.13L-6.12737 265.72C-6.34575 265.587 -6.38343 265.427 -6.2404 265.241C-5.47326 264.243 -5.19232 263.234 -5.39756 262.213C-5.58461 261.203 -6.23318 260.359 -7.34326 259.68C-8.45335 259.001 -9.5791 258.76 -10.7205 258.957C-11.8619 259.154 -12.8162 259.751 -13.5833 260.749L-18.5567 267.218C-19.3109 268.199 -19.5853 269.2 -19.3801 270.221C-19.1748 271.242 -18.5172 272.091 -17.4071 272.771C-16.297 273.45 -15.1868 273.694 -14.0766 273.502C-12.9352 273.306 -11.9809 272.708 -11.2138 271.71C-11.0708 271.524 -10.8901 271.498 -10.6717 271.632L-8.23836 273.269C-8.14737 273.325 -8.09408 273.395 -8.0785 273.479C-8.04471 273.574 -8.05382 273.656 -8.10583 273.723C-8.98999 274.874 -10.0522 275.716 -11.2925 276.25C-12.5197 276.768 -13.834 276.946 -15.2354 276.785C-16.6368 276.624 -18.0108 276.131 -19.3574 275.308ZM17.0145 271.149C17.1055 271.205 17.1523 271.283 17.1549 271.384C17.1887 271.48 17.1731 271.57 17.1081 271.654L15.6063 273.608C15.5413 273.692 15.4464 273.746 15.3216 273.769C15.228 273.786 15.1357 273.767 15.0447 273.712L10.022 270.639C9.931 270.583 9.853 270.598 9.78799 270.682L-1.56305 285.447C-1.62807 285.532 -1.72297 285.586 -1.84777 285.609C-1.94138 285.626 -2.03367 285.607 -2.12466 285.551L-4.636 284.015C-4.72699 283.959 -4.78938 283.884 -4.82317 283.789C-4.82575 283.688 -4.79454 283.595 -4.72953 283.51L6.62151 268.745C6.68653 268.661 6.67354 268.59 6.58255 268.535L1.75094 265.579C1.65995 265.523 1.59757 265.448 1.56378 265.353C1.5612 265.252 1.59241 265.159 1.65742 265.074L3.15919 263.121C3.2242 263.036 3.30351 262.985 3.39711 262.968C3.52191 262.945 3.62981 262.961 3.7208 263.017L17.0145 271.149ZM31.4609 283.269C31.3959 283.354 31.301 283.408 31.1762 283.431C31.0826 283.448 30.9903 283.429 30.8993 283.373L21.6183 277.696C21.5273 277.64 21.4493 277.654 21.3843 277.739L17.7371 282.483C17.6721 282.568 17.6851 282.638 17.7761 282.694L24.0271 286.518C24.1181 286.573 24.1649 286.652 24.1675 286.753C24.2013 286.848 24.1857 286.938 24.1207 287.022L22.6384 288.951C22.5734 289.035 22.4785 289.089 22.3537 289.112C22.2601 289.129 22.1678 289.11 22.0768 289.055L15.8257 285.23C15.7347 285.175 15.6567 285.189 15.5917 285.274L10.0137 292.529C9.94871 292.614 9.85381 292.668 9.729 292.691C9.6354 292.708 9.54311 292.689 9.45212 292.634L6.94077 291.097C6.84978 291.042 6.7874 290.966 6.75361 290.871C6.75103 290.77 6.78224 290.677 6.84725 290.592L20.0316 273.443C20.0966 273.358 20.1759 273.307 20.2695 273.29C20.3943 273.267 20.5022 273.283 20.5932 273.339L32.8497 280.836C32.9407 280.892 32.9874 280.971 32.99 281.072C33.0238 281.167 33.0082 281.257 32.9432 281.341L31.4609 283.269ZM33.6908 307.76C32.326 306.925 31.3134 305.945 30.6532 304.82C30.006 303.678 29.7448 302.486 29.8698 301.245C29.9948 300.003 30.5124 298.791 31.4225 297.607L36.2399 291.34C37.1501 290.157 38.2318 289.289 39.4851 288.738C40.7383 288.186 42.0721 287.983 43.4865 288.127C44.9009 288.271 46.2905 288.761 47.6553 289.596C49.002 290.419 50.0119 291.385 50.6852 292.493C51.3584 293.602 51.6455 294.76 51.5465 295.967C51.4476 297.175 50.9625 298.345 50.0913 299.478C50.0263 299.563 49.9314 299.617 49.8066 299.64C49.713 299.657 49.6207 299.638 49.5297 299.583L46.9209 298.173C46.7025 298.039 46.6648 297.88 46.8078 297.694C47.575 296.696 47.8559 295.686 47.6507 294.666C47.4636 293.656 46.8151 292.812 45.705 292.132C44.5949 291.453 43.4691 291.212 42.3277 291.409C41.1863 291.606 40.232 292.204 39.4649 293.201L34.4915 299.671C33.7374 300.652 33.4629 301.653 33.6682 302.673C33.8734 303.694 34.5311 304.544 35.6412 305.223C36.7513 305.902 37.8614 306.146 38.9716 305.955C40.113 305.758 41.0673 305.161 41.8344 304.163C41.9775 303.977 42.1582 303.951 42.3765 304.084L44.8099 305.722C44.9009 305.778 44.9542 305.848 44.9697 305.932C45.0035 306.027 44.9944 306.108 44.9424 306.176C44.0582 307.326 42.996 308.168 41.7558 308.703C40.5285 309.22 39.2142 309.398 37.8128 309.237C36.4115 309.076 35.0375 308.584 33.6908 307.76ZM70.0628 303.602C70.1538 303.657 70.2005 303.736 70.2031 303.837C70.2369 303.932 70.2213 304.022 70.1563 304.107L68.6545 306.06C68.5895 306.145 68.4946 306.199 68.3698 306.222C68.2762 306.239 68.1839 306.22 68.0929 306.164L63.0702 303.091C62.9792 303.036 62.9012 303.05 62.8362 303.135L51.4852 317.9C51.4202 317.984 51.3253 318.038 51.2005 318.061C51.1069 318.079 51.0146 318.06 50.9236 318.004L48.4122 316.468C48.3212 316.412 48.2589 316.336 48.2251 316.241C48.2225 316.14 48.2537 316.047 48.3187 315.963L59.6698 301.198C59.7348 301.113 59.7218 301.043 59.6308 300.987L54.7992 298.032C54.7082 297.976 54.6458 297.9 54.612 297.805C54.6094 297.704 54.6406 297.611 54.7057 297.527L56.2074 295.573C56.2724 295.489 56.3517 295.438 56.4453 295.42C56.5702 295.397 56.678 295.414 56.769 295.469L70.0628 303.602ZM84.5092 315.722C84.4442 315.807 84.3492 315.86 84.2244 315.883C84.1308 315.901 84.0385 315.882 83.9476 315.826L74.6665 310.148C74.5755 310.093 74.4975 310.107 74.4325 310.192L70.7854 314.936C70.7203 315.02 70.7333 315.09 70.8243 315.146L77.0754 318.97C77.1664 319.026 77.2132 319.104 77.2157 319.205C77.2495 319.301 77.2339 319.39 77.1689 319.475L75.6866 321.403C75.6216 321.488 75.5267 321.542 75.4019 321.565C75.3083 321.582 75.216 321.563 75.125 321.507L68.874 317.683C68.783 317.627 68.705 317.642 68.64 317.726L63.062 324.982C62.997 325.067 62.902 325.12 62.7772 325.144C62.6836 325.161 62.5913 325.142 62.5004 325.086L59.989 323.55C59.898 323.494 59.8356 323.419 59.8018 323.323C59.7993 323.222 59.8305 323.13 59.8955 323.045L73.0799 305.895C73.1449 305.811 73.2242 305.76 73.3178 305.742C73.4426 305.719 73.5505 305.735 73.6415 305.791L85.8979 313.289C85.9889 313.345 86.0357 313.423 86.0383 313.524C86.0721 313.619 86.0564 313.709 85.9914 313.794L84.5092 315.722ZM86.7391 340.213C85.3742 339.378 84.3617 338.398 83.7014 337.273C83.0542 336.131 82.7931 334.939 82.9181 333.697C83.043 332.456 83.5606 331.243 84.4708 330.059L89.2881 323.793C90.1983 322.609 91.28 321.742 92.5333 321.19C93.7866 320.639 95.1204 320.435 96.5347 320.58C97.9491 320.724 99.3387 321.213 100.704 322.048C102.05 322.872 103.06 323.838 103.733 324.946C104.407 326.054 104.694 327.212 104.595 328.42C104.496 329.627 104.011 330.798 103.14 331.931C103.075 332.016 102.98 332.069 102.855 332.093C102.761 332.11 102.669 332.091 102.578 332.035L99.9691 330.626C99.7507 330.492 99.7131 330.332 99.8561 330.146C100.623 329.148 100.904 328.139 100.699 327.118C100.512 326.109 99.8633 325.264 98.7532 324.585C97.6431 323.906 96.5174 323.665 95.376 323.862C94.2345 324.059 93.2803 324.656 92.5131 325.654L87.5397 332.123C86.7856 333.104 86.5112 334.105 86.7164 335.126C86.9217 336.147 87.5793 336.997 88.6894 337.676C89.7995 338.355 90.9096 338.599 92.0199 338.408C93.1613 338.211 94.1155 337.613 94.8827 336.615C95.0257 336.429 95.2064 336.403 95.4248 336.537L97.8581 338.175C97.9491 338.23 98.0024 338.3 98.018 338.384C98.0518 338.479 98.0427 338.561 97.9906 338.629C97.1065 339.779 96.0443 340.621 94.804 341.155C93.5768 341.673 92.2624 341.851 90.8611 341.69C89.4597 341.529 88.0857 341.037 86.7391 340.213ZM123.111 336.054C123.202 336.11 123.249 336.188 123.251 336.289C123.285 336.385 123.27 336.475 123.205 336.559L121.703 338.513C121.638 338.597 121.543 338.651 121.418 338.674C121.324 338.692 121.232 338.672 121.141 338.617L116.118 335.544C116.027 335.488 115.949 335.503 115.884 335.587L104.533 350.352C104.468 350.437 104.374 350.491 104.249 350.514C104.155 350.531 104.063 350.512 103.972 350.457L101.46 348.92C101.369 348.865 101.307 348.789 101.273 348.694C101.271 348.593 101.302 348.5 101.367 348.415L112.718 333.65C112.783 333.566 112.77 333.496 112.679 333.44L107.847 330.484C107.756 330.429 107.694 330.353 107.66 330.258C107.658 330.157 107.689 330.064 107.754 329.979L109.256 328.026C109.321 327.941 109.4 327.89 109.494 327.873C109.618 327.85 109.726 327.866 109.817 327.922L123.111 336.054ZM137.557 348.175C137.492 348.259 137.397 348.313 137.273 348.336C137.179 348.353 137.087 348.334 136.996 348.279L127.715 342.601C127.624 342.545 127.546 342.56 127.481 342.644L123.834 347.388C123.769 347.473 123.782 347.543 123.873 347.599L130.124 351.423C130.215 351.478 130.261 351.557 130.264 351.658C130.298 351.753 130.282 351.843 130.217 351.928L128.735 353.856C128.67 353.94 128.575 353.994 128.45 354.017C128.357 354.035 128.264 354.015 128.173 353.96L121.922 350.136C121.831 350.08 121.753 350.094 121.688 350.179L116.11 357.435C116.045 357.519 115.95 357.573 115.825 357.596C115.732 357.614 115.64 357.594 115.549 357.539L113.037 356.002C112.946 355.947 112.884 355.871 112.85 355.776C112.848 355.675 112.879 355.582 112.944 355.498L126.128 338.348C126.193 338.263 126.272 338.212 126.366 338.195C126.491 338.172 126.599 338.188 126.69 338.244L138.946 345.742C139.037 345.797 139.084 345.876 139.087 345.977C139.12 346.072 139.105 346.162 139.04 346.246L137.557 348.175ZM139.787 372.665C138.422 371.83 137.41 370.85 136.75 369.725C136.102 368.583 135.841 367.392 135.966 366.15C136.091 364.909 136.609 363.696 137.519 362.512L142.336 356.246C143.247 355.062 144.328 354.194 145.582 353.643C146.835 353.092 148.169 352.888 149.583 353.032C150.997 353.176 152.387 353.666 153.752 354.501C155.098 355.325 156.108 356.29 156.782 357.399C157.455 358.507 157.742 359.665 157.643 360.872C157.544 362.08 157.059 363.25 156.188 364.384C156.123 364.468 156.028 364.522 155.903 364.545C155.809 364.562 155.717 364.543 155.626 364.488L153.017 363.078C152.799 362.945 152.761 362.785 152.904 362.599C153.671 361.601 153.952 360.592 153.747 359.571C153.56 358.561 152.912 357.717 151.801 357.038C150.691 356.359 149.566 356.117 148.424 356.314C147.283 356.511 146.329 357.109 145.561 358.107L140.588 364.576C139.834 365.557 139.559 366.558 139.765 367.578C139.97 368.599 140.628 369.449 141.738 370.128C142.848 370.807 143.958 371.051 145.068 370.86C146.21 370.663 147.164 370.066 147.931 369.068C148.074 368.882 148.255 368.856 148.473 368.989L150.906 370.627C150.997 370.683 151.051 370.753 151.066 370.837C151.1 370.932 151.091 371.014 151.039 371.081C150.155 372.231 149.093 373.073 147.852 373.608C146.625 374.125 145.311 374.304 143.909 374.143C142.508 373.982 141.134 373.489 139.787 372.665ZM176.159 368.507C176.25 368.563 176.297 368.641 176.3 368.742C176.333 368.837 176.318 368.927 176.253 369.012L174.751 370.965C174.686 371.05 174.591 371.104 174.466 371.127C174.373 371.144 174.28 371.125 174.189 371.069L169.167 367.997C169.076 367.941 168.998 367.955 168.933 368.04L157.582 382.805C157.517 382.89 157.422 382.943 157.297 382.967C157.203 382.984 157.111 382.965 157.02 382.909L154.509 381.373C154.418 381.317 154.355 381.242 154.322 381.146C154.319 381.045 154.35 380.953 154.415 380.868L165.766 366.103C165.831 366.018 165.818 365.948 165.727 365.893L160.896 362.937C160.805 362.881 160.742 362.806 160.708 362.71C160.706 362.609 160.737 362.517 160.802 362.432L162.304 360.478C162.369 360.394 162.448 360.343 162.542 360.326C162.667 360.303 162.775 360.319 162.866 360.374L176.159 368.507ZM190.606 380.627C190.541 380.712 190.446 380.766 190.321 380.789C190.227 380.806 190.135 380.787 190.044 380.731L180.763 375.053C180.672 374.998 180.594 375.012 180.529 375.097L176.882 379.841C176.817 379.925 176.83 379.996 176.921 380.051L183.172 383.875C183.263 383.931 183.31 384.009 183.312 384.11C183.346 384.206 183.33 384.296 183.265 384.38L181.783 386.308C181.718 386.393 181.623 386.447 181.498 386.47C181.405 386.487 181.312 386.468 181.222 386.412L174.97 382.588C174.879 382.533 174.801 382.547 174.736 382.632L169.158 389.887C169.093 389.972 168.999 390.026 168.874 390.049C168.78 390.066 168.688 390.047 168.597 389.991L166.085 388.455C165.994 388.399 165.932 388.324 165.898 388.229C165.896 388.127 165.927 388.035 165.992 387.95L179.176 370.8C179.241 370.716 179.321 370.665 179.414 370.647C179.539 370.624 179.647 370.641 179.738 370.696L191.994 378.194C192.085 378.25 192.132 378.328 192.135 378.429C192.169 378.525 192.153 378.614 192.088 378.699L190.606 380.627ZM192.836 405.118C191.471 404.283 190.458 403.303 189.798 402.178C189.151 401.036 188.89 399.844 189.015 398.603C189.14 397.361 189.657 396.148 190.567 394.964L195.385 388.698C196.295 387.514 197.377 386.647 198.63 386.095C199.883 385.544 201.217 385.341 202.631 385.485C204.046 385.629 205.435 386.118 206.8 386.953C208.147 387.777 209.157 388.743 209.83 389.851C210.503 390.959 210.79 392.117 210.691 393.325C210.592 394.533 210.107 395.703 209.236 396.836C209.171 396.921 209.076 396.975 208.951 396.998C208.858 397.015 208.765 396.996 208.674 396.94L206.066 395.531C205.847 395.397 205.81 395.237 205.953 395.051C206.72 394.053 207.001 393.044 206.795 392.023C206.608 391.014 205.96 390.169 204.85 389.49C203.74 388.811 202.614 388.57 201.472 388.767C200.331 388.964 199.377 389.561 198.61 390.559L193.636 397.028C192.882 398.009 192.608 399.01 192.813 400.031C193.018 401.052 193.676 401.902 194.786 402.581C195.896 403.26 197.006 403.504 198.116 403.313C199.258 403.116 200.212 402.518 200.979 401.521C201.122 401.334 201.303 401.308 201.521 401.442L203.955 403.08C204.046 403.135 204.099 403.205 204.114 403.289C204.148 403.385 204.139 403.466 204.087 403.534C203.203 404.684 202.141 405.526 200.9 406.06C199.673 406.578 198.359 406.756 196.958 406.595C195.556 406.434 194.182 405.942 192.836 405.118ZM229.207 400.96C229.298 401.015 229.345 401.094 229.348 401.195C229.382 401.29 229.366 401.38 229.301 401.464L227.799 403.418C227.734 403.502 227.639 403.556 227.515 403.579C227.421 403.597 227.329 403.578 227.238 403.522L222.215 400.449C222.124 400.394 222.046 400.408 221.981 400.493L210.63 415.258C210.565 415.342 210.47 415.396 210.345 415.419C210.252 415.436 210.159 415.417 210.068 415.362L207.557 413.825C207.466 413.77 207.404 413.694 207.37 413.599C207.367 413.498 207.398 413.405 207.463 413.321L218.814 398.555C218.879 398.471 218.866 398.401 218.775 398.345L213.944 395.389C213.853 395.334 213.791 395.258 213.757 395.163C213.754 395.062 213.785 394.969 213.85 394.885L215.352 392.931C215.417 392.846 215.496 392.796 215.59 392.778C215.715 392.755 215.823 392.771 215.914 392.827L229.207 400.96ZM243.654 413.08C243.589 413.164 243.494 413.218 243.369 413.241C243.276 413.259 243.183 413.239 243.092 413.184L233.811 407.506C233.72 407.45 233.642 407.465 233.577 407.549L229.93 412.293C229.865 412.378 229.878 412.448 229.969 412.504L236.22 416.328C236.311 416.384 236.358 416.462 236.36 416.563C236.394 416.658 236.379 416.748 236.314 416.833L234.831 418.761C234.766 418.845 234.671 418.899 234.547 418.922C234.453 418.94 234.361 418.921 234.27 418.865L228.019 415.041C227.928 414.985 227.85 415 227.785 415.084L222.207 422.34C222.142 422.424 222.047 422.478 221.922 422.501C221.828 422.519 221.736 422.499 221.645 422.444L219.134 420.907C219.043 420.852 218.98 420.776 218.947 420.681C218.944 420.58 218.975 420.487 219.04 420.403L232.225 403.253C232.29 403.168 232.369 403.117 232.462 403.1C232.587 403.077 232.695 403.093 232.786 403.149L245.043 410.647C245.134 410.702 245.18 410.781 245.183 410.882C245.217 410.977 245.201 411.067 245.136 411.152L243.654 413.08ZM245.884 437.57C244.519 436.735 243.506 435.755 242.846 434.63C242.199 433.488 241.938 432.297 242.063 431.055C242.188 429.814 242.705 428.601 243.615 427.417L248.433 421.151C249.343 419.967 250.425 419.099 251.678 418.548C252.931 417.997 254.265 417.793 255.679 417.937C257.094 418.081 258.483 418.571 259.848 419.406C261.195 420.23 262.205 421.196 262.878 422.304C263.551 423.412 263.838 424.57 263.739 425.777C263.641 426.985 263.155 428.156 262.284 429.289C262.219 429.373 262.124 429.427 262 429.45C261.906 429.468 261.814 429.448 261.723 429.393L259.114 427.983C258.895 427.85 258.858 427.69 259.001 427.504C259.768 426.506 260.049 425.497 259.844 424.476C259.657 423.466 259.008 422.622 257.898 421.943C256.788 421.264 255.662 421.023 254.521 421.22C253.379 421.417 252.425 422.014 251.658 423.012L246.684 429.481C245.93 430.462 245.656 431.463 245.861 432.484C246.066 433.504 246.724 434.354 247.834 435.033C248.944 435.713 250.054 435.957 251.165 435.765C252.306 435.568 253.26 434.971 254.027 433.973C254.17 433.787 254.351 433.761 254.57 433.894L257.003 435.532C257.094 435.588 257.147 435.658 257.163 435.742C257.196 435.837 257.187 435.919 257.135 435.986C256.251 437.136 255.189 437.979 253.949 438.513C252.721 439.03 251.407 439.209 250.006 439.048C248.604 438.887 247.23 438.394 245.884 437.57ZM282.256 433.412C282.347 433.468 282.393 433.546 282.396 433.647C282.43 433.742 282.414 433.832 282.349 433.917L280.847 435.87C280.782 435.955 280.688 436.009 280.563 436.032C280.469 436.049 280.377 436.03 280.286 435.974L275.263 432.902C275.172 432.846 275.094 432.861 275.029 432.945L263.678 447.71C263.613 447.795 263.518 447.849 263.393 447.872C263.3 447.889 263.208 447.87 263.117 447.814L260.605 446.278C260.514 446.222 260.452 446.147 260.418 446.052C260.415 445.95 260.447 445.858 260.512 445.773L271.863 431.008C271.928 430.923 271.915 430.853 271.824 430.798L266.992 427.842C266.901 427.786 266.839 427.711 266.805 427.616C266.802 427.514 266.834 427.422 266.899 427.337L268.4 425.384C268.465 425.299 268.545 425.248 268.638 425.231C268.763 425.208 268.871 425.224 268.962 425.28L282.256 433.412ZM296.702 445.532C296.637 445.617 296.542 445.671 296.417 445.694C296.324 445.711 296.231 445.692 296.141 445.636L286.859 439.959C286.768 439.903 286.69 439.917 286.625 440.002L282.978 444.746C282.913 444.831 282.926 444.901 283.017 444.956L289.268 448.78C289.359 448.836 289.406 448.915 289.409 449.016C289.442 449.111 289.427 449.201 289.362 449.285L287.88 451.213C287.815 451.298 287.72 451.352 287.595 451.375C287.501 451.392 287.409 451.373 287.318 451.317L281.067 447.493C280.976 447.438 280.898 447.452 280.833 447.537L275.255 454.792C275.19 454.877 275.095 454.931 274.97 454.954C274.877 454.971 274.784 454.952 274.693 454.896L272.182 453.36C272.091 453.304 272.029 453.229 271.995 453.134C271.992 453.033 272.023 452.94 272.088 452.855L285.273 435.705C285.338 435.621 285.417 435.57 285.511 435.553C285.636 435.529 285.743 435.546 285.834 435.601L298.091 443.099C298.182 443.155 298.229 443.233 298.231 443.334C298.265 443.43 298.249 443.52 298.184 443.604L296.702 445.532ZM298.932 470.023C297.567 469.188 296.555 468.208 295.894 467.083C295.247 465.941 294.986 464.749 295.111 463.508C295.236 462.266 295.754 461.054 296.664 459.87L301.481 453.603C302.391 452.419 303.473 451.552 304.726 451.001C305.98 450.449 307.313 450.246 308.728 450.39C310.142 450.534 311.532 451.023 312.897 451.858C314.243 452.682 315.253 453.648 315.926 454.756C316.6 455.864 316.887 457.022 316.788 458.23C316.689 459.438 316.204 460.608 315.333 461.741C315.268 461.826 315.173 461.88 315.048 461.903C314.954 461.92 314.862 461.901 314.771 461.845L312.162 460.436C311.944 460.302 311.906 460.142 312.049 459.956C312.816 458.959 313.097 457.949 312.892 456.928C312.705 455.919 312.056 455.074 310.946 454.395C309.836 453.716 308.71 453.475 307.569 453.672C306.428 453.869 305.473 454.466 304.706 455.464L299.733 461.934C298.979 462.915 298.704 463.915 298.909 464.936C299.115 465.957 299.772 466.807 300.882 467.486C301.992 468.165 303.103 468.409 304.213 468.218C305.354 468.021 306.308 467.424 307.076 466.426C307.219 466.24 307.399 466.213 307.618 466.347L310.051 467.985C310.142 468.04 310.195 468.11 310.211 468.195C310.245 468.29 310.236 468.371 310.184 468.439C309.299 469.589 308.237 470.431 306.997 470.966C305.77 471.483 304.455 471.661 303.054 471.5C301.653 471.339 300.279 470.847 298.932 470.023ZM335.304 465.865C335.395 465.92 335.442 465.999 335.444 466.1C335.478 466.195 335.462 466.285 335.397 466.37L333.896 468.323C333.831 468.408 333.736 468.461 333.611 468.484C333.517 468.502 333.425 468.483 333.334 468.427L328.311 465.354C328.22 465.299 328.142 465.313 328.077 465.398L316.726 480.163C316.661 480.247 316.566 480.301 316.442 480.324C316.348 480.342 316.256 480.322 316.165 480.267L313.653 478.73C313.562 478.675 313.5 478.599 313.466 478.504C313.464 478.403 313.495 478.31 313.56 478.226L324.911 463.461C324.976 463.376 324.963 463.306 324.872 463.25L320.04 460.294C319.949 460.239 319.887 460.163 319.853 460.068C319.851 459.967 319.882 459.874 319.947 459.79L321.449 457.836C321.514 457.752 321.593 457.701 321.687 457.683C321.811 457.66 321.919 457.677 322.01 457.732L335.304 465.865ZM349.75 477.985C349.685 478.069 349.59 478.123 349.466 478.146C349.372 478.164 349.28 478.145 349.189 478.089L339.908 472.411C339.817 472.355 339.739 472.37 339.674 472.454L336.027 477.199C335.962 477.283 335.975 477.353 336.066 477.409L342.317 481.233C342.408 481.289 342.454 481.367 342.457 481.468C342.491 481.563 342.475 481.653 342.41 481.738L340.928 483.666C340.863 483.751 340.768 483.804 340.643 483.827C340.55 483.845 340.457 483.826 340.366 483.77L334.115 479.946C334.024 479.89 333.946 479.905 333.881 479.989L328.303 487.245C328.238 487.329 328.143 487.383 328.018 487.406C327.925 487.424 327.833 487.405 327.742 487.349L325.23 485.813C325.139 485.757 325.077 485.682 325.043 485.586C325.04 485.485 325.072 485.392 325.137 485.308L338.321 468.158C338.386 468.073 338.465 468.023 338.559 468.005C338.684 467.982 338.792 467.998 338.883 468.054L351.139 475.552C351.23 475.608 351.277 475.686 351.279 475.787C351.313 475.882 351.298 475.972 351.233 476.057L349.75 477.985Z" fill="black"/>
</svg>
