<svg width="14" height="11" viewBox="0 0 14 11" fill="none" xmlns="http://www.w3.org/2000/svg">
<path d="M11.9094 0.806531C12.2923 0.317248 12.9992 0.23131 13.4885 0.614148C13.9778 0.997004 14.0646 1.70395 13.6819 2.19325L7.26099 10.3974C7.25966 10.3991 7.25745 10.4005 7.25611 10.4022C7.24567 10.4154 7.23402 10.4275 7.22291 10.4403C7.18396 10.4853 7.14311 10.527 7.09889 10.5643C7.05081 10.6049 7.0002 10.6405 6.94752 10.6718C6.93493 10.6792 6.92225 10.6863 6.90943 10.6932C6.85134 10.7247 6.79145 10.7509 6.72974 10.7714C6.72593 10.7726 6.72186 10.7731 6.71803 10.7743C6.65239 10.7953 6.58565 10.8106 6.51783 10.8192C6.51454 10.8196 6.51135 10.8208 6.50806 10.8212C6.47689 10.8249 6.44565 10.8269 6.41431 10.828C6.40878 10.8282 6.40325 10.8279 6.39771 10.828C6.37164 10.8285 6.34564 10.8283 6.31959 10.827C6.30818 10.8265 6.2968 10.826 6.28541 10.8251C6.26285 10.8233 6.24046 10.8204 6.21803 10.8173C6.20372 10.8153 6.18931 10.814 6.17506 10.8114C6.15702 10.8082 6.13924 10.8038 6.12135 10.7997C6.10236 10.7953 6.08351 10.7904 6.06471 10.785C5.97496 10.7594 5.88825 10.7222 5.80592 10.6737C5.79248 10.6658 5.77907 10.6578 5.76588 10.6493C5.74533 10.636 5.72517 10.6221 5.70533 10.6073C5.69767 10.6016 5.68945 10.5966 5.68189 10.5907C5.68053 10.5896 5.67935 10.5879 5.67799 10.5868C5.64411 10.56 5.61066 10.5312 5.57935 10.4999L1.07935 5.99989C0.640316 5.56053 0.640115 4.84831 1.07935 4.40907C1.5186 3.96988 2.23083 3.97005 2.67017 4.40907L6.27174 8.01063L11.9094 0.806531Z" fill="#FEF2F3"/>
</svg>
