<svg width="477" height="534" viewBox="0 0 477 534" fill="none" xmlns="http://www.w3.org/2000/svg">
<path d="M122.844 515.574C119.728 515.574 41.7124 300.191 3.09375 192.5V1L203.164 515.574H122.844Z" fill="#B10610" stroke="black"/>
<path d="M10.6334 134.452C10.0696 132.955 9.86971 131.548 10.0338 130.233C10.2184 128.911 10.7357 127.778 11.5858 126.835C12.4358 125.892 13.5761 125.206 15.0066 124.777L22.578 122.508C24.0085 122.08 25.3818 122.012 26.698 122.307C28.0141 122.601 29.1827 123.229 30.2039 124.189C31.225 125.15 32.0175 126.378 32.5813 127.876C33.1376 129.353 33.3439 130.747 33.2002 132.056C33.0565 133.366 32.5801 134.486 31.7709 135.417C30.9617 136.348 29.8725 137.019 28.5034 137.429C28.4012 137.46 28.2942 137.447 28.1824 137.392C28.0985 137.351 28.0378 137.28 28.0002 137.18L26.8095 134.471C26.7193 134.231 26.7866 134.078 27.0114 134.01C28.2171 133.649 29.0487 132.989 29.5062 132.03C29.9713 131.091 29.9745 130.012 29.516 128.794C29.0574 127.576 28.3212 126.708 27.3073 126.19C26.2935 125.672 25.1837 125.593 23.978 125.955L16.1614 128.297C14.9761 128.652 14.1547 129.309 13.6972 130.268C13.2396 131.227 13.2402 132.316 13.6987 133.534C14.1573 134.751 14.8795 135.613 15.8654 136.117C16.8792 136.635 17.989 136.714 19.1947 136.353C19.4195 136.285 19.577 136.371 19.6672 136.611L20.582 139.403C20.6196 139.503 20.619 139.592 20.5803 139.67C20.549 139.768 20.4926 139.829 20.4108 139.854C19.0212 140.27 17.6785 140.328 16.3828 140.028C15.1076 139.721 13.9696 139.085 12.9689 138.118C11.9682 137.151 11.1897 135.929 10.6334 134.452ZM41.657 152.703C41.6945 152.803 41.6837 152.895 41.6245 152.98C41.5933 153.078 41.5266 153.142 41.4244 153.173L39.0641 153.88C38.9619 153.911 38.8549 153.898 38.7431 153.843C38.6593 153.801 38.5985 153.731 38.5609 153.631L36.4861 148.121C36.4485 148.021 36.3786 147.986 36.2764 148.017L18.4361 153.362C18.3339 153.393 18.2269 153.381 18.1151 153.325C18.0312 153.284 17.9705 153.213 17.9329 153.113L16.8955 150.358C16.8579 150.258 16.8547 150.159 16.886 150.061C16.9452 149.977 17.0258 149.919 17.128 149.889L34.9684 144.543C35.0706 144.512 35.1029 144.447 35.0653 144.347L33.0694 139.047C33.0318 138.947 33.0286 138.848 33.0598 138.75C33.119 138.665 33.1997 138.608 33.3019 138.577L35.6622 137.87C35.7644 137.839 35.8574 137.845 35.9413 137.886C36.0531 137.942 36.1278 138.019 36.1654 138.119L41.657 152.703ZM45.6362 171.243C45.534 171.274 45.427 171.262 45.3152 171.206C45.2313 171.165 45.1706 171.094 45.133 170.994L41.2991 160.812C41.2615 160.712 41.1916 160.678 41.0894 160.708L35.3572 162.426C35.255 162.457 35.2227 162.522 35.2603 162.622L37.8426 169.48C37.8802 169.579 37.8694 169.671 37.8102 169.756C37.779 169.854 37.7122 169.919 37.6101 169.949L35.2804 170.647C35.1782 170.678 35.0712 170.665 34.9594 170.61C34.8756 170.569 34.8148 170.498 34.7772 170.398L32.195 163.54C32.1574 163.44 32.0875 163.406 31.9853 163.436L23.2184 166.063C23.1162 166.094 23.0092 166.081 22.8974 166.026C22.8135 165.984 22.7528 165.914 22.7152 165.814L21.6778 163.059C21.6402 162.959 21.637 162.86 21.6683 162.762C21.7275 162.677 21.8082 162.62 21.9103 162.589L42.6321 156.38C42.7343 156.35 42.8273 156.355 42.9112 156.397C43.023 156.452 43.0977 156.53 43.1353 156.629L48.1984 170.076C48.236 170.176 48.2252 170.268 48.166 170.352C48.1347 170.45 48.068 170.515 47.9658 170.545L45.6362 171.243ZM32.5474 192.651C31.9835 191.153 31.7837 189.747 31.9478 188.431C32.1324 187.109 32.6497 185.977 33.4998 185.033C34.3498 184.09 35.4901 183.404 36.9206 182.975L44.492 180.707C45.9225 180.278 47.2958 180.211 48.612 180.505C49.9281 180.8 51.0967 181.427 52.1179 182.388C53.139 183.348 53.9315 184.577 54.4953 186.074C55.0516 187.552 55.2579 188.945 55.1142 190.255C54.9705 191.564 54.4941 192.684 53.6849 193.616C52.8757 194.547 51.7865 195.217 50.4173 195.628C50.3152 195.658 50.2082 195.646 50.0963 195.591C50.0125 195.549 49.9518 195.478 49.9142 195.379L48.7235 192.669C48.6333 192.43 48.7006 192.276 48.9254 192.209C50.1311 191.848 50.9627 191.187 51.4202 190.228C51.8853 189.289 51.8885 188.211 51.4299 186.993C50.9714 185.775 50.2352 184.907 49.2213 184.389C48.2075 183.87 47.0977 183.792 45.892 184.153L38.0754 186.495C36.8901 186.85 36.0687 187.507 35.6112 188.467C35.1536 189.426 35.1541 190.514 35.6127 191.732C36.0713 192.95 36.7935 193.811 37.7794 194.316C38.7932 194.834 39.903 194.912 41.1087 194.551C41.3335 194.484 41.491 194.57 41.5812 194.809L42.496 197.601C42.5336 197.701 42.533 197.79 42.4943 197.868C42.463 197.967 42.4065 198.028 42.3248 198.052C40.9352 198.469 39.5925 198.527 38.2968 198.226C37.0215 197.92 35.8836 197.283 34.8829 196.317C33.8822 195.35 33.1037 194.128 32.5474 192.651ZM63.5709 210.902C63.6085 211.002 63.5977 211.094 63.5385 211.178C63.5073 211.276 63.4406 211.341 63.3384 211.371L60.9781 212.079C60.8759 212.109 60.7689 212.097 60.6571 212.042C60.5732 212 60.5125 211.929 60.4749 211.829L58.4001 206.319C58.3625 206.219 58.2926 206.185 58.1904 206.215L40.3501 211.561C40.2479 211.592 40.1409 211.579 40.0291 211.524C39.9452 211.482 39.8845 211.412 39.8469 211.312L38.8095 208.557C38.7719 208.457 38.7687 208.358 38.8 208.26C38.8591 208.175 38.9398 208.118 39.042 208.087L56.8824 202.741C56.9846 202.711 57.0168 202.646 56.9793 202.546L54.9833 197.245C54.9458 197.145 54.9426 197.046 54.9738 196.948C55.033 196.864 55.1137 196.806 55.2159 196.776L57.5762 196.068C57.6784 196.038 57.7714 196.043 57.8553 196.085C57.9671 196.14 58.0418 196.218 58.0794 196.317L63.5709 210.902ZM67.5502 229.442C67.448 229.473 67.341 229.46 67.2292 229.405C67.1453 229.363 67.0846 229.293 67.047 229.193L63.213 219.011C63.1755 218.911 63.1056 218.876 63.0034 218.907L57.2712 220.624C57.169 220.655 57.1367 220.72 57.1743 220.82L59.7566 227.678C59.7942 227.778 59.7834 227.87 59.7242 227.954C59.6929 228.053 59.6262 228.117 59.5241 228.148L57.1944 228.846C57.0922 228.876 56.9852 228.864 56.8734 228.809C56.7895 228.767 56.7288 228.696 56.6912 228.597L54.1089 221.739C54.0714 221.639 54.0015 221.604 53.8993 221.635L45.1324 224.262C45.0302 224.292 44.9232 224.28 44.8114 224.224C44.7275 224.183 44.6668 224.112 44.6292 224.012L43.5918 221.257C43.5542 221.157 43.551 221.058 43.5823 220.96C43.6415 220.876 43.7221 220.818 43.8243 220.788L64.5461 214.579C64.6483 214.548 64.7413 214.554 64.8252 214.595C64.937 214.651 65.0117 214.728 65.0493 214.828L70.1124 228.274C70.1499 228.374 70.1391 228.466 70.08 228.551C70.0487 228.649 69.982 228.713 69.8798 228.744L67.5502 229.442ZM54.4613 250.849C53.8975 249.352 53.6977 247.945 53.8618 246.63C54.0464 245.308 54.5637 244.175 55.4137 243.232C56.2638 242.289 57.4041 241.602 58.8346 241.174L66.406 238.905C67.8365 238.477 69.2098 238.409 70.5259 238.704C71.8421 238.998 73.0107 239.626 74.0319 240.586C75.053 241.546 75.8455 242.775 76.4093 244.273C76.9656 245.75 77.1719 247.144 77.0282 248.453C76.8845 249.762 76.408 250.883 75.5989 251.814C74.7897 252.745 73.7005 253.416 72.3313 253.826C72.2291 253.857 72.1221 253.844 72.0103 253.789C71.9265 253.748 71.8657 253.677 71.8282 253.577L70.6375 250.868C70.5473 250.628 70.6145 250.475 70.8393 250.407C72.045 250.046 72.8767 249.386 73.3342 248.427C73.7993 247.488 73.8025 246.409 73.3439 245.191C72.8854 243.973 72.1492 243.105 71.1353 242.587C70.1215 242.069 69.0117 241.99 67.806 242.352L59.9894 244.694C58.8041 245.049 57.9827 245.706 57.5251 246.665C57.0676 247.624 57.0681 248.713 57.5267 249.931C57.9853 251.148 58.7075 252.01 59.6934 252.514C60.7072 253.032 61.817 253.111 63.0227 252.75C63.2475 252.682 63.405 252.768 63.4952 253.008L64.41 255.8C64.4476 255.9 64.447 255.989 64.4083 256.067C64.377 256.165 64.3205 256.226 64.2388 256.251C62.8492 256.667 61.5065 256.725 60.2108 256.425C58.9355 256.118 57.7975 255.482 56.7968 254.515C55.7961 253.548 55.0176 252.326 54.4613 250.849ZM85.4849 269.1C85.5225 269.2 85.5117 269.292 85.4525 269.377C85.4213 269.475 85.3546 269.539 85.2524 269.57L82.8921 270.277C82.7899 270.308 82.6829 270.295 82.5711 270.24C82.4872 270.198 82.4265 270.128 82.3889 270.028L80.3141 264.518C80.2765 264.418 80.2066 264.383 80.1044 264.414L62.264 269.759C62.1619 269.79 62.0549 269.778 61.9431 269.722C61.8592 269.681 61.7985 269.61 61.7609 269.51L60.7235 266.755C60.6859 266.655 60.6827 266.556 60.7139 266.458C60.7731 266.374 60.8538 266.316 60.956 266.285L78.7964 260.94C78.8985 260.909 78.9308 260.844 78.8932 260.744L76.8973 255.444C76.8597 255.344 76.8566 255.245 76.8878 255.147C76.947 255.062 77.0277 255.005 77.1299 254.974L79.4902 254.267C79.5924 254.236 79.6854 254.242 79.7692 254.283C79.8811 254.339 79.9558 254.416 79.9933 254.516L85.4849 269.1ZM89.4641 287.64C89.362 287.671 89.255 287.659 89.1432 287.603C89.0593 287.562 88.9986 287.491 88.961 287.391L85.127 277.209C85.0894 277.109 85.0196 277.075 84.9174 277.105L79.1852 278.823C79.083 278.854 79.0507 278.919 79.0883 279.019L81.6706 285.877C81.7082 285.976 81.6974 286.068 81.6382 286.153C81.6069 286.251 81.5402 286.316 81.438 286.346L79.1084 287.044C79.0062 287.075 78.8992 287.062 78.7874 287.007C78.7035 286.966 78.6428 286.895 78.6052 286.795L76.0229 279.937C75.9853 279.837 75.9155 279.803 75.8133 279.833L67.0464 282.46C66.9442 282.491 66.8372 282.478 66.7254 282.423C66.6415 282.381 66.5808 282.311 66.5432 282.211L65.5058 279.456C65.4682 279.356 65.465 279.257 65.4963 279.159C65.5554 279.074 65.6361 279.017 65.7383 278.986L86.4601 272.777C86.5623 272.747 86.6553 272.752 86.7392 272.794C86.851 272.849 86.9257 272.927 86.9633 273.026L92.0263 286.473C92.0639 286.573 92.0531 286.665 91.9939 286.749C91.9627 286.847 91.896 286.912 91.7938 286.942L89.4641 287.64ZM76.3753 309.048C75.8115 307.55 75.6117 306.144 75.7758 304.828C75.9604 303.506 76.4777 302.374 77.3277 301.43C78.1778 300.487 79.318 299.801 80.7485 299.372L88.32 297.104C89.7505 296.675 91.1238 296.608 92.4399 296.902C93.7561 297.197 94.9247 297.824 95.9458 298.785C96.967 299.745 97.7594 300.974 98.3233 302.471C98.8796 303.949 99.0859 305.342 98.9422 306.652C98.7985 307.961 98.322 309.081 97.5129 310.012C96.7037 310.944 95.6145 311.614 94.2453 312.025C94.1431 312.055 94.0361 312.043 93.9243 311.988C93.8405 311.946 93.7797 311.875 93.7421 311.776L92.5515 309.066C92.4612 308.827 92.5285 308.673 92.7533 308.606C93.959 308.245 94.7907 307.584 95.2482 306.625C95.7132 305.686 95.7165 304.608 95.2579 303.39C94.7993 302.172 94.0631 301.304 93.0493 300.786C92.0355 300.267 90.9257 300.189 89.72 300.55L81.9033 302.892C80.7181 303.247 79.8967 303.904 79.4391 304.864C78.9816 305.823 78.9821 306.911 79.4407 308.129C79.8992 309.347 80.6215 310.208 81.6074 310.712C82.6212 311.231 83.731 311.309 84.9367 310.948C85.1615 310.881 85.319 310.967 85.4092 311.206L86.324 313.998C86.3616 314.098 86.361 314.187 86.3222 314.265C86.291 314.364 86.2345 314.425 86.1528 314.449C84.7631 314.866 83.4205 314.924 82.1248 314.623C80.8495 314.317 79.7115 313.68 78.7108 312.713C77.7101 311.747 76.9316 310.525 76.3753 309.048ZM107.399 327.299C107.436 327.399 107.426 327.491 107.366 327.575C107.335 327.673 107.269 327.738 107.166 327.768L104.806 328.476C104.704 328.506 104.597 328.494 104.485 328.438C104.401 328.397 104.34 328.326 104.303 328.226L102.228 322.716C102.19 322.616 102.121 322.582 102.018 322.612L84.178 327.958C84.0759 327.988 83.9689 327.976 83.857 327.921C83.7732 327.879 83.7125 327.809 83.6749 327.709L82.6374 324.954C82.5999 324.854 82.5967 324.755 82.6279 324.656C82.6871 324.572 82.7678 324.515 82.87 324.484L100.71 319.138C100.813 319.108 100.845 319.043 100.807 318.943L98.8113 313.642C98.7737 313.542 98.7706 313.443 98.8018 313.345C98.861 313.261 98.9417 313.203 99.0438 313.173L101.404 312.465C101.506 312.435 101.599 312.44 101.683 312.482C101.795 312.537 101.87 312.615 101.907 312.714L107.399 327.299ZM111.378 345.839C111.276 345.87 111.169 345.857 111.057 345.802C110.973 345.76 110.913 345.69 110.875 345.59L107.041 335.408C107.003 335.308 106.934 335.273 106.831 335.304L101.099 337.021C100.997 337.052 100.965 337.117 101.002 337.217L103.585 344.075C103.622 344.175 103.611 344.267 103.552 344.351C103.521 344.45 103.454 344.514 103.352 344.545L101.022 345.243C100.92 345.273 100.813 345.261 100.701 345.206C100.618 345.164 100.557 345.093 100.519 344.993L97.9369 338.136C97.8993 338.036 97.8294 338.001 97.7273 338.032L88.9603 340.659C88.8582 340.689 88.7512 340.677 88.6394 340.621C88.5555 340.58 88.4948 340.509 88.4572 340.409L87.4198 337.654C87.3822 337.554 87.379 337.455 87.4102 337.357C87.4694 337.273 87.5501 337.215 87.6523 337.185L108.374 330.976C108.476 330.945 108.569 330.951 108.653 330.992C108.765 331.048 108.84 331.125 108.877 331.225L113.94 344.671C113.978 344.771 113.967 344.863 113.908 344.948C113.877 345.046 113.81 345.11 113.708 345.141L111.378 345.839ZM98.2893 367.246C97.7255 365.749 97.5256 364.342 97.6898 363.027C97.8744 361.705 98.3917 360.572 99.2417 359.629C100.092 358.685 101.232 357.999 102.663 357.571L110.234 355.302C111.664 354.874 113.038 354.806 114.354 355.101C115.67 355.395 116.839 356.023 117.86 356.983C118.881 357.943 119.673 359.172 120.237 360.67C120.794 362.147 121 363.541 120.856 364.85C120.712 366.159 120.236 367.28 119.427 368.211C118.618 369.142 117.528 369.813 116.159 370.223C116.057 370.254 115.95 370.241 115.838 370.186C115.754 370.144 115.694 370.074 115.656 369.974L114.465 367.265C114.375 367.025 114.443 366.872 114.667 366.804C115.873 366.443 116.705 365.783 117.162 364.824C117.627 363.885 117.63 362.806 117.172 361.588C116.713 360.37 115.977 359.502 114.963 358.984C113.949 358.466 112.84 358.387 111.634 358.749L103.817 361.091C102.632 361.446 101.811 362.103 101.353 363.062C100.896 364.021 100.896 365.11 101.355 366.328C101.813 367.545 102.535 368.407 103.521 368.911C104.535 369.429 105.645 369.508 106.851 369.146C107.075 369.079 107.233 369.165 107.323 369.405L108.238 372.197C108.276 372.297 108.275 372.386 108.236 372.464C108.205 372.562 108.148 372.623 108.067 372.648C106.677 373.064 105.334 373.122 104.039 372.822C102.763 372.515 101.626 371.879 100.625 370.912C99.6241 369.945 98.8456 368.723 98.2893 367.246ZM129.313 385.497C129.35 385.597 129.34 385.689 129.28 385.774C129.249 385.872 129.183 385.936 129.08 385.967L126.72 386.674C126.618 386.705 126.511 386.692 126.399 386.637C126.315 386.595 126.254 386.525 126.217 386.425L124.142 380.915C124.104 380.815 124.035 380.78 123.932 380.811L106.092 386.156C105.99 386.187 105.883 386.175 105.771 386.119C105.687 386.078 105.626 386.007 105.589 385.907L104.551 383.152C104.514 383.052 104.511 382.953 104.542 382.855C104.601 382.771 104.682 382.713 104.784 382.682L122.624 377.337C122.727 377.306 122.759 377.241 122.721 377.141L120.725 371.841C120.688 371.741 120.685 371.642 120.716 371.543C120.775 371.459 120.856 371.402 120.958 371.371L123.318 370.664C123.42 370.633 123.513 370.639 123.597 370.68C123.709 370.735 123.784 370.813 123.821 370.913L129.313 385.497ZM133.292 404.037C133.19 404.068 133.083 404.056 132.971 404C132.887 403.959 132.827 403.888 132.789 403.788L128.955 393.606C128.917 393.506 128.848 393.472 128.745 393.502L123.013 395.22C122.911 395.251 122.879 395.316 122.916 395.416L125.499 402.274C125.536 402.373 125.525 402.465 125.466 402.55C125.435 402.648 125.368 402.712 125.266 402.743L122.936 403.441C122.834 403.472 122.727 403.459 122.615 403.404C122.531 403.362 122.471 403.292 122.433 403.192L119.851 396.334C119.813 396.234 119.743 396.2 119.641 396.23L110.874 398.857C110.772 398.888 110.665 398.875 110.553 398.82C110.469 398.778 110.409 398.708 110.371 398.608L109.334 395.853C109.296 395.753 109.293 395.654 109.324 395.556C109.383 395.471 109.464 395.414 109.566 395.383L130.288 389.174C130.39 389.144 130.483 389.149 130.567 389.191C130.679 389.246 130.754 389.324 130.791 389.423L135.854 402.87C135.892 402.97 135.881 403.062 135.822 403.146C135.791 403.244 135.724 403.309 135.622 403.339L133.292 404.037ZM120.203 425.445C119.639 423.947 119.44 422.541 119.604 421.225C119.788 419.903 120.306 418.771 121.156 417.827C122.006 416.884 123.146 416.198 124.577 415.769L132.148 413.501C133.578 413.072 134.952 413.005 136.268 413.299C137.584 413.594 138.753 414.221 139.774 415.182C140.795 416.142 141.587 417.371 142.151 418.868C142.708 420.346 142.914 421.739 142.77 423.048C142.626 424.358 142.15 425.478 141.341 426.409C140.532 427.341 139.442 428.011 138.073 428.422C137.971 428.452 137.864 428.44 137.752 428.385C137.668 428.343 137.608 428.272 137.57 428.172L136.379 425.463C136.289 425.224 136.357 425.07 136.581 425.003C137.787 424.642 138.619 423.981 139.076 423.022C139.541 422.083 139.544 421.005 139.086 419.787C138.627 418.569 137.891 417.701 136.877 417.183C135.863 416.664 134.754 416.586 133.548 416.947L125.731 419.289C124.546 419.644 123.725 420.301 123.267 421.261C122.81 422.22 122.81 423.308 123.269 424.526C123.727 425.744 124.449 426.605 125.435 427.109C126.449 427.628 127.559 427.706 128.765 427.345C128.989 427.278 129.147 427.364 129.237 427.603L130.152 430.395C130.19 430.495 130.189 430.584 130.15 430.662C130.119 430.761 130.062 430.822 129.981 430.846C128.591 431.263 127.248 431.321 125.953 431.02C124.677 430.714 123.539 430.077 122.539 429.11C121.538 428.144 120.76 426.922 120.203 425.445ZM151.227 443.696C151.264 443.796 151.254 443.888 151.194 443.972C151.163 444.07 151.097 444.135 150.994 444.165L148.634 444.873C148.532 444.903 148.425 444.891 148.313 444.835C148.229 444.794 148.168 444.723 148.131 444.623L146.056 439.113C146.018 439.013 145.949 438.979 145.846 439.009L128.006 444.355C127.904 444.385 127.797 444.373 127.685 444.318C127.601 444.276 127.54 444.206 127.503 444.106L126.465 441.351C126.428 441.251 126.425 441.152 126.456 441.053C126.515 440.969 126.596 440.912 126.698 440.881L144.538 435.535C144.64 435.505 144.673 435.44 144.635 435.34L142.639 430.039C142.602 429.939 142.599 429.84 142.63 429.742C142.689 429.658 142.77 429.6 142.872 429.569L145.232 428.862C145.334 428.832 145.427 428.837 145.511 428.879C145.623 428.934 145.698 429.012 145.735 429.111L151.227 443.696ZM155.206 462.236C155.104 462.267 154.997 462.254 154.885 462.199C154.801 462.157 154.741 462.087 154.703 461.987L150.869 451.805C150.831 451.705 150.762 451.67 150.659 451.701L144.927 453.418C144.825 453.449 144.793 453.514 144.83 453.614L147.413 460.472C147.45 460.572 147.439 460.664 147.38 460.748C147.349 460.847 147.282 460.911 147.18 460.942L144.85 461.64C144.748 461.67 144.641 461.658 144.529 461.602C144.445 461.561 144.385 461.49 144.347 461.39L141.765 454.533C141.727 454.433 141.657 454.398 141.555 454.429L132.788 457.056C132.686 457.086 132.579 457.074 132.467 457.018C132.383 456.977 132.323 456.906 132.285 456.806L131.248 454.051C131.21 453.951 131.207 453.852 131.238 453.754C131.297 453.67 131.378 453.612 131.48 453.582L152.202 447.373C152.304 447.342 152.397 447.348 152.481 447.389C152.593 447.444 152.668 447.522 152.705 447.622L157.768 461.068C157.806 461.168 157.795 461.26 157.736 461.345C157.705 461.443 157.638 461.507 157.536 461.538L155.206 462.236ZM142.117 483.643C141.553 482.146 141.354 480.739 141.518 479.424C141.702 478.102 142.22 476.969 143.07 476.026C143.92 475.082 145.06 474.396 146.49 473.968L154.062 471.699C155.492 471.271 156.866 471.203 158.182 471.498C159.498 471.792 160.667 472.42 161.688 473.38C162.709 474.34 163.501 475.569 164.065 477.067C164.622 478.544 164.828 479.938 164.684 481.247C164.54 482.556 164.064 483.677 163.255 484.608C162.446 485.539 161.356 486.21 159.987 486.62C159.885 486.651 159.778 486.638 159.666 486.583C159.582 486.541 159.522 486.471 159.484 486.371L158.293 483.662C158.203 483.422 158.27 483.269 158.495 483.201C159.701 482.84 160.533 482.18 160.99 481.221C161.455 480.282 161.458 479.203 161 477.985C160.541 476.767 159.805 475.899 158.791 475.381C157.777 474.863 156.668 474.784 155.462 475.145L147.645 477.488C146.46 477.843 145.639 478.5 145.181 479.459C144.724 480.418 144.724 481.507 145.183 482.725C145.641 483.942 146.363 484.804 147.349 485.308C148.363 485.826 149.473 485.905 150.679 485.543C150.903 485.476 151.061 485.562 151.151 485.802L152.066 488.594C152.104 488.694 152.103 488.783 152.064 488.861C152.033 488.959 151.976 489.02 151.895 489.045C150.505 489.461 149.162 489.519 147.867 489.219C146.591 488.912 145.453 488.275 144.453 487.309C143.452 486.342 142.674 485.12 142.117 483.643ZM173.141 501.894C173.178 501.994 173.168 502.086 173.108 502.171C173.077 502.269 173.011 502.333 172.908 502.364L170.548 503.071C170.446 503.102 170.339 503.089 170.227 503.034C170.143 502.992 170.082 502.922 170.045 502.822L167.97 497.312C167.932 497.212 167.863 497.177 167.76 497.208L149.92 502.553C149.818 502.584 149.711 502.572 149.599 502.516C149.515 502.475 149.454 502.404 149.417 502.304L148.379 499.549C148.342 499.449 148.339 499.35 148.37 499.252C148.429 499.168 148.51 499.11 148.612 499.079L166.452 493.734C166.554 493.703 166.587 493.638 166.549 493.538L164.553 488.238C164.516 488.138 164.513 488.039 164.544 487.94C164.603 487.856 164.684 487.799 164.786 487.768L167.146 487.061C167.248 487.03 167.341 487.036 167.425 487.077C167.537 487.132 167.612 487.21 167.649 487.31L173.141 501.894ZM177.12 520.434C177.018 520.465 176.911 520.453 176.799 520.397C176.715 520.356 176.655 520.285 176.617 520.185L172.783 510.003C172.745 509.903 172.675 509.869 172.573 509.899L166.841 511.617C166.739 511.647 166.707 511.713 166.744 511.813L169.326 518.67C169.364 518.77 169.353 518.862 169.294 518.947C169.263 519.045 169.196 519.109 169.094 519.14L166.764 519.838C166.662 519.869 166.555 519.856 166.443 519.801C166.359 519.759 166.299 519.689 166.261 519.589L163.679 512.731C163.641 512.631 163.571 512.597 163.469 512.627L154.702 515.254C154.6 515.285 154.493 515.272 154.381 515.217C154.297 515.175 154.237 515.105 154.199 515.005L153.162 512.25C153.124 512.15 153.121 512.051 153.152 511.953C153.211 511.868 153.292 511.811 153.394 511.78L174.116 505.571C174.218 505.541 174.311 505.546 174.395 505.588C174.507 505.643 174.582 505.721 174.619 505.82L179.682 519.267C179.72 519.367 179.709 519.459 179.65 519.543C179.619 519.641 179.552 519.706 179.45 519.736L177.12 520.434Z" fill="black"/>
<path d="M2.60764 227.238L2.80154 227.356C4.86554 229.97 3.55301 275.403 2.60764 298.454C122.033 370.393 361.858 514.271 365.752 514.271H474.793L2.80154 227.356C2.73996 227.278 2.67535 227.238 2.60764 227.238Z" fill="#B10610" stroke="black"/>
<path d="M15.541 284.699C14.1762 283.864 13.1636 282.884 12.5034 281.759C11.8562 280.617 11.595 279.425 11.72 278.184C11.845 276.942 12.3626 275.73 13.2727 274.546L18.0901 268.28C19.0003 267.096 20.082 266.228 21.3353 265.677C22.5885 265.125 23.9223 264.922 25.3367 265.066C26.7511 265.21 28.1407 265.7 29.5055 266.535C30.8522 267.358 31.8621 268.324 32.5354 269.433C33.2086 270.541 33.4957 271.699 33.3967 272.906C33.2978 274.114 32.8127 275.284 31.9415 276.418C31.8765 276.502 31.7816 276.556 31.6568 276.579C31.5632 276.596 31.4709 276.577 31.3799 276.522L28.7711 275.112C28.5527 274.978 28.515 274.819 28.658 274.633C29.4252 273.635 29.7061 272.625 29.5009 271.605C29.3138 270.595 28.6653 269.751 27.5552 269.072C26.4451 268.392 25.3193 268.151 24.1779 268.348C23.0365 268.545 22.0822 269.143 21.3151 270.141L16.3417 276.61C15.5876 277.591 15.3131 278.592 15.5184 279.612C15.7236 280.633 16.3813 281.483 17.4914 282.162C18.6014 282.841 19.7116 283.085 20.8218 282.894C21.9632 282.697 22.9175 282.1 23.6846 281.102C23.8277 280.916 24.0084 280.89 24.2267 281.023L26.6601 282.661C26.7511 282.717 26.8044 282.787 26.8199 282.871C26.8537 282.966 26.8446 283.047 26.7926 283.115C25.9084 284.265 24.8462 285.107 23.606 285.642C22.3787 286.159 21.0644 286.337 19.663 286.176C18.2617 286.015 16.8877 285.523 15.541 284.699ZM51.913 280.541C52.004 280.597 52.0507 280.675 52.0533 280.776C52.0871 280.871 52.0715 280.961 52.0065 281.046L50.5047 282.999C50.4397 283.084 50.3448 283.138 50.22 283.161C50.1264 283.178 50.0341 283.159 49.9431 283.103L44.9204 280.031C44.8294 279.975 44.7514 279.989 44.6864 280.074L33.3354 294.839C33.2704 294.923 33.1755 294.977 33.0507 295C32.9571 295.018 32.8648 294.999 32.7738 294.943L30.2624 293.407C30.1714 293.351 30.1091 293.276 30.0753 293.18C30.0727 293.079 30.1039 292.986 30.1689 292.902L41.52 278.137C41.585 278.052 41.572 277.982 41.481 277.926L36.6494 274.971C36.5584 274.915 36.496 274.84 36.4622 274.744C36.4596 274.643 36.4908 274.55 36.5559 274.466L38.0576 272.512C38.1226 272.428 38.2019 272.377 38.2955 272.36C38.4203 272.336 38.5282 272.353 38.6192 272.408L51.913 280.541ZM66.3594 292.661C66.2944 292.746 66.1994 292.799 66.0746 292.823C65.981 292.84 65.8887 292.821 65.7978 292.765L56.5167 287.087C56.4257 287.032 56.3477 287.046 56.2827 287.131L52.6356 291.875C52.5705 291.959 52.5835 292.029 52.6745 292.085L58.9256 295.909C59.0166 295.965 59.0634 296.043 59.0659 296.144C59.0997 296.24 59.0841 296.329 59.0191 296.414L57.5368 298.342C57.4718 298.427 57.3769 298.481 57.2521 298.504C57.1585 298.521 57.0662 298.502 56.9752 298.446L50.7242 294.622C50.6332 294.566 50.5552 294.581 50.4902 294.665L44.9122 301.921C44.8472 302.006 44.7522 302.06 44.6274 302.083C44.5338 302.1 44.4415 302.081 44.3506 302.025L41.8392 300.489C41.7482 300.433 41.6858 300.358 41.652 300.262C41.6495 300.161 41.6807 300.069 41.7457 299.984L54.9301 282.834C54.9951 282.75 55.0744 282.699 55.168 282.681C55.2928 282.658 55.4007 282.674 55.4917 282.73L67.7481 290.228C67.8391 290.284 67.8859 290.362 67.8885 290.463C67.9223 290.558 67.9066 290.648 67.8416 290.733L66.3594 292.661ZM68.5893 317.152C67.2244 316.317 66.2118 315.337 65.5516 314.212C64.9044 313.07 64.6433 311.878 64.7683 310.636C64.8932 309.395 65.4108 308.182 66.321 306.998L71.1383 300.732C72.0485 299.548 73.1302 298.681 74.3835 298.129C75.6368 297.578 76.9706 297.374 78.3849 297.519C79.7993 297.663 81.1889 298.152 82.5538 298.987C83.9004 299.811 84.9104 300.777 85.5836 301.885C86.2568 302.993 86.5439 304.151 86.445 305.359C86.346 306.566 85.8609 307.737 84.9898 308.87C84.9248 308.955 84.8299 309.008 84.7051 309.032C84.6114 309.049 84.5192 309.03 84.4282 308.974L81.8193 307.565C81.6009 307.431 81.5632 307.271 81.7063 307.085C82.4734 306.087 82.7544 305.078 82.5491 304.057C82.3621 303.048 81.7135 302.203 80.6034 301.524C79.4933 300.845 78.3676 300.604 77.2262 300.801C76.0847 300.998 75.1305 301.595 74.3633 302.593L69.3899 309.062C68.6358 310.043 68.3614 311.044 68.5666 312.065C68.7719 313.086 69.4295 313.936 70.5396 314.615C71.6497 315.294 72.7598 315.538 73.8701 315.347C75.0115 315.15 75.9657 314.552 76.7329 313.554C76.8759 313.368 77.0566 313.342 77.275 313.476L79.7083 315.114C79.7993 315.169 79.8526 315.239 79.8682 315.323C79.902 315.419 79.8929 315.5 79.8408 315.568C78.9567 316.718 77.8945 317.56 76.6542 318.094C75.4269 318.612 74.1126 318.79 72.7113 318.629C71.3099 318.468 69.9359 317.976 68.5893 317.152ZM104.961 312.993C105.052 313.049 105.099 313.127 105.102 313.228C105.135 313.324 105.12 313.414 105.055 313.498L103.553 315.452C103.488 315.536 103.393 315.59 103.268 315.613C103.175 315.631 103.082 315.611 102.991 315.556L97.9687 312.483C97.8777 312.427 97.7997 312.442 97.7347 312.526L86.3836 327.292C86.3186 327.376 86.2237 327.43 86.0989 327.453C86.0053 327.47 85.913 327.451 85.822 327.396L83.3107 325.859C83.2197 325.804 83.1573 325.728 83.1235 325.633C83.1209 325.532 83.1521 325.439 83.2171 325.354L94.5682 310.589C94.6332 310.505 94.6202 310.435 94.5292 310.379L89.6976 307.423C89.6066 307.368 89.5442 307.292 89.5105 307.197C89.5079 307.096 89.5391 307.003 89.6041 306.918L91.1059 304.965C91.1709 304.88 91.2502 304.829 91.3438 304.812C91.4686 304.789 91.5765 304.805 91.6675 304.861L104.961 312.993ZM119.408 325.114C119.343 325.198 119.248 325.252 119.123 325.275C119.029 325.292 118.937 325.273 118.846 325.218L109.565 319.54C109.474 319.484 109.396 319.499 109.331 319.583L105.684 324.327C105.619 324.412 105.632 324.482 105.723 324.538L111.974 328.362C112.065 328.417 112.112 328.496 112.114 328.597C112.148 328.692 112.132 328.782 112.067 328.867L110.585 330.795C110.52 330.879 110.425 330.933 110.3 330.956C110.207 330.974 110.114 330.954 110.023 330.899L103.772 327.075C103.681 327.019 103.603 327.033 103.538 327.118L97.9604 334.374C97.8954 334.458 97.8005 334.512 97.6757 334.535C97.5821 334.553 97.4898 334.533 97.3988 334.478L94.8875 332.941C94.7965 332.886 94.7341 332.81 94.7003 332.715C94.6977 332.614 94.7289 332.521 94.7939 332.437L107.978 315.287C108.043 315.202 108.123 315.151 108.216 315.134C108.341 315.111 108.449 315.127 108.54 315.183L120.796 322.681C120.887 322.736 120.934 322.815 120.937 322.916C120.97 323.011 120.955 323.101 120.89 323.185L119.408 325.114ZM121.637 349.604C120.273 348.769 119.26 347.789 118.6 346.664C117.953 345.522 117.692 344.331 117.817 343.089C117.941 341.848 118.459 340.635 119.369 339.451L124.187 333.185C125.097 332.001 126.178 331.133 127.432 330.582C128.685 330.031 130.019 329.827 131.433 329.971C132.848 330.115 134.237 330.605 135.602 331.44C136.949 332.264 137.959 333.23 138.632 334.338C139.305 335.446 139.592 336.604 139.493 337.811C139.394 339.019 138.909 340.189 138.038 341.323C137.973 341.407 137.878 341.461 137.753 341.484C137.66 341.502 137.567 341.482 137.476 341.427L134.868 340.017C134.649 339.884 134.611 339.724 134.755 339.538C135.522 338.54 135.803 337.531 135.597 336.51C135.41 335.5 134.762 334.656 133.652 333.977C132.542 333.298 131.416 333.056 130.274 333.253C129.133 333.45 128.179 334.048 127.412 335.046L122.438 341.515C121.684 342.496 121.41 343.497 121.615 344.518C121.82 345.538 122.478 346.388 123.588 347.067C124.698 347.746 125.808 347.99 126.918 347.799C128.06 347.602 129.014 347.005 129.781 346.007C129.924 345.821 130.105 345.795 130.323 345.928L132.757 347.566C132.848 347.622 132.901 347.692 132.916 347.776C132.95 347.871 132.941 347.953 132.889 348.02C132.005 349.17 130.943 350.013 129.702 350.547C128.475 351.064 127.161 351.243 125.76 351.082C124.358 350.921 122.984 350.428 121.637 349.604ZM158.009 345.446C158.1 345.502 158.147 345.58 158.15 345.681C158.184 345.776 158.168 345.866 158.103 345.951L156.601 347.904C156.536 347.989 156.441 348.043 156.316 348.066C156.223 348.083 156.131 348.064 156.04 348.008L151.017 344.936C150.926 344.88 150.848 344.894 150.783 344.979L139.432 359.744C139.367 359.829 139.272 359.882 139.147 359.906C139.054 359.923 138.961 359.904 138.87 359.848L136.359 358.312C136.268 358.256 136.206 358.181 136.172 358.085C136.169 357.984 136.2 357.892 136.265 357.807L147.616 343.042C147.681 342.957 147.668 342.887 147.577 342.832L142.746 339.876C142.655 339.82 142.592 339.745 142.559 339.649C142.556 339.548 142.587 339.456 142.652 339.371L144.154 337.418C144.219 337.333 144.298 337.282 144.392 337.265C144.517 337.242 144.625 337.258 144.716 337.313L158.009 345.446ZM172.456 357.566C172.391 357.651 172.296 357.705 172.171 357.728C172.078 357.745 171.985 357.726 171.894 357.67L162.613 351.992C162.522 351.937 162.444 351.951 162.379 352.036L158.732 356.78C158.667 356.864 158.68 356.935 158.771 356.99L165.022 360.814C165.113 360.87 165.16 360.948 165.162 361.049C165.196 361.145 165.181 361.235 165.116 361.319L163.633 363.247C163.568 363.332 163.473 363.386 163.349 363.409C163.255 363.426 163.163 363.407 163.072 363.351L156.821 359.527C156.73 359.472 156.652 359.486 156.587 359.571L151.009 366.826C150.944 366.911 150.849 366.965 150.724 366.988C150.63 367.005 150.538 366.986 150.447 366.93L147.936 365.394C147.845 365.338 147.782 365.263 147.749 365.168C147.746 365.067 147.777 364.974 147.842 364.889L161.027 347.739C161.092 347.655 161.171 347.604 161.264 347.586C161.389 347.563 161.497 347.58 161.588 347.635L173.845 355.133C173.936 355.189 173.982 355.267 173.985 355.368C174.019 355.464 174.003 355.553 173.938 355.638L172.456 357.566ZM174.686 382.057C173.321 381.222 172.308 380.242 171.648 379.117C171.001 377.975 170.74 376.783 170.865 375.542C170.99 374.3 171.507 373.087 172.417 371.904L177.235 365.637C178.145 364.453 179.227 363.586 180.48 363.034C181.733 362.483 183.067 362.28 184.481 362.424C185.896 362.568 187.285 363.057 188.65 363.892C189.997 364.716 191.007 365.682 191.68 366.79C192.353 367.898 192.64 369.056 192.541 370.264C192.442 371.472 191.957 372.642 191.086 373.775C191.021 373.86 190.926 373.914 190.802 373.937C190.708 373.954 190.616 373.935 190.525 373.879L187.916 372.47C187.697 372.336 187.66 372.176 187.803 371.99C188.57 370.992 188.851 369.983 188.646 368.962C188.459 367.953 187.81 367.108 186.7 366.429C185.59 365.75 184.464 365.509 183.323 365.706C182.181 365.903 181.227 366.5 180.46 367.498L175.486 373.967C174.732 374.948 174.458 375.949 174.663 376.97C174.868 377.991 175.526 378.841 176.636 379.52C177.746 380.199 178.856 380.443 179.967 380.252C181.108 380.055 182.062 379.457 182.829 378.46C182.972 378.274 183.153 378.247 183.371 378.381L185.805 380.019C185.896 380.074 185.949 380.144 185.965 380.228C185.998 380.324 185.989 380.405 185.937 380.473C185.053 381.623 183.991 382.465 182.751 382.999C181.523 383.517 180.209 383.695 178.808 383.534C177.406 383.373 176.032 382.881 174.686 382.057ZM211.058 377.899C211.149 377.954 211.195 378.033 211.198 378.134C211.232 378.229 211.216 378.319 211.151 378.403L209.649 380.357C209.584 380.441 209.49 380.495 209.365 380.518C209.271 380.536 209.179 380.517 209.088 380.461L204.065 377.388C203.974 377.333 203.896 377.347 203.831 377.432L192.48 392.197C192.415 392.281 192.32 392.335 192.195 392.358C192.102 392.376 192.009 392.356 191.918 392.301L189.407 390.764C189.316 390.709 189.254 390.633 189.22 390.538C189.217 390.437 189.249 390.344 189.314 390.26L200.665 375.494C200.73 375.41 200.717 375.34 200.626 375.284L195.794 372.328C195.703 372.273 195.641 372.197 195.607 372.102C195.604 372.001 195.636 371.908 195.701 371.824L197.202 369.87C197.267 369.786 197.347 369.735 197.44 369.717C197.565 369.694 197.673 369.71 197.764 369.766L211.058 377.899ZM225.504 390.019C225.439 390.103 225.344 390.157 225.219 390.18C225.126 390.198 225.033 390.178 224.942 390.123L215.661 384.445C215.57 384.389 215.492 384.404 215.427 384.488L211.78 389.232C211.715 389.317 211.728 389.387 211.819 389.443L218.07 393.267C218.161 393.323 218.208 393.401 218.211 393.502C218.244 393.597 218.229 393.687 218.164 393.772L216.682 395.7C216.617 395.784 216.522 395.838 216.397 395.861C216.303 395.879 216.211 395.86 216.12 395.804L209.869 391.98C209.778 391.924 209.7 391.939 209.635 392.023L204.057 399.279C203.992 399.363 203.897 399.417 203.772 399.44C203.679 399.458 203.586 399.439 203.495 399.383L200.984 397.847C200.893 397.791 200.831 397.715 200.797 397.62C200.794 397.519 200.825 397.426 200.89 397.342L214.075 380.192C214.14 380.107 214.219 380.056 214.313 380.039C214.437 380.016 214.545 380.032 214.636 380.088L226.893 387.586C226.984 387.641 227.031 387.72 227.033 387.821C227.067 387.916 227.051 388.006 226.986 388.091L225.504 390.019ZM227.734 414.509C226.369 413.674 225.357 412.694 224.696 411.569C224.049 410.427 223.788 409.236 223.913 407.994C224.038 406.753 224.556 405.54 225.466 404.356L230.283 398.09C231.193 396.906 232.275 396.038 233.528 395.487C234.781 394.936 236.115 394.732 237.53 394.876C238.944 395.02 240.334 395.51 241.698 396.345C243.045 397.169 244.055 398.135 244.728 399.243C245.402 400.351 245.689 401.509 245.59 402.717C245.491 403.924 245.006 405.095 244.134 406.228C244.069 406.312 243.975 406.366 243.85 406.389C243.756 406.407 243.664 406.388 243.573 406.332L240.964 404.922C240.746 404.789 240.708 404.629 240.851 404.443C241.618 403.445 241.899 402.436 241.694 401.415C241.507 400.405 240.858 399.561 239.748 398.882C238.638 398.203 237.512 397.962 236.371 398.159C235.229 398.356 234.275 398.953 233.508 399.951L228.535 406.42C227.781 407.401 227.506 408.402 227.711 409.423C227.917 410.443 228.574 411.293 229.684 411.972C230.794 412.652 231.905 412.896 233.015 412.704C234.156 412.507 235.11 411.91 235.878 410.912C236.021 410.726 236.201 410.7 236.42 410.833L238.853 412.471C238.944 412.527 238.997 412.597 239.013 412.681C239.047 412.776 239.038 412.858 238.986 412.925C238.101 414.075 237.039 414.918 235.799 415.452C234.572 415.969 233.257 416.148 231.856 415.987C230.455 415.826 229.081 415.333 227.734 414.509ZM264.106 410.351C264.197 410.407 264.244 410.485 264.246 410.586C264.28 410.681 264.264 410.771 264.199 410.856L262.698 412.809C262.633 412.894 262.538 412.948 262.413 412.971C262.319 412.988 262.227 412.969 262.136 412.913L257.113 409.841C257.022 409.785 256.944 409.8 256.879 409.884L245.528 424.649C245.463 424.734 245.368 424.788 245.244 424.811C245.15 424.828 245.058 424.809 244.967 424.753L242.455 423.217C242.364 423.161 242.302 423.086 242.268 422.991C242.266 422.889 242.297 422.797 242.362 422.712L253.713 407.947C253.778 407.862 253.765 407.792 253.674 407.737L248.842 404.781C248.751 404.725 248.689 404.65 248.655 404.555C248.653 404.453 248.684 404.361 248.749 404.276L250.251 402.323C250.316 402.238 250.395 402.187 250.489 402.17C250.613 402.147 250.721 402.163 250.812 402.219L264.106 410.351ZM278.552 422.471C278.487 422.556 278.392 422.61 278.268 422.633C278.174 422.65 278.082 422.631 277.991 422.575L268.71 416.898C268.619 416.842 268.541 416.856 268.476 416.941L264.829 421.685C264.763 421.77 264.776 421.84 264.867 421.895L271.119 425.72C271.21 425.775 271.256 425.854 271.259 425.955C271.293 426.05 271.277 426.14 271.212 426.224L269.73 428.152C269.665 428.237 269.57 428.291 269.445 428.314C269.351 428.331 269.259 428.312 269.168 428.256L262.917 424.432C262.826 424.377 262.748 424.391 262.683 424.476L257.105 431.731C257.04 431.816 256.945 431.87 256.82 431.893C256.727 431.91 256.634 431.891 256.544 431.835L254.032 430.299C253.941 430.243 253.879 430.168 253.845 430.073C253.842 429.972 253.874 429.879 253.939 429.794L267.123 412.644C267.188 412.56 267.267 412.509 267.361 412.492C267.486 412.468 267.594 412.485 267.685 412.54L279.941 420.038C280.032 420.094 280.079 420.172 280.081 420.273C280.115 420.369 280.1 420.459 280.035 420.543L278.552 422.471ZM280.782 446.962C279.417 446.127 278.405 445.147 277.745 444.022C277.097 442.88 276.836 441.688 276.961 440.447C277.086 439.205 277.604 437.993 278.514 436.809L283.331 430.542C284.241 429.358 285.323 428.491 286.576 427.94C287.83 427.388 289.164 427.185 290.578 427.329C291.992 427.473 293.382 427.962 294.747 428.797C296.093 429.621 297.103 430.587 297.777 431.695C298.45 432.803 298.737 433.961 298.638 435.169C298.539 436.377 298.054 437.547 297.183 438.68C297.118 438.765 297.023 438.819 296.898 438.842C296.804 438.859 296.712 438.84 296.621 438.784L294.012 437.375C293.794 437.241 293.756 437.082 293.899 436.895C294.666 435.898 294.947 434.888 294.742 433.867C294.555 432.858 293.906 432.013 292.796 431.334C291.686 430.655 290.561 430.414 289.419 430.611C288.278 430.808 287.323 431.406 286.556 432.403L281.583 438.873C280.829 439.854 280.554 440.854 280.76 441.875C280.965 442.896 281.622 443.746 282.733 444.425C283.843 445.104 284.953 445.348 286.063 445.157C287.204 444.96 288.159 444.363 288.926 443.365C289.069 443.179 289.25 443.152 289.468 443.286L291.901 444.924C291.992 444.98 292.046 445.049 292.061 445.134C292.095 445.229 292.086 445.31 292.034 445.378C291.15 446.528 290.087 447.37 288.847 447.905C287.62 448.422 286.306 448.6 284.904 448.439C283.503 448.278 282.129 447.786 280.782 446.962ZM317.154 442.804C317.245 442.859 317.292 442.938 317.295 443.039C317.328 443.134 317.313 443.224 317.248 443.309L315.746 445.262C315.681 445.347 315.586 445.4 315.461 445.424C315.368 445.441 315.275 445.422 315.184 445.366L310.162 442.293C310.071 442.238 309.993 442.252 309.928 442.337L298.577 457.102C298.512 457.186 298.417 457.24 298.292 457.263C298.198 457.281 298.106 457.262 298.015 457.206L295.504 455.67C295.413 455.614 295.35 455.538 295.316 455.443C295.314 455.342 295.345 455.249 295.41 455.165L306.761 440.4C306.826 440.315 306.813 440.245 306.722 440.189L301.891 437.234C301.8 437.178 301.737 437.102 301.703 437.007C301.701 436.906 301.732 436.813 301.797 436.729L303.299 434.775C303.364 434.691 303.443 434.64 303.537 434.622C303.662 434.599 303.769 434.616 303.86 434.671L317.154 442.804ZM331.601 454.924C331.536 455.008 331.441 455.062 331.316 455.085C331.222 455.103 331.13 455.084 331.039 455.028L321.758 449.35C321.667 449.295 321.589 449.309 321.524 449.394L317.877 454.138C317.812 454.222 317.825 454.292 317.916 454.348L324.167 458.172C324.258 458.228 324.305 458.306 324.307 458.407C324.341 458.502 324.325 458.592 324.26 458.677L322.778 460.605C322.713 460.69 322.618 460.743 322.493 460.767C322.4 460.784 322.307 460.765 322.216 460.709L315.965 456.885C315.874 456.829 315.796 456.844 315.731 456.928L310.153 464.184C310.088 464.269 309.993 464.322 309.869 464.345C309.775 464.363 309.683 464.344 309.592 464.288L307.08 462.752C306.989 462.696 306.927 462.621 306.893 462.525C306.891 462.424 306.922 462.331 306.987 462.247L320.171 445.097C320.236 445.012 320.316 444.962 320.409 444.944C320.534 444.921 320.642 444.937 320.733 444.993L332.989 452.491C333.08 452.547 333.127 452.625 333.13 452.726C333.163 452.821 333.148 452.911 333.083 452.996L331.601 454.924ZM333.83 479.415C332.466 478.58 331.453 477.6 330.793 476.475C330.146 475.333 329.884 474.141 330.009 472.899C330.134 471.658 330.652 470.445 331.562 469.261L336.38 462.995C337.29 461.811 338.371 460.943 339.625 460.392C340.878 459.841 342.212 459.637 343.626 459.781C345.04 459.926 346.43 460.415 347.795 461.25C349.142 462.074 350.152 463.04 350.825 464.148C351.498 465.256 351.785 466.414 351.686 467.622C351.587 468.829 351.102 470 350.231 471.133C350.166 471.218 350.071 471.271 349.946 471.294C349.853 471.312 349.76 471.293 349.669 471.237L347.06 469.828C346.842 469.694 346.804 469.534 346.947 469.348C347.715 468.35 347.996 467.341 347.79 466.32C347.603 465.31 346.955 464.466 345.845 463.787C344.735 463.108 343.609 462.867 342.467 463.064C341.326 463.261 340.372 463.858 339.605 464.856L334.631 471.325C333.877 472.306 333.603 473.307 333.808 474.328C334.013 475.349 334.671 476.199 335.781 476.878C336.891 477.557 338.001 477.801 339.111 477.61C340.253 477.413 341.207 476.815 341.974 475.817C342.117 475.631 342.298 475.605 342.516 475.739L344.95 477.376C345.04 477.432 345.094 477.502 345.109 477.586C345.143 477.681 345.134 477.763 345.082 477.83C344.198 478.981 343.136 479.823 341.895 480.357C340.668 480.875 339.354 481.053 337.952 480.892C336.551 480.731 335.177 480.238 333.83 479.415ZM370.202 475.256C370.293 475.312 370.34 475.39 370.343 475.491C370.377 475.587 370.361 475.677 370.296 475.761L368.794 477.715C368.729 477.799 368.634 477.853 368.509 477.876C368.416 477.893 368.324 477.874 368.233 477.819L363.21 474.746C363.119 474.69 363.041 474.705 362.976 474.789L351.625 489.554C351.56 489.639 351.465 489.693 351.34 489.716C351.246 489.733 351.154 489.714 351.063 489.658L348.552 488.122C348.461 488.066 348.398 487.991 348.365 487.896C348.362 487.795 348.393 487.702 348.458 487.617L359.809 472.852C359.874 472.768 359.861 472.698 359.77 472.642L354.939 469.686C354.848 469.63 354.785 469.555 354.752 469.46C354.749 469.359 354.78 469.266 354.845 469.181L356.347 467.228C356.412 467.143 356.491 467.092 356.585 467.075C356.71 467.052 356.818 467.068 356.909 467.124L370.202 475.256ZM384.649 487.376C384.584 487.461 384.489 487.515 384.364 487.538C384.27 487.555 384.178 487.536 384.087 487.48L374.806 481.803C374.715 481.747 374.637 481.762 374.572 481.846L370.925 486.59C370.86 486.675 370.873 486.745 370.964 486.801L377.215 490.625C377.306 490.68 377.353 490.759 377.355 490.86C377.389 490.955 377.374 491.045 377.309 491.129L375.826 493.058C375.761 493.142 375.666 493.196 375.542 493.219C375.448 493.236 375.356 493.217 375.265 493.162L369.014 489.337C368.923 489.282 368.845 489.296 368.78 489.381L363.202 496.637C363.137 496.721 363.042 496.775 362.917 496.798C362.823 496.815 362.731 496.796 362.64 496.741L360.129 495.204C360.038 495.149 359.975 495.073 359.941 494.978C359.939 494.877 359.97 494.784 360.035 494.699L373.219 477.55C373.285 477.465 373.364 477.414 373.457 477.397C373.582 477.374 373.69 477.39 373.781 477.446L386.038 484.944C386.129 484.999 386.175 485.078 386.178 485.179C386.212 485.274 386.196 485.364 386.131 485.448L384.649 487.376Z" fill="black"/>
</svg>
