<svg width="16" height="17" viewBox="0 0 16 17" fill="none" xmlns="http://www.w3.org/2000/svg">
<path fill-rule="evenodd" clip-rule="evenodd" d="M3.33594 4.50033H12.6693C12.9268 4.50033 13.1502 4.6463 13.2612 4.86002L8.37241 8.11922C8.14848 8.26851 7.85675 8.26851 7.63281 8.11922L2.744 4.86001C2.85506 4.6463 3.07845 4.50033 3.33594 4.50033ZM2.66927 6.41266V11.8337C2.66927 12.2018 2.96775 12.5003 3.33594 12.5003H12.6693C13.0375 12.5003 13.3359 12.2018 13.3359 11.8337V6.41267L9.11201 9.22862C8.44021 9.67648 7.56501 9.67648 6.89321 9.22862L2.66927 6.41266ZM1.33594 5.16699C1.33594 4.06242 2.23137 3.16699 3.33594 3.16699H12.6693C13.7738 3.16699 14.6693 4.06242 14.6693 5.16699V11.8337C14.6693 12.9382 13.7738 13.8337 12.6693 13.8337H3.33594C2.23137 13.8337 1.33594 12.9382 1.33594 11.8337V5.16699Z" fill="white"/>
</svg>
