<svg width="309" height="62" viewBox="0 0 309 62" fill="none" xmlns="http://www.w3.org/2000/svg">
<g clip-path="url(#clip0_713_12385)">
<mask id="mask0_713_12385" style="mask-type:luminance" maskUnits="userSpaceOnUse" x="0" y="0" width="309" height="62">
<path d="M308.367 0.5H0.367188V61.5H308.367V0.5Z" fill="white"/>
</mask>
<g mask="url(#mask0_713_12385)">
<mask id="mask1_713_12385" style="mask-type:luminance" maskUnits="userSpaceOnUse" x="0" y="0" width="352" height="62">
<path d="M351.684 0.5H0.367188V61.5H351.684V0.5Z" fill="white"/>
</mask>
<g mask="url(#mask1_713_12385)">
<mask id="mask2_713_12385" style="mask-type:luminance" maskUnits="userSpaceOnUse" x="0" y="5" width="319" height="54">
<path d="M318.822 5.72852H0.367188V58.0117H318.822V5.72852Z" fill="white"/>
</mask>
<g mask="url(#mask2_713_12385)">
<path d="M53.1719 58.0117H56.9154V5.72852H53.1719V58.0117Z" fill="#FF7102"/>
<path d="M13.1009 24.5493H1.4964C1.28006 24.5483 1.06797 24.6093 0.885643 24.7256C0.703316 24.8418 0.558515 25.0079 0.468648 25.2042C0.378783 25.4004 0.347679 25.6183 0.379077 25.8318C0.410476 26.0453 0.50304 26.245 0.645637 26.4073L8.30253 35.1241C8.42688 35.2667 8.58513 35.3764 8.76283 35.4426C8.94051 35.5086 9.13201 35.5295 9.31981 35.503C9.50764 35.4765 9.68578 35.4032 9.838 35.2906C9.9902 35.1775 10.1117 35.0286 10.1912 34.8569L10.6847 33.7752L31.7411 43.3444L33.5831 44.1928C34.0531 44.4132 34.4711 44.7309 34.809 45.1241C35.1471 45.5175 35.3976 45.9779 35.5441 46.4747C35.7342 47.1197 35.7395 47.805 35.5592 48.4528C35.3787 49.1006 35.0198 49.6849 34.5232 50.1397C34.5232 50.1397 38.224 46.7462 40.2785 44.9054C40.657 44.564 40.9485 44.1381 41.1294 43.6624C41.5255 42.7923 41.5588 41.8008 41.2223 40.9061C40.8857 40.0114 40.2066 39.2863 39.3341 38.8906L13.6539 27.2218L14.1431 26.1443C14.2206 25.9713 14.2534 25.7819 14.2385 25.5932C14.2236 25.4044 14.1615 25.2224 14.0578 25.0637C13.9541 24.9051 13.8122 24.7749 13.6451 24.6849C13.4779 24.5953 13.2908 24.5485 13.1009 24.5493Z" fill="#FF7102"/>
<path d="M13.0995 5.80421H1.495C1.27863 5.80409 1.0668 5.86609 0.884804 5.98278C0.702807 6.09946 0.558333 6.26591 0.46863 6.46226C0.378926 6.65859 0.347784 6.87652 0.378922 7.09004C0.41006 7.30354 0.50216 7.50358 0.644228 7.66632L8.30112 16.3787C8.42549 16.5216 8.58372 16.6311 8.76142 16.6973C8.93911 16.7635 9.13061 16.7842 9.31842 16.7577C9.50624 16.7311 9.68438 16.658 9.8366 16.5451C9.98882 16.4323 10.1103 16.2832 10.1898 16.1115L10.6833 15.0341L31.7227 24.6289L33.5646 25.4771C34.0343 25.6985 34.4516 26.0161 34.7897 26.4094C35.1275 26.8026 35.3783 27.2626 35.5257 27.7592C35.716 28.404 35.7213 29.0895 35.5408 29.7373C35.3603 30.3851 35.0012 30.9694 34.5048 31.424C34.5048 31.424 38.2056 28.0305 40.2602 26.1899C40.6394 25.8491 40.9311 25.4232 41.111 24.9469C41.5071 24.0768 41.5406 23.0851 41.2039 22.1904C40.8672 21.2957 40.1882 20.5708 39.3159 20.175L13.6524 8.48071L14.1416 7.39909C14.2192 7.22622 14.252 7.03673 14.2371 6.84794C14.2222 6.65915 14.1601 6.47709 14.0564 6.31845C13.9527 6.15979 13.8108 6.02958 13.6437 5.93975C13.4765 5.84992 13.2894 5.80331 13.0995 5.80421Z" fill="#FF7102"/>
<path opacity="0.5" d="M24.5614 57.9394C23.8325 57.9394 23.1209 57.7198 22.5195 57.3095C21.9177 56.8993 21.4548 56.3172 21.1909 55.6398C20.9268 54.9625 20.8744 54.2215 21.0401 53.514C21.2058 52.806 21.5821 52.1649 22.1198 51.6744L35.3661 39.5769C35.7164 39.2569 36.1264 39.0089 36.5728 38.8468C37.0192 38.6849 37.4932 38.612 37.9679 38.6329C38.4425 38.6536 38.9084 38.7672 39.3389 38.9676C39.7694 39.1677 40.1563 39.4503 40.4771 39.7996C40.7981 40.1489 41.0468 40.5577 41.2093 41.0029C41.3718 41.4481 41.4449 41.9208 41.4239 42.394C41.4032 42.8674 41.2893 43.3318 41.0885 43.7613C40.8877 44.1904 40.604 44.5762 40.2539 44.896L27.0074 56.9933C26.3395 57.6026 25.4668 57.94 24.5614 57.9394Z" fill="#FF7102"/>
<path opacity="0.5" d="M4.03802 57.9395C3.30925 57.9395 2.59746 57.72 1.99598 57.3097C1.39451 56.8994 0.931417 56.3174 0.667431 55.6401C0.403445 54.9626 0.350886 54.2217 0.516646 53.5139C0.682404 52.8063 1.05875 52.1652 1.59632 51.6745L35.3889 20.812C36.1008 20.1918 37.0279 19.874 37.972 19.9265C38.9159 19.979 39.802 20.3978 40.4402 21.093C41.0788 21.7885 41.4191 22.7051 41.3885 23.6475C41.3577 24.5897 40.9586 25.4825 40.2765 26.1353L6.47972 56.9936C5.81322 57.6026 4.94196 57.9399 4.03802 57.9395Z" fill="#FF7102"/>
</g>
<path d="M82.7842 40.7754C80.2771 40.7754 78.3274 40.3058 76.9345 39.3668C75.542 38.4275 74.5809 37.0899 74.0518 35.3539C73.5225 33.6181 73.2578 31.5406 73.2578 29.1215V5.72852H79.2744V29.8472C79.2744 30.9287 79.3441 31.9532 79.4833 32.9208C79.6226 33.86 79.9429 34.6282 80.4442 35.2261C80.9735 35.7951 81.7537 36.0796 82.7842 36.0796C83.8705 36.0796 84.6505 35.7951 85.1241 35.2261C85.6253 34.6282 85.9457 33.86 86.0849 32.9208C86.252 31.9532 86.3356 30.9287 86.3356 29.8472V5.72852H92.3107V29.1215C92.3107 31.5406 92.046 33.6181 91.5167 35.3539C90.9876 37.0899 90.0265 38.4275 88.6337 39.3668C87.2688 40.3058 85.319 40.7754 82.7842 40.7754Z" fill="white"/>
<path d="M98.0469 40.3059V15.6322H103.729V18.1081C104.593 17.2544 105.498 16.5714 106.445 16.0591C107.42 15.5184 108.465 15.248 109.579 15.248C110.582 15.248 111.375 15.5042 111.96 16.0164C112.545 16.5002 112.977 17.1548 113.256 17.98C113.534 18.8055 113.673 19.7018 113.673 20.6694V40.3059H107.991V21.8221C107.991 21.0821 107.88 20.5129 107.657 20.1145C107.434 19.7161 107.002 19.5169 106.362 19.5169C105.972 19.5169 105.54 19.6307 105.066 19.8583C104.621 20.0861 104.175 20.3705 103.729 20.7121V40.3059H98.0469Z" fill="white"/>
<path d="M124.522 40.69C122.599 40.69 121.137 39.9926 120.134 38.5982C119.159 37.2038 118.672 34.9697 118.672 31.8963V24.3405C118.672 22.6329 118.853 21.0961 119.215 19.7301C119.605 18.3642 120.218 17.2827 121.054 16.4859C121.889 15.6606 123.017 15.2479 124.438 15.2479C125.301 15.2479 126.095 15.4329 126.82 15.8029C127.571 16.1444 128.254 16.5997 128.867 17.1689V5.72852H134.549V40.3058H128.867V38.5556C128.226 39.2103 127.544 39.7367 126.82 40.1351C126.095 40.5049 125.329 40.69 124.522 40.69ZM126.611 36.6773C126.917 36.6773 127.265 36.6061 127.655 36.464C128.045 36.3216 128.449 36.1223 128.867 35.8662V20.029C128.533 19.8014 128.17 19.6163 127.781 19.4741C127.391 19.3033 126.987 19.2179 126.569 19.2179C125.761 19.2179 125.19 19.6022 124.856 20.3704C124.549 21.1104 124.396 22.021 124.396 23.1025V32.3231C124.396 33.1485 124.452 33.8885 124.563 34.543C124.675 35.1975 124.884 35.7239 125.19 36.1223C125.524 36.4924 125.998 36.6773 126.611 36.6773Z" fill="white"/>
<path d="M147.404 40.6901C145.593 40.6901 144.117 40.3485 142.975 39.6656C141.833 38.9541 140.984 37.9296 140.427 36.592C139.897 35.2262 139.633 33.5896 139.633 31.683V24.2552C139.633 22.2915 139.897 20.641 140.427 19.3034C140.984 17.9659 141.833 16.9556 142.975 16.2726C144.145 15.5895 145.622 15.248 147.404 15.248C149.326 15.248 150.817 15.618 151.875 16.3579C152.961 17.0979 153.727 18.1792 154.173 19.6023C154.647 20.9967 154.883 22.7043 154.883 24.7248V28.2252H145.273V33.0916C145.273 33.8886 145.343 34.5431 145.482 35.0553C145.649 35.5675 145.9 35.9375 146.234 36.1652C146.569 36.3927 146.972 36.5065 147.446 36.5065C147.947 36.5065 148.351 36.3927 148.658 36.1652C148.964 35.9091 149.187 35.5533 149.326 35.0981C149.465 34.6143 149.535 34.0166 149.535 33.3051V31.2562H154.841V32.9209C154.841 35.4253 154.229 37.3461 153.003 38.6837C151.777 40.0212 149.911 40.6901 147.404 40.6901ZM145.273 25.3651H149.535V23.0172C149.535 22.1636 149.465 21.4805 149.326 20.9682C149.187 20.4275 148.964 20.0434 148.658 19.8156C148.351 19.5596 147.92 19.4315 147.362 19.4315C146.861 19.4315 146.457 19.5596 146.151 19.8156C145.844 20.0718 145.622 20.4986 145.482 21.0963C145.343 21.6938 145.273 22.5478 145.273 23.6575V25.3651Z" fill="white"/>
<path d="M160.117 40.306V15.6323H165.799V19.4316C166.635 17.9801 167.471 16.9414 168.306 16.3153C169.142 15.6608 170.061 15.3335 171.064 15.3335C171.231 15.3335 171.37 15.3477 171.482 15.3762C171.621 15.3762 171.774 15.3904 171.942 15.4189V21.438C171.607 21.2956 171.231 21.1817 170.813 21.0963C170.423 20.9825 170.019 20.9257 169.602 20.9257C168.849 20.9257 168.167 21.1106 167.554 21.4806C166.941 21.8506 166.357 22.4624 165.799 23.3162V40.306H160.117Z" fill="white"/>
<path d="M176.352 40.3058V5.72852H184.332C187.091 5.72852 189.235 6.11271 190.768 6.88108C192.327 7.64947 193.428 8.83049 194.068 10.4242C194.737 12.0179 195.071 14.0384 195.071 16.4859V29.1215C195.071 31.626 194.737 33.7176 194.068 35.3967C193.428 37.0473 192.341 38.2853 190.81 39.1104C189.305 39.9074 187.23 40.3058 184.584 40.3058H176.352ZM182.536 35.9088H184.416C185.837 35.9088 186.855 35.6529 187.466 35.1406C188.08 34.6284 188.455 33.8885 188.595 32.9208C188.733 31.9248 188.803 30.7152 188.803 29.2924V16.059C188.803 14.6645 188.705 13.5404 188.511 12.6867C188.316 11.8329 187.912 11.2068 187.3 10.8084C186.687 10.41 185.697 10.2108 184.332 10.2108H182.536V35.9088Z" fill="white"/>
<path d="M207.802 40.6901C205.991 40.6901 204.516 40.3485 203.373 39.6656C202.232 38.9541 201.382 37.9296 200.825 36.592C200.295 35.2262 200.031 33.5896 200.031 31.683V24.2552C200.031 22.2915 200.295 20.641 200.825 19.3034C201.382 17.9659 202.232 16.9556 203.373 16.2726C204.544 15.5895 206.019 15.248 207.802 15.248C209.725 15.248 211.216 15.618 212.274 16.3579C213.36 17.0979 214.127 18.1792 214.571 19.6023C215.046 20.9967 215.28 22.7043 215.28 24.7248V28.2252H205.672V33.0916C205.672 33.8886 205.741 34.5431 205.881 35.0553C206.047 35.5675 206.299 35.9375 206.633 36.1652C206.967 36.3927 207.37 36.5065 207.844 36.5065C208.346 36.5065 208.75 36.3927 209.055 36.1652C209.363 35.9091 209.585 35.5533 209.725 35.0981C209.864 34.6143 209.933 34.0166 209.933 33.3051V31.2562H215.239V32.9209C215.239 35.4253 214.627 37.3461 213.402 38.6837C212.175 40.0212 210.31 40.6901 207.802 40.6901ZM205.672 25.3651H209.933V23.0172C209.933 22.1636 209.864 21.4805 209.725 20.9682C209.585 20.4275 209.363 20.0434 209.055 19.8156C208.75 19.5596 208.318 19.4315 207.76 19.4315C207.26 19.4315 206.855 19.5596 206.549 19.8156C206.243 20.0718 206.019 20.4986 205.881 21.0963C205.741 21.6938 205.672 22.5478 205.672 23.6575V25.3651Z" fill="white"/>
<path d="M221.559 40.3057V19.6875H218.969V15.632H221.559V14.0526C221.559 12.5727 221.684 11.2921 221.934 10.2107C222.212 9.10078 222.769 8.24701 223.604 7.64938C224.469 7.05175 225.763 6.75293 227.491 6.75293C228.02 6.75293 228.521 6.78138 228.996 6.83831C229.469 6.86676 229.999 6.92369 230.583 7.00905V11.3206C230.361 11.2636 230.097 11.2209 229.79 11.1925C229.511 11.1356 229.245 11.1071 228.996 11.1071C228.328 11.1071 227.867 11.3206 227.616 11.7474C227.367 12.1743 227.241 12.8004 227.241 13.6257V15.632H230.583V19.6875H227.241V40.3057H221.559Z" fill="white"/>
<path d="M241.645 40.6901C239.834 40.6901 238.36 40.3485 237.217 39.6656C236.076 38.9541 235.226 37.9296 234.669 36.592C234.139 35.2262 233.875 33.5896 233.875 31.683V24.2552C233.875 22.2915 234.139 20.641 234.669 19.3034C235.226 17.9659 236.076 16.9556 237.217 16.2726C238.387 15.5895 239.863 15.248 241.645 15.248C243.567 15.248 245.058 15.618 246.115 16.3579C247.204 17.0979 247.968 18.1792 248.414 19.6023C248.888 20.9967 249.124 22.7043 249.124 24.7248V28.2252H239.514V33.0916C239.514 33.8886 239.585 34.5431 239.725 35.0553C239.891 35.5675 240.142 35.9375 240.477 36.1652C240.81 36.3927 241.214 36.5065 241.687 36.5065C242.19 36.5065 242.592 36.3927 242.899 36.1652C243.205 35.9091 243.427 35.5533 243.567 35.0981C243.708 34.6143 243.777 34.0166 243.777 33.3051V31.2562H249.082V32.9209C249.082 35.4253 248.471 37.3461 247.246 38.6837C246.019 40.0212 244.154 40.6901 241.645 40.6901ZM239.514 25.3651H243.777V23.0172C243.777 22.1636 243.708 21.4805 243.567 20.9682C243.427 20.4275 243.205 20.0434 242.899 19.8156C242.592 19.5596 242.16 19.4315 241.603 19.4315C241.103 19.4315 240.699 19.5596 240.391 19.8156C240.085 20.0718 239.863 20.4986 239.725 21.0963C239.585 21.6938 239.514 22.5478 239.514 23.6575V25.3651Z" fill="white"/>
<path d="M254.234 40.3059V15.6322H259.917V18.1081C260.78 17.2544 261.684 16.5714 262.633 16.0591C263.606 15.5184 264.651 15.248 265.765 15.248C266.768 15.248 267.562 15.5042 268.148 16.0164C268.732 16.5002 269.163 17.1548 269.442 17.98C269.72 18.8055 269.861 19.7018 269.861 20.6694V40.3059H264.178V21.8221C264.178 21.0821 264.065 20.5129 263.843 20.1145C263.621 19.7161 263.188 19.5169 262.549 19.5169C262.159 19.5169 261.726 19.6307 261.253 19.8583C260.807 20.0861 260.363 20.3705 259.917 20.7121V40.3059H254.234Z" fill="white"/>
<path d="M281.835 40.6901C279.804 40.6901 278.134 40.1352 276.823 39.0253C275.514 37.9154 274.58 36.2933 274.023 34.1589L278.242 32.4941C278.577 33.8315 279.023 34.8562 279.58 35.5675C280.137 36.2791 280.862 36.6346 281.752 36.6346C282.422 36.6346 282.924 36.4641 283.257 36.1226C283.592 35.781 283.76 35.3114 283.76 34.7137C283.76 34.0306 283.55 33.4189 283.132 32.8781C282.742 32.309 282.059 31.6117 281.086 30.7865L278.159 28.268C277.101 27.3288 276.239 26.3753 275.569 25.4077C274.928 24.4116 274.61 23.1737 274.61 21.6938C274.61 20.3564 274.901 19.218 275.487 18.2789C276.098 17.3113 276.919 16.5714 277.951 16.0591C279.011 15.5184 280.179 15.248 281.461 15.248C283.412 15.248 284.97 15.8457 286.14 17.0409C287.338 18.2078 288.104 19.7445 288.437 21.6512L284.721 23.2735C284.58 22.5904 284.371 21.9643 284.093 21.3953C283.843 20.7975 283.508 20.3137 283.09 19.9437C282.671 19.5737 282.185 19.3888 281.628 19.3888C281.042 19.3888 280.569 19.5737 280.206 19.9437C279.874 20.3137 279.706 20.7832 279.706 21.3525C279.706 21.8363 279.901 22.3343 280.292 22.8465C280.709 23.3587 281.293 23.9422 282.047 24.5967L285.012 27.3288C285.652 27.898 286.266 28.5099 286.85 29.1642C287.434 29.8189 287.922 30.5588 288.312 31.3842C288.703 32.181 288.898 33.106 288.898 34.1589C288.898 35.5819 288.578 36.7771 287.937 37.7445C287.325 38.7122 286.475 39.4523 285.389 39.9643C284.329 40.4481 283.146 40.6901 281.835 40.6901Z" fill="white"/>
<path d="M300.567 40.6901C298.758 40.6901 297.28 40.3485 296.139 39.6656C294.997 38.9541 294.147 37.9296 293.59 36.592C293.061 35.2262 292.797 33.5896 292.797 31.683V24.2552C292.797 22.2915 293.061 20.641 293.59 19.3034C294.147 17.9659 294.997 16.9556 296.139 16.2726C297.309 15.5895 298.785 15.248 300.567 15.248C302.491 15.248 303.98 15.618 305.039 16.3579C306.124 17.0979 306.892 18.1792 307.336 19.6023C307.81 20.9967 308.046 22.7043 308.046 24.7248V28.2252H298.438V33.0916C298.438 33.8886 298.507 34.5431 298.645 35.0553C298.812 35.5675 299.064 35.9375 299.399 36.1652C299.732 36.3927 300.136 36.5065 300.609 36.5065C301.111 36.5065 301.516 36.3927 301.821 36.1652C302.127 35.9091 302.351 35.5533 302.491 35.0981C302.629 34.6143 302.699 34.0166 302.699 33.3051V31.2562H308.004V32.9209C308.004 35.4253 307.391 37.3461 306.166 38.6837C304.941 40.0212 303.073 40.6901 300.567 40.6901ZM298.438 25.3651H302.699V23.0172C302.699 22.1636 302.629 21.4805 302.491 20.9682C302.351 20.4275 302.127 20.0434 301.821 19.8156C301.516 19.5596 301.084 19.4315 300.525 19.4315C300.025 19.4315 299.621 19.5596 299.315 19.8156C299.007 20.0718 298.785 20.4986 298.645 21.0963C298.507 21.6938 298.438 22.5478 298.438 23.6575V25.3651Z" fill="white"/>
<path d="M84.6446 51.8214H82.2283C82.1961 51.5833 82.1299 51.3681 82.0302 51.1763C81.9304 50.9843 81.7982 50.8203 81.6339 50.6844C81.4697 50.5479 81.2748 50.4443 81.0491 50.3731C80.8269 50.2989 80.5805 50.2617 80.3097 50.2617C79.8298 50.2617 79.4157 50.3748 79.0679 50.6006C78.723 50.8264 78.4573 51.1531 78.2706 51.5801C78.0869 52.0073 77.995 52.524 77.995 53.1306C77.995 53.7619 78.0884 54.2911 78.2754 54.7183C78.4655 55.1424 78.7312 55.4624 79.0727 55.679C79.4176 55.8927 79.825 55.9995 80.2953 55.9995C80.5595 55.9995 80.7995 55.9671 81.0154 55.9019C81.2344 55.837 81.4262 55.7425 81.5905 55.6189C81.7578 55.4919 81.895 55.3387 82.0011 55.1593C82.1108 54.9767 82.1864 54.7709 82.2283 54.542L84.6446 54.5558C84.6027 54.9767 84.4754 55.3914 84.2626 55.8C84.0533 56.2084 83.7652 56.5813 83.3977 56.9187C83.0304 57.2529 82.5828 57.5191 82.0543 57.7171C81.5292 57.9152 80.9268 58.0142 80.2471 58.0142C79.3514 58.0142 78.5493 57.8255 77.8405 57.448C77.1349 57.0672 76.5775 56.5132 76.1684 55.786C75.7593 55.0586 75.5547 54.1737 75.5547 53.1306C75.5547 52.0846 75.7624 51.1978 76.178 50.4706C76.5936 49.7432 77.1558 49.1909 77.8646 48.8132C78.5733 48.4357 79.3675 48.2471 80.2471 48.2471C80.8462 48.2471 81.4004 48.3275 81.9094 48.4884C82.4184 48.6463 82.8663 48.8784 83.2528 49.1846C83.6395 49.4882 83.9536 49.8609 84.195 50.3035C84.4369 50.7462 84.5866 51.2522 84.6446 51.8214Z" fill="#FF7102"/>
<path d="M95.0469 48.3774H97.7192L99.8118 52.3558H99.8987L101.991 48.3774H104.663L101.044 54.7095V57.8847H98.6664V54.7095L95.0469 48.3774Z" fill="#FF7102"/>
<path d="M115.195 57.8847V48.3774H119.322C120.063 48.3774 120.683 48.4781 121.183 48.6791C121.686 48.8803 122.062 49.1619 122.314 49.5241C122.568 49.8861 122.695 50.3054 122.695 50.7821C122.695 51.1444 122.617 51.4676 122.459 51.7523C122.301 52.0341 122.083 52.2677 121.806 52.4534C121.529 52.6389 121.209 52.769 120.845 52.8432V52.9361C121.244 52.9545 121.613 53.0584 121.951 53.247C122.293 53.4361 122.567 53.6991 122.773 54.0362C122.979 54.3705 123.082 54.7666 123.082 55.2247C123.082 55.7353 122.947 56.1917 122.676 56.5943C122.405 56.9933 122.014 57.3089 121.502 57.541C120.99 57.7702 120.368 57.8847 119.637 57.8847H115.195ZM117.587 56.0325H119.066C119.585 56.0325 119.967 55.9381 120.211 55.7493C120.46 55.5606 120.584 55.2974 120.584 54.96C120.584 54.7156 120.524 54.5052 120.405 54.3287C120.286 54.1493 120.116 54.0114 119.897 53.9157C119.678 53.8167 119.416 53.7672 119.11 53.7672H117.587V56.0325ZM117.587 52.2862H118.912C119.173 52.2862 119.404 52.2445 119.607 52.1609C119.81 52.0773 119.968 51.9566 120.081 51.7987C120.197 51.6409 120.255 51.4504 120.255 51.2277C120.255 50.9089 120.137 50.6585 119.902 50.4757C119.667 50.2931 119.35 50.202 118.95 50.202H117.587V52.2862Z" fill="#FF7102"/>
<path d="M133.758 57.8847V48.3774H140.659V50.2436H136.15V52.1933H140.306V54.064H136.15V56.0185H140.659V57.8847H133.758Z" fill="#FF7102"/>
<path d="M151.68 57.8847V48.3774H155.768C156.509 48.3774 157.149 48.5059 157.687 48.7629C158.228 49.0167 158.645 49.3816 158.938 49.8582C159.231 50.3317 159.378 50.8935 159.378 51.5434C159.378 52.2025 159.228 52.7628 158.928 53.2238C158.629 53.6819 158.204 54.0316 157.653 54.2731C157.102 54.5113 156.449 54.6306 155.696 54.6306H153.11V52.82H155.251C155.612 52.82 155.913 52.7751 156.155 52.6853C156.399 52.5927 156.585 52.4534 156.71 52.2677C156.836 52.0788 156.899 51.8375 156.899 51.5434C156.899 51.2495 156.836 51.0065 156.71 50.8145C156.585 50.6196 156.399 50.4742 156.155 50.3783C155.91 50.2791 155.609 50.2296 155.251 50.2296H154.072V57.8847H151.68ZM157.252 53.5395L159.716 57.8847H157.107L154.69 53.5395H157.252Z" fill="#FF7102"/>
<path d="M175.564 51.2273C175.533 50.887 175.388 50.6223 175.134 50.4335C174.883 50.2415 174.524 50.1458 174.057 50.1458C173.747 50.1458 173.49 50.1844 173.283 50.2617C173.077 50.3392 172.923 50.4458 172.819 50.5822C172.716 50.7151 172.663 50.8684 172.66 51.0418C172.654 51.1838 172.683 51.3094 172.747 51.4176C172.815 51.5258 172.911 51.6219 173.037 51.7055C173.166 51.7859 173.32 51.8569 173.501 51.919C173.681 51.981 173.884 52.0351 174.11 52.0815L174.96 52.2672C175.451 52.3692 175.883 52.5056 176.255 52.6756C176.632 52.8459 176.949 53.0485 177.202 53.2837C177.461 53.519 177.655 53.7899 177.788 54.0962C177.919 54.4026 177.987 54.7461 177.99 55.1267C177.987 55.7273 177.83 56.2425 177.517 56.6726C177.204 57.1029 176.755 57.4324 176.169 57.6615C175.585 57.8905 174.881 58.005 174.057 58.005C173.228 58.005 172.507 57.8857 171.892 57.6475C171.276 57.4092 170.798 57.0472 170.456 56.5612C170.115 56.0753 169.939 55.4612 169.93 54.7183H172.22C172.24 55.0248 172.325 55.28 172.476 55.4843C172.628 55.6884 172.836 55.8432 173.1 55.9483C173.367 56.0536 173.676 56.1063 174.027 56.1063C174.35 56.1063 174.624 56.0645 174.849 55.9809C175.078 55.8973 175.253 55.7812 175.376 55.6327C175.498 55.4843 175.561 55.3141 175.564 55.1221C175.561 54.9427 175.503 54.7893 175.39 54.6625C175.278 54.5326 175.104 54.421 174.868 54.3283C174.636 54.2324 174.34 54.1442 173.979 54.0636L172.945 53.8315C172.088 53.6429 171.413 53.3379 170.92 52.9171C170.427 52.4933 170.183 51.9206 170.186 51.1995C170.183 50.6114 170.347 50.0963 170.679 49.6536C171.011 49.211 171.469 48.8658 172.056 48.6185C172.642 48.3707 173.311 48.2471 174.061 48.2471C174.828 48.2471 175.493 48.3724 176.057 48.6229C176.624 48.8706 177.064 49.2189 177.377 49.6674C177.69 50.1163 177.849 50.6361 177.854 51.2273H175.564Z" fill="#FF7102"/>
<path d="M188.727 57.8847V48.3774H195.627V50.2436H191.119V52.1933H195.274V54.064H191.119V56.0185H195.627V57.8847H188.727Z" fill="#FF7102"/>
<path d="M215.638 51.8214H213.222C213.188 51.5833 213.123 51.3681 213.023 51.1763C212.922 50.9843 212.792 50.8203 212.627 50.6844C212.464 50.5479 212.267 50.4443 212.043 50.3731C211.821 50.2989 211.574 50.2617 211.304 50.2617C210.822 50.2617 210.41 50.3748 210.06 50.6006C209.716 50.8264 209.45 51.1531 209.263 51.5801C209.08 52.0073 208.989 52.524 208.989 53.1306C208.989 53.7619 209.081 54.2911 209.268 54.7183C209.459 55.1424 209.724 55.4624 210.066 55.679C210.41 55.8927 210.818 55.9995 211.289 55.9995C211.553 55.9995 211.791 55.9671 212.009 55.9019C212.227 55.837 212.42 55.7425 212.583 55.6189C212.753 55.4919 212.889 55.3387 212.995 55.1593C213.102 54.9767 213.18 54.7709 213.222 54.542L215.638 54.5558C215.596 54.9767 215.468 55.3914 215.257 55.8C215.047 56.2084 214.758 56.5813 214.392 56.9187C214.023 57.2529 213.575 57.5191 213.048 57.7171C212.522 57.9152 211.919 58.0142 211.241 58.0142C210.345 58.0142 209.543 57.8255 208.833 57.448C208.129 57.0672 207.571 56.5132 207.162 55.786C206.753 55.0586 206.547 54.1737 206.547 53.1306C206.547 52.0846 206.755 51.1978 207.171 50.4706C207.587 49.7432 208.15 49.1909 208.858 48.8132C209.567 48.4357 210.361 48.2471 211.241 48.2471C211.84 48.2471 212.392 48.3275 212.901 48.4884C213.41 48.6463 213.86 48.8784 214.245 49.1846C214.633 49.4882 214.947 49.8609 215.188 50.3035C215.428 50.7462 215.579 51.2522 215.638 51.8214Z" fill="#FF7102"/>
<path d="M232.52 48.3774H234.907V54.5098C234.907 55.2186 234.731 55.8359 234.379 56.362C234.027 56.8851 233.539 57.2905 232.911 57.5782C232.281 57.8629 231.552 58.0054 230.721 58.0054C229.879 58.0054 229.146 57.8629 228.518 57.5782C227.89 57.2905 227.402 56.8851 227.055 56.362C226.705 55.8359 226.531 55.2186 226.531 54.5098V48.3774H228.924V54.3101C228.924 54.6383 228.998 54.9306 229.146 55.1875C229.297 55.4445 229.509 55.6456 229.779 55.791C230.049 55.9364 230.365 56.0093 230.721 56.0093C231.079 56.0093 231.391 55.9364 231.659 55.791C231.929 55.6456 232.141 55.4445 232.291 55.1875C232.442 54.9306 232.52 54.6383 232.52 54.3101V48.3774Z" fill="#FF7102"/>
<path d="M245.93 57.8847V48.3774H250.019C250.758 48.3774 251.399 48.5059 251.937 48.7629C252.479 49.0167 252.896 49.3816 253.189 49.8582C253.482 50.3317 253.629 50.8935 253.629 51.5434C253.629 52.2025 253.478 52.7628 253.181 53.2238C252.879 53.6819 252.454 54.0316 251.903 54.2731C251.351 54.5113 250.699 54.6306 249.946 54.6306H247.362V52.82H249.502C249.862 52.82 250.163 52.7751 250.406 52.6853C250.651 52.5927 250.835 52.4534 250.961 52.2677C251.087 52.0788 251.15 51.8375 251.15 51.5434C251.15 51.2495 251.087 51.0065 250.961 50.8145C250.835 50.6196 250.651 50.4742 250.406 50.3783C250.161 50.2791 249.86 50.2296 249.502 50.2296H248.323V57.8847H245.93ZM251.501 53.5395L253.966 57.8847H251.357L248.941 53.5395H251.501Z" fill="#FF7102"/>
<path d="M266.854 48.3774V57.8847H264.461V48.3774H266.854Z" fill="#FF7102"/>
<path d="M277.562 50.2436V48.3774H285.927V50.2436H282.927V57.8847H280.567V50.2436H277.562Z" fill="#FF7102"/>
<path d="M296.125 48.3774H298.797L300.888 52.3558H300.976L303.068 48.3774H305.74L302.122 54.7095V57.8847H299.743V54.7095L296.125 48.3774Z" fill="#FF7102"/>
</g>
</g>
</g>
<defs>
<clipPath id="clip0_713_12385">
<rect width="308" height="61" fill="white" transform="translate(0.367188 0.5)"/>
</clipPath>
</defs>
</svg>
