<svg width="196" height="64" viewBox="0 0 196 64" fill="none" xmlns="http://www.w3.org/2000/svg">
<path d="M65.3758 44.8492H82.6162C86.2911 44.8492 89.2622 41.6091 89.2622 37.649V36.2989C89.2622 32.3838 86.4475 29.2337 82.8508 29.0987H82.7335H71.0835C70.067 29.0987 69.2461 28.1986 69.2461 27.1186V25.8135C69.2461 24.7335 70.067 23.8335 71.0835 23.8335H87.9721V18.6133H71.0835C67.4086 18.6133 64.4375 21.8534 64.4375 25.8135V27.1186C64.4375 31.0787 67.4086 34.3188 71.0835 34.3188H82.6162C83.6327 34.3188 84.4537 35.2189 84.4537 36.2989V37.649C84.4537 38.729 83.6327 39.629 82.6162 39.629H65.3758V44.8492Z" fill="#FEF2F3"/>
<path d="M95.0078 44.8492H99.8555V18.6133H95.0078V44.8492Z" fill="#FEF2F3"/>
<path d="M162.56 44.8492H167.408V25.8135C167.408 21.8534 164.436 18.6133 160.762 18.6133H136.68V44.8492H141.488V23.8335H149.542V44.8492H154.35V23.8335H160.762C161.778 23.8335 162.599 24.7335 162.599 25.8135L162.56 44.8492Z" fill="#FEF2F3"/>
<path d="M195.871 25.8135C195.871 21.8534 192.86 18.6133 189.186 18.6133H173.861V23.8335H189.186C190.202 23.8335 191.023 24.7335 191.023 25.8135V29.0987H178.865C175.19 29.0987 172.219 32.3388 172.219 36.2989V37.649C172.219 41.6091 175.19 44.8492 178.865 44.8492H195.871V25.8135ZM191.023 39.629H178.865C177.848 39.629 177.027 38.729 177.027 37.649V36.2989C177.027 35.2189 177.848 34.3188 178.865 34.3188H191.023V39.629Z" fill="#FEF2F3"/>
<path d="M106.344 37.649C106.344 41.6091 109.315 44.8492 112.99 44.8492H129.996V29.0987H117.29V34.3188H125.148V39.629H112.99C111.973 39.629 111.152 38.729 111.152 37.649V25.8135C111.152 24.7335 111.973 23.8335 112.99 23.8335H129.957V18.6133H112.99C109.315 18.6133 106.344 21.8534 106.344 25.8135V37.649Z" fill="#FEF2F3"/>
<path d="M27.4121 0.926758C23.659 0.926758 20.4533 9.83708 19.3587 22.2125C8.64691 23.4726 0.867188 27.1627 0.867188 31.4829C0.867188 35.848 8.64691 39.4931 19.3587 40.7532C20.4533 53.0836 23.659 62.039 27.4121 62.039C32.0643 62.039 35.8564 48.3585 35.8564 31.4829C35.8955 14.6072 32.1034 0.926758 27.4121 0.926758Z" fill="url(#paint0_linear_713_12326)"/>
<path d="M19.3597 40.7544L35.4664 22.2137C32.9253 21.8987 30.2278 21.7637 27.4131 21.7637C24.5983 21.7637 21.9008 21.9437 19.3597 22.2137C19.086 25.1388 18.9688 28.2439 18.9688 31.484C18.9688 34.7241 19.1251 37.8293 19.3597 40.7544Z" fill="#B32317"/>
<path opacity="0.81" d="M35.5052 22.2129L19.3984 40.7536C21.9396 41.0686 24.637 41.2036 27.4518 41.2036C42.1121 41.2036 53.9967 36.8384 53.9967 31.4832C53.9576 27.1181 46.217 23.4279 35.5052 22.2129Z" fill="url(#paint1_linear_713_12326)"/>
<path d="M65.3758 44.8492H82.6162C86.2911 44.8492 89.2622 41.6091 89.2622 37.649V36.2989C89.2622 32.3838 86.4475 29.2337 82.8508 29.0987H82.7335H71.0835C70.067 29.0987 69.2461 28.1986 69.2461 27.1186V25.8135C69.2461 24.7335 70.067 23.8335 71.0835 23.8335H87.9721V18.6133H71.0835C67.4086 18.6133 64.4375 21.8534 64.4375 25.8135V27.1186C64.4375 31.0787 67.4086 34.3188 71.0835 34.3188H82.6162C83.6327 34.3188 84.4537 35.2189 84.4537 36.2989V37.649C84.4537 38.729 83.6327 39.629 82.6162 39.629H65.3758V44.8492Z" fill="#FEF2F3"/>
<path d="M95.0078 44.8492H99.8555V18.6133H95.0078V44.8492Z" fill="#FEF2F3"/>
<path d="M162.56 44.8492H167.408V25.8135C167.408 21.8534 164.436 18.6133 160.762 18.6133H136.68V44.8492H141.488V23.8335H149.542V44.8492H154.35V23.8335H160.762C161.778 23.8335 162.599 24.7335 162.599 25.8135L162.56 44.8492Z" fill="#FEF2F3"/>
<path d="M195.871 25.8135C195.871 21.8534 192.86 18.6133 189.186 18.6133H173.861V23.8335H189.186C190.202 23.8335 191.023 24.7335 191.023 25.8135V29.0987H178.865C175.19 29.0987 172.219 32.3388 172.219 36.2989V37.649C172.219 41.6091 175.19 44.8492 178.865 44.8492H195.871V25.8135ZM191.023 39.629H178.865C177.848 39.629 177.027 38.729 177.027 37.649V36.2989C177.027 35.2189 177.848 34.3188 178.865 34.3188H191.023V39.629Z" fill="#FEF2F3"/>
<path d="M106.344 37.649C106.344 41.6091 109.315 44.8492 112.99 44.8492H129.996V29.0987H117.29V34.3188H125.148V39.629H112.99C111.973 39.629 111.152 38.729 111.152 37.649V25.8135C111.152 24.7335 111.973 23.8335 112.99 23.8335H129.957V18.6133H112.99C109.315 18.6133 106.344 21.8534 106.344 25.8135V37.649Z" fill="#FEF2F3"/>
<path d="M65.9609 62.6234V61.5434H66.0391C66.4692 61.6784 67.4856 61.9484 68.1502 61.9484H68.5021C69.5576 61.9484 70.3004 61.4984 70.3004 60.2834C70.3004 59.2033 69.8313 58.8883 69.0494 58.6633L67.9156 58.3033C67.0947 58.0333 66.0391 57.4482 66.0391 55.6932C66.0391 54.1181 67.0947 53.0381 68.7757 53.0381H69.0494C69.6749 53.0381 70.6522 53.2631 71.0041 53.4431V54.4781H70.9259C70.5349 54.3431 69.6358 54.1181 69.0494 54.1181H68.7757C67.7202 54.1181 67.0947 54.5681 67.0947 55.6932C67.0947 56.7282 67.6811 56.9982 68.3457 57.2232L69.4403 57.5833C70.3004 57.8533 71.3559 58.3933 71.3559 60.2834C71.3559 61.9484 70.3004 63.0284 68.5021 63.0284H68.1502C67.4856 63.0284 66.3128 62.7584 65.9609 62.6234Z" fill="#FEF2F3"/>
<path d="M72.9609 59.2466C72.9609 57.0865 73.8601 55.6465 75.6584 55.6465C77.574 55.6465 78.3559 57.0865 78.3559 59.2466C78.3559 61.5867 77.4568 63.0267 75.6584 63.0267C73.7428 63.0267 72.9609 61.5867 72.9609 59.2466ZM77.3786 59.2466C77.3786 57.6716 76.9876 56.6815 75.6584 56.6815C74.3292 56.6815 73.9383 57.6716 73.9383 59.2466C73.9383 60.8217 74.3292 61.9917 75.6584 61.9917C76.9876 61.9917 77.3786 60.8217 77.3786 59.2466Z" fill="#FEF2F3"/>
<path d="M80.657 56.8181H79.6797V55.783H80.657V55.468C80.657 53.938 81.478 53.1279 82.6899 53.1279H83.3936V54.163H82.6899C81.908 54.163 81.6344 54.568 81.6344 55.513V55.828H83.2373V56.8631H81.6344V62.9383H80.657V56.8181Z" fill="#FEF2F3"/>
<path d="M87.3385 62.9385C86.0093 62.9385 85.1883 62.2185 85.1883 60.4634V56.7733H84.2109V55.7382H85.1883V54.1182H86.1656V55.7382H87.9249V56.7733H86.1656V60.2384C86.1656 61.5434 86.5175 61.8584 87.4948 61.8584H88.1203V62.8935H87.3385V62.9385Z" fill="#FEF2F3"/>
<path d="M89.4453 57.6283V55.7832H90.4227V57.6283C90.4227 59.6533 91.0091 61.3634 91.5173 62.1284C92.0646 61.3634 92.6119 59.6983 92.6119 57.6283V55.7832H93.5893V57.6283C93.5893 59.6533 94.1757 61.3634 94.6839 62.1284C95.1921 61.3634 95.7786 59.6983 95.7786 57.6283V55.7832H96.7559V57.6283C96.7559 60.0584 95.8567 62.2184 95.2312 62.9385H94.1757C93.8629 62.5334 93.1983 61.2734 93.0811 60.4634C92.9638 61.2284 92.2992 62.5334 91.9864 62.9385H90.9309C90.3445 62.2184 89.4453 60.0584 89.4453 57.6283Z" fill="#FEF2F3"/>
<path d="M98.4453 60.5984V59.4733C98.4453 57.2233 100.048 55.7832 101.729 55.7832H103.41V62.9385H102.433V61.5884L102.003 62.0834C101.534 62.5784 101.026 63.0285 100.244 63.0285C99.2272 63.0285 98.4453 62.3084 98.4453 60.5984ZM102.433 60.4634V56.7732H101.729C100.4 56.7732 99.4227 57.8083 99.4227 59.4283V60.5534C99.4227 61.6784 99.8527 61.9934 100.4 61.9934C101.026 61.9934 101.729 61.2734 102.081 60.8684L102.433 60.4634Z" fill="#FEF2F3"/>
<path d="M105.867 55.7832H106.845V57.3583L106.923 57.2233C107.392 56.4132 107.939 55.7832 108.76 55.7832H109.151V56.9982H108.721C108.291 56.9982 107.861 57.1782 107.548 57.4933L106.845 58.3033V62.9385H105.867V55.7832Z" fill="#FEF2F3"/>
<path d="M110.367 60.1935V58.7535C110.367 56.8184 111.501 55.6934 113.026 55.6934C114.277 55.6934 115.137 56.3234 115.137 57.7634C115.137 59.0235 114.433 59.7885 113.182 59.7885H111.305V60.1935C111.305 61.5436 112.009 62.0386 112.986 62.0386C113.69 62.0386 114.394 61.7236 114.668 61.5886H114.746V62.6236C114.472 62.7586 113.69 63.0736 112.986 63.0736C111.501 63.0286 110.367 62.2186 110.367 60.1935ZM111.345 58.8435H112.947C113.925 58.8435 114.198 58.4385 114.198 57.7184C114.198 56.9534 113.729 56.6834 113.026 56.6834C111.97 56.6834 111.345 57.3134 111.345 58.7535V58.8435Z" fill="#FEF2F3"/>
<defs>
<linearGradient id="paint0_linear_713_12326" x1="0.885405" y1="31.4683" x2="35.8819" y2="31.4683" gradientUnits="userSpaceOnUse">
<stop offset="0.00613497" stop-color="#E11F27"/>
<stop offset="0.681" stop-color="#EE2A24"/>
</linearGradient>
<linearGradient id="paint1_linear_713_12326" x1="30.3178" y1="22.9839" x2="41.4136" y2="39.6795" gradientUnits="userSpaceOnUse">
<stop stop-color="white" stop-opacity="0"/>
<stop offset="1" stop-color="white"/>
</linearGradient>
</defs>
</svg>
