<svg width="254" height="46" viewBox="0 0 254 46" fill="none" xmlns="http://www.w3.org/2000/svg">
<path d="M13.2598 26.8712C9.69779 25.3947 6.62254 24.1248 6.62254 21.184C6.62254 17.7875 9.53744 16.5783 12.2691 16.5783C16.9879 16.5783 19.4962 19.3429 19.5191 19.3733L19.7596 19.6467L21.8728 15.8857L21.7411 15.7338C21.6208 15.5879 18.6945 12.1914 12.3836 12.1914C7.36129 12.1914 1.95526 15.0046 1.95526 21.184C1.95526 27.0292 6.93178 29.1193 11.3184 30.9604C14.8862 32.4612 17.9672 33.7554 17.9672 36.6658C17.9672 39.9348 15.1038 41.3991 12.2634 41.3991C6.89742 41.3991 3.62747 37.7048 3.59311 37.6684L3.37549 37.4193L0.867188 40.9434L1.01035 41.1135C1.05044 41.1621 2.0068 42.3044 3.86799 43.4589C5.58028 44.5222 8.415 45.786 12.2004 45.786C18.2421 45.786 22.6287 41.9459 22.6287 36.6658C22.6344 30.7538 17.6579 28.694 13.2598 26.8712Z" fill="#FEF2F3"/>
<path d="M54.7524 28.8338C54.7524 35.882 49.7816 41.4052 43.4364 41.4052C37.0912 41.4052 32.1204 35.882 32.1204 28.8338C32.1204 21.9982 37.0912 16.6391 43.4364 16.6391C49.7816 16.6391 54.7524 21.9982 54.7524 28.8338ZM43.4364 12.1914C34.4741 12.1914 27.4531 19.5009 27.4531 28.8338C27.4531 38.3428 34.4741 45.7921 43.4364 45.7921C52.3987 45.7921 59.4197 38.3428 59.4197 28.8338C59.4197 19.5009 52.3987 12.1914 43.4364 12.1914Z" fill="#FEF2F3"/>
<path d="M79.1951 0.299473C79.1664 0.293397 78.4506 0.171875 77.3224 0.171875C74.1555 0.171875 66.791 1.33848 66.791 12.16V13.3813H62.7422V17.513H66.791V45.0619H71.3323V17.513H78.9431V13.3813H71.3323V12.16C71.3323 9.31637 72.1626 4.55272 77.7347 4.55272C78.5193 4.55272 79.092 4.66817 79.0977 4.67425L79.4184 4.74108V0.342005L79.1951 0.299473Z" fill="#FEF2F3"/>
<path d="M100.64 41.1543L100.314 41.2333C100.308 41.2333 99.7869 41.3548 98.9852 41.3548C96.5456 41.3548 92.451 40.2915 92.451 33.1461V17.6035H100.033V13.3867H92.451V4.13281H87.8754V13.3927H83.8438V17.6095H87.8181V33.5957C87.8181 44.2349 94.5871 45.8268 98.6244 45.8268C99.7239 45.8268 100.394 45.6992 100.417 45.6932L100.64 45.6506V41.1543Z" fill="#FEF2F3"/>
<path d="M109.889 35.4981C109.889 35.4981 113.211 39.0223 118.136 39.0223C120.272 39.0223 122.11 38.0136 122.11 36.13C122.11 31.3482 107.404 31.974 107.404 21.6568C107.404 15.678 112.443 12.2207 118.972 12.2207C125.792 12.2207 129.114 15.8724 129.114 15.8724L126.325 21.7905C126.325 21.7905 123.536 19.0198 118.909 19.0198C116.95 19.0198 115.055 19.9009 115.055 21.912C115.055 26.4448 129.761 25.8736 129.761 36.1969C129.761 41.5438 125.374 45.8275 118.199 45.8275C110.668 45.8275 106.453 41.1064 106.453 41.1064L109.889 35.4981Z" fill="#FEF2F3"/>
<path d="M155.865 25.0534C155.745 20.709 153.196 18.3818 149.875 18.3818C146.021 18.3818 143.352 20.8973 142.642 25.0534H155.865ZM150.052 12.2207C158.768 12.2207 163.459 18.953 163.459 27.4473C163.459 28.3891 163.281 30.5279 163.281 30.5279H142.401C142.871 36.13 146.966 39.0223 151.473 39.0223C156.335 39.0223 160.189 35.4981 160.189 35.4981L163.098 41.2279C163.098 41.2279 158.471 45.8214 150.94 45.8214C140.918 45.8214 134.688 38.1473 134.688 29.021C134.688 19.1414 141.038 12.2207 150.052 12.2207Z" fill="#FEF2F3"/>
<path d="M171.037 12.9738H178.27V18.5091C178.27 19.7061 178.15 20.7755 178.15 20.7755H178.27C179.633 16.182 183.252 12.5303 187.879 12.5303C188.595 12.5303 189.242 12.6579 189.242 12.6579V20.5203C189.242 20.5203 188.469 20.3927 187.461 20.3927C184.26 20.3927 180.641 22.3431 179.215 27.125C178.739 28.6987 178.562 30.4608 178.562 32.3504V45.0616H171.031V12.9738H171.037Z" fill="#FEF2F3"/>
<path d="M192.523 12.9736H200.472L206.76 32.8606C207.356 34.7503 207.768 36.883 207.831 36.883H207.951C208.014 36.883 208.427 34.7503 209.022 32.8606L215.31 12.9736H223.259L212.407 45.0675H203.513L192.523 12.9736Z" fill="#FEF2F3"/>
<path d="M246.271 25.0534C246.151 20.709 243.603 18.3818 240.281 18.3818C236.427 18.3818 233.758 20.8973 233.048 25.0534H246.271ZM240.464 12.2207C249.18 12.2207 253.865 18.953 253.865 27.4473C253.865 28.3891 253.687 30.5279 253.687 30.5279H232.808C233.283 36.13 237.372 39.0223 241.884 39.0223C246.746 39.0223 250.601 35.4981 250.601 35.4981L253.504 41.2279C253.504 41.2279 248.877 45.8214 241.346 45.8214C231.324 45.8214 225.094 38.1473 225.094 29.021C225.099 19.1414 231.45 12.2207 240.464 12.2207Z" fill="#FEF2F3"/>
</svg>
