<svg width="284" height="46" viewBox="0 0 284 46" fill="none" xmlns="http://www.w3.org/2000/svg">
<path d="M0.867188 0.36084L23.0345 22.4796L45.2018 0.36084H0.867188Z" fill="#1F3766"/>
<path d="M0.867188 44.5919L23.0345 22.4796L0.867188 0.36084V44.5919Z" fill="#F39200"/>
<path d="M45.1985 44.5914V22.479L23.0312 44.5914H45.1985Z" fill="#51C1E1"/>
<path d="M34.1181 33.5386L23.0345 44.5916H0.867188L11.9508 33.5386H34.1181Z" fill="#77549E"/>
<path d="M23.0368 22.479L11.9531 33.5384H34.1204L23.0368 22.479Z" fill="#D8422E"/>
<path d="M34.1172 11.4197L45.2008 22.4791V0.360352L34.1172 11.4197Z" fill="#00A97E"/>
<path d="M45.2007 22.4758L34.1172 11.4165L23.0337 22.4758L34.1172 33.535L45.2007 22.4758Z" fill="#F9E004"/>
<path d="M77.1123 0.360352H63V44.5978H76.6769C85.8076 44.5978 99.0427 38.9627 99.0427 22.5813C99.0427 6.19991 84.7511 0.360352 77.1123 0.360352ZM76.3823 36.043H73.1296V8.90884H76.8498C80.0705 8.90884 88.452 11.1067 88.452 22.5749C88.452 34.0432 79.2253 36.043 76.3823 36.043Z" fill="#FEF2F3"/>
<path d="M125.909 15.737V19.7812L124.699 18.4268C123.469 17.0467 120.748 14.7275 116.298 14.7275C112.392 14.7275 108.576 16.2481 106.072 18.7909C104.433 20.4585 101.68 24.1897 101.68 30.4189C101.68 34.706 102.935 37.9835 105.752 41.0502C108.582 44.0914 112.014 45.6376 115.958 45.6376C118.129 45.6376 122.144 45.1137 124.647 41.5933L125.902 39.8299V44.6217H134.239V15.7434H125.909V15.737ZM117.828 37.7855C113.692 37.7855 110.337 34.3673 110.337 30.1506C110.337 25.9339 113.692 22.5157 117.828 22.5157C121.964 22.5157 125.32 25.9339 125.32 30.1506C125.313 34.3673 121.964 37.7855 117.828 37.7855Z" fill="#FEF2F3"/>
<path d="M184.566 15.737V19.7812L183.356 18.4268C182.127 17.0467 179.406 14.7275 174.955 14.7275C171.05 14.7275 167.233 16.2481 164.736 18.7909C163.097 20.4585 160.344 24.1897 160.344 30.4189C160.344 34.706 161.599 37.9835 164.416 41.0502C167.246 44.0914 170.685 45.6376 174.622 45.6376C176.793 45.6376 180.801 45.1137 183.311 41.5933L184.566 39.8299V44.6217H192.903V15.7434H184.566V15.737ZM176.479 37.7855C172.343 37.7855 168.988 34.3673 168.988 30.1506C168.988 25.9339 172.343 22.5157 176.479 22.5157C180.616 22.5157 183.971 25.9339 183.971 30.1506C183.971 34.3673 180.616 37.7855 176.479 37.7855Z" fill="#FEF2F3"/>
<path d="M142.947 1.05371V16.4257H139.547V23.9008H142.947V45.304H152.206V23.9008H158.263V16.4257H152.206V1.05371H142.947Z" fill="#FEF2F3"/>
<path d="M268.547 0.359863V44.6229H277.812V23.2197H283.863V15.751H277.812V0.359863H268.547Z" fill="#FEF2F3"/>
<path d="M225.734 29.6023H213.062L219.312 10.7739L225.734 29.6023ZM230.991 44.591H241.537L225.183 0.359863H213.658L196.984 44.591H207.409L210.463 36.8475H228.206L230.991 44.591Z" fill="#FEF2F3"/>
<path d="M244.906 44.6239H254.165V32.3762C254.165 31.1431 254.165 27.3928 256.777 24.9586C258.09 23.7383 259.832 23.1505 262.111 23.1505C263.68 23.1505 265.396 23.1888 266.011 23.2016V15.7712C265.582 15.7456 264.167 15.6689 264.167 15.6689C262.374 15.6689 260.683 15.6689 259.383 16.3845C257.719 17.2342 256.368 18.5823 255.471 20.301L254.165 22.7927V15.7456H244.906V44.6239Z" fill="#FEF2F3"/>
</svg>
