<svg width="268" height="58" viewBox="0 0 268 58" fill="none" xmlns="http://www.w3.org/2000/svg">
<g clip-path="url(#clip0_713_12428)">
<path d="M157.523 45.9989C157.412 45.8809 157.311 45.7553 157.217 45.6226C157.102 45.4597 157.045 45.4761 157.045 45.6725L157.047 49.5258C157.047 49.5604 157.033 49.5937 157.008 49.6181C156.983 49.6426 156.95 49.6562 156.915 49.6562H147.822C147.781 49.6562 147.743 49.6408 147.715 49.6133C147.687 49.5859 147.672 49.5485 147.672 49.5097V0.672061C147.672 0.654587 147.675 0.637284 147.682 0.62114C147.688 0.604997 147.699 0.590327 147.711 0.577972C147.724 0.565616 147.739 0.555815 147.756 0.549128C147.772 0.542441 147.79 0.538999 147.808 0.538999C150.944 0.543479 154.061 0.541239 157.158 0.532278C157.371 0.531382 157.584 0.542135 157.795 0.564536C157.814 0.566713 157.832 0.575449 157.846 0.589212C157.859 0.602976 157.867 0.620887 157.868 0.639803C157.877 0.788547 157.882 1.02958 157.882 1.36291C157.887 7.99359 157.887 14.5978 157.882 21.1756C157.882 21.3181 157.928 21.3342 158.021 21.224C159.184 19.8459 160.59 18.8567 162.238 18.2563C162.941 18 163.827 17.7667 164.898 17.5561C166.915 17.1591 168.87 17.118 170.762 17.4325C173.459 17.8813 175.777 18.9593 177.717 20.6663C179.344 22.1008 180.637 23.8651 181.593 25.9591C182.396 27.7163 182.944 29.6258 183.236 31.6876C183.307 32.1882 183.343 32.7668 183.345 33.4226C183.347 33.8097 183.348 34.1969 183.349 34.584C183.35 35.0551 183.34 35.4423 183.319 35.7452C183.14 38.288 182.435 40.6626 181.205 42.8687C179.998 45.0344 178.294 46.7777 176.097 48.0986C174.324 49.1629 172.426 49.8519 170.4 50.1657C169.463 50.3107 168.548 50.3914 167.655 50.4076C164.609 50.4605 161.817 49.5518 159.278 47.6819C158.675 47.2383 158.195 46.7979 157.84 46.3606C157.752 46.2521 157.646 46.1316 157.523 45.9989ZM159.187 38.4845C159.785 39.4789 160.591 40.2321 161.603 40.7438C162.899 41.3978 164.267 41.7325 165.707 41.7479C166.685 41.7577 167.596 41.6639 168.445 41.4669C169.55 41.2106 170.514 40.7342 171.34 40.0381C172.97 38.6618 173.846 36.8501 173.967 34.6027C174.013 33.7694 173.984 32.9885 173.882 32.2601C173.772 31.4788 173.545 30.7368 173.202 30.0344C172.002 27.5808 169.903 26.2204 166.904 25.9525C165.439 25.8216 164.059 25.9722 162.767 26.404C160.776 27.0688 159.369 28.3677 158.544 30.3004C158.274 30.9348 158.085 31.6858 157.976 32.5529C157.737 34.4617 158.015 36.2398 158.812 37.8877C158.876 38.0202 158.938 38.1286 158.998 38.2128C159.123 38.3904 159.186 38.4807 159.187 38.4845Z" fill="white"/>
<path d="M254 8.93323C253.271 9.6169 252.419 10.0407 251.448 10.2047C249.503 10.5326 247.895 10.0026 246.624 8.61468C245.957 7.8844 245.557 7.05376 245.424 6.1228C245.299 5.24021 245.414 4.36924 245.77 3.50995C246.31 2.20532 247.315 1.29987 248.787 0.793608C249.782 0.451322 250.768 0.408311 251.745 0.664578C252.636 0.898445 253.422 1.34153 254.103 1.99385C254.909 2.76713 255.384 3.70663 255.535 4.81235C255.639 5.59368 255.563 6.33067 255.301 7.02332C255.03 7.73655 254.597 8.37319 254 8.93323ZM247.753 7.68324C248.461 8.53985 249.319 8.99055 250.325 9.03535C251.122 9.07121 251.853 8.87095 252.515 8.43458C253.182 7.99462 253.666 7.36873 253.96 6.55693C254.214 5.85982 254.26 5.19317 254.093 4.55696C253.91 3.84194 253.545 3.24069 253.004 2.75324C252.541 2.33837 252.017 2.05971 251.434 1.91724C250.832 1.77119 250.215 1.7806 249.582 1.94546C248.612 2.19725 247.885 2.74921 247.401 3.60136C246.581 5.04754 246.699 6.40818 247.753 7.68324Z" fill="white"/>
<path d="M37.5951 2.43217C40.0258 2.63109 42.2826 3.10644 44.3652 3.85821C45.2523 4.17898 46.0853 4.55397 46.8646 4.98318C47.9253 5.5665 48.9256 6.2448 49.8658 7.01808C49.893 7.04005 49.9108 7.071 49.9161 7.10514C49.9216 7.13929 49.9138 7.1743 49.8947 7.20356C49.7724 7.39173 49.626 7.57093 49.4551 7.74117C49.2628 7.93384 49.1654 8.0315 49.1627 8.03419C47.1004 10.2134 45.0439 12.3974 42.9935 14.5865C42.9862 14.5936 42.9512 14.6353 42.8888 14.7114C42.7252 14.9131 42.5405 14.8911 42.3347 14.6456C42.002 14.2504 41.4876 13.8446 40.7921 13.4279C40.0145 12.962 39.0753 12.5829 37.9741 12.2908C36.1718 11.8124 34.377 11.7658 32.5896 12.151C31.788 12.324 31.0306 12.6098 30.3174 13.0086C29.4933 13.4682 28.8936 13.9798 28.5184 14.5434C27.9808 15.3489 27.8155 16.2908 28.0221 17.3686C28.2068 18.3355 28.7096 19.1024 29.5302 19.6697C30.6551 20.4456 32.0452 21.0849 33.7006 21.5876C35.4825 22.1279 37.2715 22.6458 39.0675 23.1414C39.7409 23.3268 40.401 23.5464 41.047 23.8C41.7539 24.0769 42.391 24.3515 42.959 24.6238C44.3974 25.3139 45.697 26.2076 46.8578 27.3053C47.0471 27.4846 47.3337 27.8107 47.718 28.2836C48.0479 28.6897 48.302 29.04 48.4802 29.3348C49.1081 30.3734 49.518 31.5364 49.71 32.8239C49.8001 33.4297 49.858 33.9392 49.8837 34.3521C49.8847 34.3717 49.9068 34.6401 49.9498 35.1571C49.9765 35.4762 49.9702 35.7947 49.9307 36.113C49.9048 36.3216 49.8829 36.5839 49.8645 36.8992C49.8524 37.1062 49.8268 37.369 49.7873 37.6881C49.2653 41.8662 47.2662 45.1145 43.7905 47.4326C41.6839 48.8376 39.2874 49.7794 36.6011 50.2579C32.8641 50.9234 29.1379 50.8536 25.4221 50.048C21.6724 49.2361 18.3436 47.5365 15.4358 44.9488C15.4223 44.9367 15.4113 44.9223 15.4036 44.9062C15.3959 44.89 15.3915 44.8726 15.3907 44.855C15.39 44.8371 15.3929 44.8194 15.3991 44.8027C15.4054 44.7861 15.4151 44.771 15.4275 44.7579L22.8828 36.9193C22.8887 36.913 22.8961 36.9082 22.9043 36.905C22.9124 36.9017 22.9212 36.9002 22.93 36.9004C22.9388 36.9009 22.9473 36.9032 22.9551 36.9072C22.9629 36.911 22.9697 36.9166 22.9752 36.9234C24.8224 39.2208 27.2121 40.6052 30.1438 41.0766C30.7145 41.1689 31.4637 41.2294 32.391 41.2579C32.5838 41.2642 32.7521 41.2574 32.8956 41.2377C33.1978 41.1956 33.3634 41.1734 33.3918 41.1706C33.8319 41.1419 34.3201 41.065 34.8559 40.9394C35.7676 40.7252 36.5888 40.3792 37.3193 39.9018C38.0435 39.4279 38.5682 38.8982 38.8936 38.3131C39.2686 37.6394 39.4158 36.8825 39.3348 36.0429C39.2391 35.0502 38.8086 34.2292 38.043 33.5806C37.4273 33.0582 36.5973 32.5457 35.5535 32.0431C34.637 31.6022 33.4396 31.157 31.9609 30.7071C30.9619 30.4032 29.9651 30.0927 28.9706 29.7757C27.3024 29.2443 26.4294 28.9653 26.3514 28.9383C24.3138 28.2195 22.4899 27.2359 20.8798 25.9867C20.1206 25.3972 19.3895 24.6104 18.6864 23.6266C17.8739 22.4895 17.3703 21.2319 17.1755 19.8538C16.9227 18.0761 16.9025 16.4829 17.1148 15.0743C17.2995 13.8495 17.5978 12.7298 18.0096 11.7156C18.3275 10.9333 18.7668 10.1493 19.3275 9.36345C21.0103 7.00509 23.2137 5.26856 25.9378 4.15391C29.5708 2.66738 33.4565 2.09347 37.5951 2.43217Z" fill="white"/>
<path d="M252.123 5.7066C252.007 5.77919 251.946 5.80517 251.747 5.85715C251.518 5.92449 251.492 5.95839 251.608 6.134L252.712 7.78854C252.79 7.90862 252.757 7.96864 252.609 7.96864H251.38C251.359 7.96867 251.338 7.96322 251.319 7.95288C251.301 7.94252 251.285 7.92758 251.274 7.9095L250.088 6.06681C249.995 5.92345 249.949 5.94048 249.95 6.11788L249.956 7.7899C249.956 7.81331 249.951 7.83654 249.942 7.85823C249.935 7.87989 249.921 7.89961 249.906 7.91623C249.89 7.93286 249.871 7.94605 249.85 7.95505C249.828 7.96403 249.806 7.96867 249.784 7.96864L248.577 7.97134C248.543 7.97132 248.509 7.95767 248.485 7.93328C248.46 7.90892 248.446 7.87578 248.444 7.84097C248.434 7.2451 248.436 6.67568 248.447 6.13266C248.447 6.12371 248.449 2.83302 248.449 2.83302L250.854 2.83301C251.351 2.84286 251.8 2.98847 252.199 3.26983C252.521 3.49652 252.689 3.80835 252.702 4.20528C252.712 4.48486 252.705 4.71246 252.677 4.88807C252.639 5.13448 252.551 5.32311 252.373 5.5069C252.367 5.51318 252.252 5.6262 252.123 5.7066ZM249.955 3.95933L249.968 4.80204C249.968 4.8261 249.978 4.84923 249.996 4.86709C250.014 4.88492 250.039 4.89622 250.064 4.89882C250.407 4.93466 250.683 4.90913 250.892 4.82222C251.118 4.72812 251.222 4.58476 251.204 4.39212C251.19 4.24695 251.107 4.12465 250.951 4.02518C250.673 3.84689 250.368 3.79355 250.035 3.86525C250.012 3.87024 249.992 3.88235 249.976 3.8995C249.962 3.91668 249.954 3.93781 249.955 3.95933Z" fill="white"/>
<path d="M56.9012 45.6351C54.7956 43.4996 53.4015 40.985 52.7185 38.0907C52.3307 36.4447 52.176 34.7763 52.254 33.0855C52.3589 30.7906 52.9098 28.6251 53.9071 26.5883C54.2956 25.7935 54.7667 25.0266 55.3198 24.2873C58.012 20.6916 61.7037 18.472 66.3954 17.6289C68.3658 17.2749 70.262 17.158 72.0834 17.278C75.063 17.4761 77.7941 18.2341 80.2764 19.5522C81.3049 20.0988 82.3029 20.7878 83.2708 21.6193C83.9784 22.2278 84.6158 22.872 85.1828 23.552C87.2093 25.9829 88.3991 28.7724 88.7519 31.9203C88.8071 32.4058 88.8342 33.0262 88.8332 33.7819C88.8332 34.1957 88.832 34.6101 88.8292 35.025C88.8254 35.4944 88.8025 35.9085 88.7603 36.2669C88.5811 37.7721 88.2346 39.1338 87.7207 40.3515C86.0784 44.2439 83.3241 47.0974 79.4575 48.9118C77.9816 49.6044 76.4073 50.1058 74.7346 50.4158C70.5876 51.1838 66.5673 50.8392 62.6733 49.3822C60.4794 48.5615 58.5555 47.3123 56.9012 45.6351ZM65.5602 27.3989C65.0116 27.7976 64.535 28.2433 64.1306 28.7361C63.7529 29.1966 63.4312 29.7507 63.1655 30.3987C62.285 32.5458 62.2042 34.7491 62.9229 37.0087C63.5339 38.928 64.7131 40.3245 66.4603 41.1982C67.0797 41.5074 67.7687 41.7301 68.5269 41.8663C69.2151 41.9909 69.9434 42.0569 70.712 42.065C70.9203 42.0678 71.1008 42.0592 71.2523 42.0395C71.5739 41.9967 71.7384 41.9747 71.7457 41.9737C73.2833 41.8554 74.6244 41.3389 75.7684 40.4241C76.3678 39.9447 76.8746 39.3825 77.2891 38.7373C77.7028 38.0939 78.0128 37.3973 78.2197 36.6472C78.6515 35.0792 78.6963 33.4999 78.3533 31.9094C78.0518 30.5064 77.4219 29.2993 76.4634 28.2884C75.9349 27.7313 75.3448 27.2788 74.6933 26.931C74.0259 26.5754 73.3082 26.3262 72.5399 26.1837C70.7761 25.8558 69.0425 25.9572 67.3386 26.4876C66.7263 26.6775 66.1335 26.9812 65.5602 27.3989Z" fill="white"/>
<path d="M110.122 26.5741C109.561 26.1592 108.897 25.9325 108.131 25.8939C107.529 25.8644 106.933 25.8931 106.343 25.9799C105.717 26.0732 105.155 26.252 104.657 26.5163C103.542 27.1075 102.744 27.9736 102.264 29.1144C102.069 29.5777 101.91 30.1966 101.788 30.9717C101.679 31.668 101.622 32.3051 101.617 32.8829C101.615 33.063 101.607 33.2136 101.592 33.3346C101.563 33.5765 101.548 33.7248 101.547 33.7795C101.525 39.0006 101.522 44.2408 101.54 49.4997C101.54 49.5395 101.524 49.5779 101.495 49.6061C101.466 49.6341 101.426 49.65 101.386 49.65H91.5065C91.4572 49.65 91.4099 49.6308 91.3749 49.597C91.3399 49.563 91.3203 49.5168 91.3203 49.4687V18.1777C91.3203 18.1232 91.3425 18.0708 91.382 18.0323C91.421 17.9937 91.4743 17.972 91.5299 17.972H100.902C100.931 17.972 100.96 17.9777 100.988 17.9889C101.015 18.0001 101.04 18.0164 101.06 18.037C101.081 18.0577 101.098 18.082 101.109 18.109C101.121 18.1359 101.126 18.1647 101.126 18.1938V22.1614C101.125 22.2896 101.158 22.2981 101.224 22.187C102.025 20.8412 103.1 19.7718 104.45 18.9787C106.833 17.5774 109.473 17.0263 112.37 17.3256C114.173 17.5119 115.804 18.0066 117.263 18.8094C118.073 19.2557 118.771 19.795 119.359 20.4276C119.981 21.0988 120.482 21.8326 120.863 22.6292C120.933 22.7735 121.007 22.7766 121.089 22.6387C121.658 21.6861 122.311 20.8483 123.05 20.1252C123.715 19.4729 124.455 18.9479 125.268 18.55C126.134 18.1271 127.085 17.8085 128.12 17.5944C129.63 17.2826 131.224 17.2014 132.903 17.3511C134.218 17.4675 135.42 17.7427 136.51 18.1763C138.13 18.8215 139.432 19.8062 140.416 21.1306C141.303 22.3251 141.942 23.6857 142.334 25.2125C142.613 26.3022 142.808 27.4039 142.918 28.5174C142.979 29.133 143.009 30.0281 143.009 31.2029C143.009 37.2979 143.009 43.4025 143.009 49.5171C143.009 49.5345 143.005 49.5519 142.999 49.568C142.992 49.5842 142.982 49.5988 142.969 49.6112C142.956 49.6235 142.942 49.6334 142.925 49.6399C142.908 49.6467 142.89 49.65 142.872 49.65H132.958C132.917 49.65 132.879 49.6346 132.852 49.6071C132.824 49.5799 132.808 49.5426 132.808 49.5037C132.808 43.3621 132.808 37.2059 132.808 31.035C132.808 30.0206 132.585 29.0483 132.14 28.1184C131.793 27.3925 131.36 26.8593 130.842 26.5189C130.248 26.1292 129.548 25.9209 128.74 25.8939C127.827 25.8634 126.998 25.9549 126.255 26.168C124.844 26.5741 123.802 27.414 123.132 28.6884C122.799 29.3227 122.578 30.0264 122.467 30.7997C122.364 31.5381 122.31 32.1878 122.307 32.7485C122.28 38.3068 122.273 43.8653 122.288 49.4243C122.288 49.4576 122.274 49.4894 122.251 49.5128C122.226 49.5363 122.194 49.5494 122.16 49.5494L112.253 49.5426C112.208 49.5426 112.165 49.5249 112.134 49.4939C112.102 49.4626 112.085 49.4202 112.085 49.3759C112.095 43.548 112.098 37.8757 112.094 32.3588C112.094 32.1223 112.074 31.8463 112.035 31.5308C112.001 31.2549 111.977 30.978 111.962 30.7003C111.915 29.7729 111.738 28.9575 111.431 28.2541C111.125 27.5542 110.689 26.9943 110.122 26.5741Z" fill="white"/>
<path d="M196.132 22.7905C196.132 23.0037 196.184 23.0158 196.289 22.8268C196.735 22.0194 197.259 21.2654 197.863 20.5647C199.558 18.598 201.727 17.5075 204.372 17.2933C205.903 17.1687 207.426 17.2485 208.94 17.5325C208.961 17.5366 208.98 17.5477 208.995 17.5638C209.008 17.58 209.016 17.6003 209.016 17.6212L209.049 26.3939C209.049 26.4088 209.046 26.4237 209.038 26.437C209.032 26.4506 209.022 26.4625 209.01 26.4716C208.998 26.4809 208.983 26.4872 208.968 26.4902C208.953 26.4933 208.938 26.493 208.922 26.4892C207.702 26.1926 206.503 25.9934 205.328 25.8912C204.289 25.8007 203.207 25.862 202.083 26.0753C201.059 26.269 200.201 26.5717 199.508 26.9838C197.968 27.8988 196.991 29.2817 196.576 31.133C196.443 31.7297 196.346 32.3305 196.285 32.9355C196.243 33.3459 196.201 33.9529 196.16 34.7565C196.114 35.6105 196.095 36.5896 196.099 37.6935C196.119 41.6558 196.116 45.6009 196.091 49.5291C196.091 49.5604 196.079 49.5906 196.056 49.6128C196.033 49.635 196.002 49.6474 195.97 49.6474L186.046 49.6393C186.027 49.6393 186.007 49.6358 185.989 49.6285C185.971 49.6211 185.956 49.6105 185.941 49.5972C185.928 49.5838 185.916 49.5682 185.91 49.5505C185.902 49.5331 185.898 49.5145 185.898 49.4955V18.1024C185.898 18.0739 185.91 18.0465 185.93 18.0264C185.951 18.0062 185.978 17.9949 186.007 17.9949L195.868 17.9626C196.039 17.9617 196.125 18.0473 196.126 18.2193L196.132 22.7905Z" fill="white"/>
<path d="M214.551 46.2996C213.57 45.3722 212.708 44.297 211.967 43.0738C211 41.4826 210.334 39.6777 209.967 37.6598C209.888 37.2209 209.824 36.6784 209.778 36.0323C209.74 35.4875 209.702 34.9422 209.665 34.3967C209.646 34.1008 209.643 33.8822 209.658 33.7407C209.671 33.5982 209.678 33.5253 209.678 33.5215C209.76 31.2062 210.247 28.9416 211.139 26.7274C211.761 25.1808 212.579 23.7749 213.592 22.5098C214.169 21.7875 214.798 21.1375 215.48 20.5595C217.987 18.4341 220.969 17.3329 224.426 17.2558C225.973 17.2217 227.625 17.4135 229.38 17.8311C230.796 18.1689 231.994 18.6702 232.971 19.3351C233.788 19.8898 234.501 20.551 235.11 21.3189C235.166 21.3896 235.194 21.3798 235.194 21.2893L235.179 18.038C235.179 18.0197 235.182 18.0015 235.19 17.9846C235.198 17.9677 235.208 17.9522 235.221 17.9393C235.235 17.9263 235.252 17.916 235.269 17.909C235.287 17.9019 235.306 17.8982 235.325 17.8982H245.224C245.266 17.8982 245.305 17.9141 245.334 17.9424C245.363 17.9707 245.378 18.0089 245.378 18.0488V49.5307C245.378 49.5627 245.366 49.5935 245.343 49.6162C245.319 49.6389 245.288 49.6515 245.254 49.6515H236.114C236.064 49.6515 236.017 49.6326 235.982 49.5985C235.947 49.5645 235.927 49.5183 235.927 49.4701V45.719C235.927 45.5038 235.868 45.4864 235.749 45.6665C235.318 46.3135 234.788 46.89 234.156 47.3962C233.647 47.803 232.998 48.2353 232.208 48.6933C230.441 49.7173 228.544 50.2833 226.519 50.3907C224.595 50.4929 222.669 50.2797 220.741 49.7511C219.807 49.4938 218.95 49.1753 218.169 48.7955C216.824 48.1405 215.619 47.3084 214.551 46.2996ZM220.547 38.7393C221.517 40.0644 222.759 40.9413 224.277 41.3696C225.064 41.5918 225.945 41.7146 226.919 41.7378C227.824 41.7593 228.716 41.6606 229.594 41.4422C230.539 41.2082 231.369 40.8392 232.086 40.3348C233.616 39.2568 234.574 37.7365 234.962 35.7743C235.254 34.3003 235.229 32.8683 234.888 31.4786C234.665 30.5656 234.301 29.7497 233.796 29.0311C232.796 27.6046 231.431 26.6714 229.7 26.2313C228.858 26.0182 227.947 25.909 226.969 25.9034C225.729 25.8964 224.57 26.1092 223.494 26.542C222.22 27.0545 221.2 27.8717 220.433 28.9935C219.949 29.7015 219.583 30.5184 219.335 31.445C219 32.6905 218.928 33.9669 219.119 35.2744C219.301 36.5314 219.778 37.6865 220.547 38.7393Z" fill="white"/>
</g>
<defs>
<clipPath id="clip0_713_12428">
<rect width="267" height="57" fill="white" transform="translate(0.867188 0.5)"/>
</clipPath>
</defs>
</svg>
