<svg width="13" height="14" viewBox="0 0 13 14" fill="none" xmlns="http://www.w3.org/2000/svg">
<path fill-rule="evenodd" clip-rule="evenodd" d="M4.02256 3.29321L3.01747 1.92264C2.94912 1.82943 2.81995 1.80568 2.72291 1.86847C1.40796 2.71932 1.0465 4.01905 1.57405 4.97718C2.15101 6.02503 3.04085 7.3101 4.40576 8.67501C5.77066 10.0399 7.05573 10.9298 8.10358 11.5067C9.06171 12.0343 10.3614 11.6728 11.2123 10.3578C11.2751 10.2608 11.2513 10.1316 11.1581 10.0633L9.78755 9.05821C9.586 8.9104 9.31871 8.88775 9.09516 8.99953L8.54886 9.27268C8.08421 9.505 7.44726 9.58662 6.84431 9.27643C6.4412 9.06904 5.8199 8.67493 5.11286 7.9679C4.40583 7.26087 4.01172 6.63957 3.80433 6.23646C3.49414 5.63351 3.57576 4.99655 3.80808 4.5319L4.08124 3.9856C4.19301 3.76205 4.17036 3.49476 4.02256 3.29321ZM1.99858 0.74904C0.304905 1.84495 -0.566934 3.85313 0.406065 5.62028C1.04108 6.77359 2.00564 8.16051 3.46295 9.61782C4.92025 11.0751 6.30717 12.0397 7.46048 12.6747C9.22763 13.6477 11.2358 12.7759 12.3317 11.0822C12.7781 10.3923 12.6092 9.47402 11.9466 8.98809L10.576 7.983C9.97139 7.53959 9.16952 7.47163 8.49888 7.80696L7.95258 8.08011C7.79443 8.15918 7.61149 8.17168 7.45427 8.0908C7.16783 7.94343 6.6602 7.62962 6.05567 7.02509C5.45114 6.42056 5.13733 5.91294 4.98996 5.62649C4.90908 5.46927 4.92158 5.28633 5.00065 5.12818L5.27381 4.58188C5.60913 3.91124 5.54117 3.10937 5.09776 2.50473L4.09267 1.13415C3.60674 0.471521 2.68846 0.302646 1.99858 0.74904Z" fill="white"/>
</svg>
