<svg width="507" height="517" viewBox="0 0 507 517" fill="none" xmlns="http://www.w3.org/2000/svg">
<path d="M353.949 515.574C357.065 515.574 435.081 300.191 473.699 192.5V1L273.629 515.574H353.949Z" fill="#B10610" stroke="black"/>
<path d="M336.467 493.243C335.897 494.738 335.113 495.927 334.114 496.812C333.096 497.687 331.953 498.204 330.685 498.361C329.416 498.519 328.1 498.294 326.736 497.686L319.517 494.469C318.153 493.861 317.072 493.018 316.275 491.939C315.478 490.861 315.014 489.628 314.882 488.24C314.75 486.852 314.969 485.411 315.539 483.916C316.102 482.441 316.873 481.257 317.852 480.364C318.831 479.471 319.935 478.937 321.164 478.762C322.394 478.587 323.661 478.79 324.967 479.372C325.064 479.415 325.137 479.494 325.184 479.609C325.22 479.694 325.219 479.787 325.181 479.887L324.278 482.703C324.186 482.942 324.034 483.014 323.819 482.918C322.67 482.406 321.603 482.362 320.621 482.787C319.645 483.192 318.926 484.002 318.462 485.218C317.999 486.434 317.977 487.567 318.397 488.617C318.817 489.668 319.602 490.449 320.752 490.961L328.205 494.283C329.335 494.787 330.392 494.826 331.375 494.401C332.357 493.976 333.081 493.156 333.544 491.94C334.008 490.724 334.036 489.605 333.627 488.584C333.207 487.534 332.422 486.752 331.273 486.24C331.058 486.144 330.997 485.977 331.088 485.738L332.254 483.039C332.292 482.94 332.352 482.873 332.433 482.839C332.522 482.786 332.605 482.776 332.683 482.811C334.008 483.401 335.059 484.231 335.837 485.301C336.595 486.362 337.03 487.582 337.143 488.961C337.255 490.34 337.03 491.768 336.467 493.243ZM325.199 459.306C325.237 459.206 325.306 459.144 325.407 459.118C325.496 459.065 325.589 459.06 325.687 459.103L327.937 460.106C328.035 460.15 328.107 460.228 328.155 460.343C328.19 460.429 328.189 460.522 328.151 460.621L326.053 466.123C326.015 466.222 326.045 466.294 326.142 466.337L343.153 473.919C343.25 473.962 343.323 474.041 343.37 474.156C343.406 474.241 343.405 474.334 343.367 474.434L342.318 477.185C342.28 477.284 342.216 477.361 342.128 477.415C342.027 477.44 341.928 477.43 341.83 477.387L324.819 469.806C324.722 469.762 324.654 469.79 324.616 469.89L322.598 475.182C322.56 475.282 322.496 475.359 322.407 475.412C322.307 475.437 322.208 475.428 322.11 475.385L319.86 474.382C319.762 474.338 319.696 474.274 319.66 474.188C319.612 474.073 319.608 473.966 319.646 473.866L325.199 459.306ZM334.523 442.748C334.62 442.792 334.693 442.871 334.74 442.985C334.776 443.071 334.775 443.164 334.737 443.264L330.86 453.429C330.822 453.529 330.851 453.601 330.949 453.644L336.415 456.08C336.512 456.123 336.58 456.095 336.618 455.996L339.229 449.149C339.267 449.049 339.337 448.987 339.437 448.962C339.526 448.908 339.619 448.903 339.717 448.946L341.938 449.936C342.035 449.98 342.108 450.058 342.156 450.173C342.191 450.259 342.19 450.352 342.152 450.451L339.541 457.298C339.503 457.398 339.532 457.469 339.63 457.513L347.989 461.238C348.087 461.282 348.159 461.361 348.207 461.475C348.242 461.561 348.241 461.654 348.203 461.753L347.154 464.504C347.116 464.604 347.053 464.681 346.964 464.734C346.863 464.759 346.764 464.75 346.666 464.707L326.908 455.901C326.81 455.857 326.744 455.793 326.708 455.707C326.661 455.592 326.656 455.485 326.694 455.386L331.814 441.961C331.852 441.861 331.921 441.799 332.022 441.774C332.111 441.72 332.204 441.715 332.302 441.758L334.523 442.748ZM358.628 435.138C358.057 436.633 357.273 437.822 356.275 438.706C355.257 439.582 354.114 440.099 352.845 440.256C351.577 440.414 350.261 440.189 348.897 439.581L341.677 436.364C340.313 435.756 339.233 434.913 338.436 433.834C337.639 432.756 337.174 431.523 337.042 430.135C336.911 428.747 337.13 427.306 337.7 425.811C338.262 424.336 339.033 423.152 340.012 422.259C340.991 421.366 342.095 420.831 343.325 420.656C344.554 420.481 345.822 420.685 347.127 421.267C347.225 421.31 347.297 421.389 347.345 421.504C347.38 421.589 347.379 421.682 347.341 421.782L346.438 424.598C346.347 424.837 346.194 424.909 345.98 424.813C344.83 424.301 343.764 424.257 342.781 424.682C341.806 425.087 341.086 425.897 340.623 427.113C340.159 428.329 340.137 429.462 340.557 430.512C340.978 431.562 341.763 432.344 342.912 432.856L350.366 436.178C351.496 436.682 352.552 436.721 353.535 436.296C354.518 435.871 355.241 435.051 355.705 433.835C356.168 432.619 356.196 431.5 355.788 430.479C355.368 429.429 354.583 428.647 353.433 428.135C353.219 428.039 353.157 427.872 353.248 427.633L354.414 424.934C354.452 424.835 354.512 424.768 354.593 424.734C354.682 424.68 354.766 424.671 354.843 424.706C356.169 425.296 357.22 426.126 357.997 427.196C358.756 428.257 359.191 429.477 359.303 430.856C359.415 432.235 359.19 433.663 358.628 435.138ZM347.359 401.2C347.397 401.101 347.467 401.038 347.568 401.013C347.656 400.96 347.75 400.955 347.847 400.998L350.098 402.001C350.195 402.044 350.268 402.123 350.315 402.238C350.351 402.324 350.35 402.416 350.312 402.516L348.213 408.018C348.175 408.117 348.205 408.189 348.302 408.232L365.314 415.814C365.411 415.857 365.483 415.936 365.531 416.05C365.567 416.136 365.565 416.229 365.527 416.329L364.478 419.079C364.44 419.179 364.377 419.256 364.288 419.309C364.187 419.335 364.088 419.325 363.991 419.282L346.98 411.701C346.882 411.657 346.815 411.685 346.777 411.785L344.758 417.077C344.72 417.177 344.657 417.253 344.568 417.307C344.467 417.332 344.368 417.323 344.271 417.28L342.02 416.277C341.923 416.233 341.856 416.168 341.82 416.083C341.773 415.968 341.768 415.861 341.806 415.761L347.359 401.2ZM356.683 384.643C356.781 384.687 356.853 384.766 356.901 384.88C356.937 384.966 356.935 385.059 356.897 385.158L353.02 395.324C352.982 395.424 353.012 395.495 353.109 395.539L358.575 397.975C358.673 398.018 358.74 397.99 358.778 397.89L361.39 391.044C361.428 390.944 361.497 390.881 361.598 390.856C361.687 390.803 361.78 390.798 361.877 390.841L364.099 391.831C364.196 391.874 364.268 391.953 364.316 392.068C364.352 392.154 364.35 392.247 364.312 392.346L361.701 399.193C361.663 399.293 361.693 399.364 361.79 399.408L370.15 403.133C370.247 403.177 370.32 403.256 370.367 403.37C370.403 403.456 370.402 403.549 370.364 403.648L369.314 406.399C369.276 406.499 369.213 406.575 369.124 406.629C369.023 406.654 368.924 406.645 368.827 406.602L349.068 397.796C348.971 397.752 348.904 397.688 348.869 397.602C348.821 397.487 348.816 397.38 348.854 397.281L353.974 383.856C354.012 383.756 354.082 383.694 354.183 383.669C354.271 383.615 354.365 383.61 354.462 383.653L356.683 384.643ZM380.788 377.032C380.218 378.527 379.434 379.717 378.435 380.601C377.417 381.477 376.274 381.994 375.006 382.151C373.737 382.309 372.421 382.084 371.057 381.476L363.838 378.258C362.474 377.651 361.393 376.807 360.596 375.729C359.799 374.651 359.335 373.418 359.203 372.03C359.071 370.642 359.29 369.2 359.86 367.706C360.423 366.23 361.194 365.046 362.173 364.153C363.152 363.26 364.256 362.726 365.485 362.551C366.715 362.376 367.982 362.58 369.288 363.162C369.385 363.205 369.458 363.284 369.505 363.398C369.541 363.484 369.54 363.577 369.502 363.677L368.599 366.493C368.507 366.732 368.355 366.804 368.14 366.708C366.991 366.196 365.924 366.152 364.942 366.577C363.966 366.982 363.247 367.792 362.783 369.008C362.32 370.224 362.298 371.357 362.718 372.407C363.138 373.457 363.923 374.239 365.073 374.751L372.526 378.073C373.656 378.576 374.713 378.616 375.695 378.191C376.678 377.766 377.401 376.946 377.865 375.73C378.329 374.514 378.357 373.395 377.948 372.374C377.528 371.324 376.743 370.542 375.594 370.03C375.379 369.934 375.318 369.767 375.409 369.528L376.575 366.829C376.613 366.729 376.672 366.663 376.754 366.629C376.843 366.575 376.926 366.566 377.004 366.601C378.329 367.191 379.38 368.021 380.158 369.091C380.916 370.152 381.351 371.372 381.463 372.751C381.576 374.13 381.351 375.557 380.788 377.032ZM369.52 343.095C369.558 342.996 369.627 342.933 369.728 342.908C369.817 342.855 369.91 342.849 370.008 342.893L372.258 343.896C372.356 343.939 372.428 344.018 372.476 344.133C372.511 344.219 372.51 344.311 372.472 344.411L370.374 349.913C370.336 350.012 370.366 350.084 370.463 350.127L387.474 357.709C387.571 357.752 387.644 357.831 387.691 357.945C387.727 358.031 387.726 358.124 387.688 358.224L386.639 360.974C386.601 361.074 386.537 361.151 386.449 361.204C386.348 361.229 386.249 361.22 386.151 361.177L369.14 353.595C369.043 353.552 368.975 353.58 368.937 353.68L366.919 358.972C366.881 359.072 366.817 359.148 366.728 359.202C366.628 359.227 366.529 359.218 366.431 359.174L364.18 358.171C364.083 358.128 364.017 358.063 363.981 357.978C363.933 357.863 363.929 357.756 363.967 357.656L369.52 343.095ZM378.844 326.538C378.941 326.582 379.014 326.661 379.061 326.775C379.097 326.861 379.096 326.954 379.058 327.053L375.181 337.219C375.143 337.319 375.172 337.39 375.27 337.434L380.736 339.87C380.833 339.913 380.901 339.885 380.939 339.785L383.55 332.938C383.588 332.839 383.657 332.776 383.758 332.751C383.847 332.698 383.94 332.693 384.038 332.736L386.259 333.726C386.356 333.769 386.429 333.848 386.476 333.963C386.512 334.049 386.511 334.141 386.473 334.241L383.862 341.088C383.824 341.188 383.853 341.259 383.951 341.303L392.31 345.028C392.408 345.072 392.48 345.151 392.528 345.265C392.563 345.351 392.562 345.444 392.524 345.543L391.475 348.294C391.437 348.394 391.373 348.47 391.285 348.524C391.184 348.549 391.085 348.54 390.987 348.497L371.229 339.691C371.131 339.647 371.065 339.583 371.029 339.497C370.982 339.382 370.977 339.275 371.015 339.176L376.135 325.751C376.173 325.651 376.242 325.589 376.343 325.564C376.432 325.51 376.525 325.505 376.623 325.548L378.844 326.538ZM402.949 318.927C402.378 320.422 401.594 321.612 400.596 322.496C399.578 323.372 398.435 323.889 397.166 324.046C395.898 324.204 394.582 323.979 393.218 323.371L385.998 320.153C384.634 319.545 383.554 318.702 382.757 317.624C381.959 316.546 381.495 315.313 381.363 313.925C381.232 312.537 381.451 311.095 382.021 309.6C382.583 308.125 383.354 306.941 384.333 306.048C385.312 305.155 386.416 304.621 387.646 304.446C388.875 304.271 390.143 304.475 391.448 305.057C391.546 305.1 391.618 305.179 391.666 305.293C391.701 305.379 391.7 305.472 391.662 305.572L390.759 308.388C390.668 308.627 390.515 308.699 390.301 308.603C389.151 308.091 388.085 308.047 387.102 308.472C386.127 308.877 385.407 309.687 384.944 310.903C384.48 312.119 384.458 313.252 384.878 314.302C385.299 315.352 386.084 316.134 387.233 316.646L394.687 319.968C395.817 320.471 396.873 320.511 397.856 320.086C398.839 319.661 399.562 318.841 400.026 317.625C400.489 316.409 400.517 315.29 400.109 314.269C399.689 313.218 398.904 312.437 397.754 311.925C397.54 311.829 397.478 311.662 397.569 311.423L398.735 308.724C398.773 308.624 398.833 308.558 398.914 308.524C399.003 308.47 399.087 308.461 399.164 308.496C400.489 309.086 401.541 309.916 402.318 310.986C403.076 312.046 403.512 313.267 403.624 314.646C403.736 316.025 403.511 317.452 402.949 318.927ZM391.68 284.99C391.718 284.891 391.788 284.828 391.889 284.803C391.977 284.75 392.071 284.744 392.168 284.788L394.419 285.791C394.516 285.834 394.588 285.913 394.636 286.028C394.672 286.114 394.671 286.206 394.632 286.306L392.534 291.807C392.496 291.907 392.526 291.979 392.623 292.022L409.634 299.603C409.732 299.647 409.804 299.726 409.852 299.84C409.888 299.926 409.886 300.019 409.848 300.119L408.799 302.869C408.761 302.969 408.698 303.046 408.609 303.099C408.508 303.124 408.409 303.115 408.312 303.072L391.301 295.49C391.203 295.447 391.136 295.475 391.098 295.575L389.079 300.867C389.041 300.967 388.978 301.043 388.889 301.097C388.788 301.122 388.689 301.113 388.592 301.069L386.341 300.066C386.244 300.023 386.177 299.958 386.141 299.872C386.094 299.758 386.089 299.651 386.127 299.551L391.68 284.99ZM401.004 268.433C401.102 268.477 401.174 268.556 401.222 268.67C401.257 268.756 401.256 268.849 401.218 268.948L397.341 279.114C397.303 279.214 397.333 279.285 397.43 279.329L402.896 281.765C402.993 281.808 403.061 281.78 403.099 281.68L405.711 274.833C405.749 274.734 405.818 274.671 405.919 274.646C406.008 274.593 406.101 274.587 406.198 274.631L408.42 275.621C408.517 275.664 408.589 275.743 408.637 275.858C408.673 275.944 408.671 276.036 408.633 276.136L406.022 282.983C405.984 283.083 406.014 283.154 406.111 283.198L414.471 286.923C414.568 286.967 414.64 287.046 414.688 287.16C414.724 287.246 414.723 287.339 414.684 287.438L413.635 290.189C413.597 290.289 413.534 290.365 413.445 290.419C413.344 290.444 413.245 290.435 413.148 290.391L393.389 281.586C393.292 281.542 393.225 281.478 393.19 281.392C393.142 281.277 393.137 281.17 393.175 281.07L398.295 267.646C398.333 267.546 398.403 267.484 398.504 267.459C398.592 267.405 398.686 267.4 398.783 267.443L401.004 268.433ZM425.109 260.822C424.539 262.317 423.755 263.507 422.756 264.391C421.738 265.267 420.595 265.784 419.327 265.941C418.058 266.099 416.742 265.874 415.378 265.266L408.159 262.048C406.795 261.44 405.714 260.597 404.917 259.519C404.12 258.441 403.656 257.208 403.524 255.82C403.392 254.432 403.611 252.99 404.181 251.495C404.744 250.02 405.515 248.836 406.494 247.943C407.472 247.05 408.577 246.516 409.806 246.341C411.036 246.166 412.303 246.37 413.609 246.951C413.706 246.995 413.778 247.074 413.826 247.188C413.862 247.274 413.86 247.367 413.822 247.467L412.92 250.282C412.828 250.522 412.676 250.594 412.461 250.498C411.312 249.986 410.245 249.942 409.263 250.367C408.287 250.772 407.568 251.582 407.104 252.798C406.64 254.014 406.619 255.147 407.039 256.197C407.459 257.247 408.244 258.029 409.394 258.541L416.847 261.863C417.977 262.366 419.034 262.406 420.016 261.981C420.999 261.556 421.722 260.736 422.186 259.52C422.65 258.304 422.678 257.185 422.269 256.164C421.849 255.113 421.064 254.332 419.914 253.82C419.7 253.724 419.639 253.557 419.73 253.318L420.896 250.619C420.934 250.519 420.993 250.453 421.075 250.419C421.164 250.365 421.247 250.356 421.325 250.39C422.65 250.981 423.701 251.811 424.479 252.881C425.237 253.941 425.672 255.161 425.784 256.541C425.897 257.92 425.672 259.347 425.109 260.822ZM413.841 226.885C413.879 226.786 413.948 226.723 414.049 226.698C414.138 226.644 414.231 226.639 414.328 226.683L416.579 227.686C416.676 227.729 416.749 227.808 416.797 227.923C416.832 228.008 416.831 228.101 416.793 228.201L414.695 233.702C414.657 233.802 414.686 233.874 414.784 233.917L431.795 241.498C431.892 241.542 431.965 241.621 432.012 241.735C432.048 241.821 432.047 241.914 432.009 242.014L430.96 244.764C430.922 244.864 430.858 244.941 430.769 244.994C430.669 245.019 430.57 245.01 430.472 244.967L413.461 237.385C413.364 237.342 413.296 237.37 413.258 237.47L411.24 242.762C411.202 242.862 411.138 242.938 411.049 242.992C410.949 243.017 410.849 243.008 410.752 242.964L408.501 241.961C408.404 241.918 408.337 241.853 408.302 241.767C408.254 241.653 408.25 241.546 408.288 241.446L413.841 226.885ZM423.165 210.328C423.262 210.372 423.335 210.451 423.382 210.565C423.418 210.651 423.417 210.744 423.379 210.843L419.502 221.009C419.464 221.109 419.493 221.18 419.591 221.224L425.057 223.66C425.154 223.703 425.222 223.675 425.26 223.575L427.871 216.728C427.909 216.629 427.978 216.566 428.079 216.541C428.168 216.488 428.261 216.482 428.359 216.526L430.58 217.516C430.677 217.559 430.75 217.638 430.797 217.753C430.833 217.839 430.832 217.931 430.794 218.031L428.183 224.878C428.145 224.978 428.174 225.049 428.272 225.093L436.631 228.818C436.728 228.862 436.801 228.94 436.849 229.055C436.884 229.141 436.883 229.234 436.845 229.333L435.796 232.084C435.758 232.184 435.694 232.26 435.606 232.314C435.505 232.339 435.406 232.33 435.308 232.286L415.55 223.481C415.452 223.437 415.386 223.372 415.35 223.287C415.303 223.172 415.298 223.065 415.336 222.965L420.456 209.541C420.494 209.441 420.563 209.379 420.664 209.354C420.753 209.3 420.846 209.295 420.943 209.338L423.165 210.328ZM447.269 202.717C446.699 204.212 445.915 205.402 444.917 206.286C443.899 207.162 442.756 207.678 441.487 207.836C440.219 207.994 438.903 207.769 437.539 207.161L430.319 203.943C428.955 203.335 427.875 202.492 427.077 201.414C426.28 200.336 425.816 199.103 425.684 197.715C425.552 196.327 425.772 194.885 426.342 193.39C426.904 191.915 427.675 190.731 428.654 189.838C429.633 188.945 430.737 188.411 431.967 188.236C433.196 188.061 434.464 188.265 435.769 188.846C435.866 188.89 435.939 188.969 435.986 189.083C436.022 189.169 436.021 189.262 435.983 189.362L435.08 192.177C434.989 192.417 434.836 192.488 434.622 192.393C433.472 191.881 432.406 191.837 431.423 192.262C430.448 192.667 429.728 193.477 429.265 194.693C428.801 195.909 428.779 197.042 429.199 198.092C429.62 199.142 430.405 199.923 431.554 200.436L439.007 203.758C440.138 204.261 441.194 204.301 442.177 203.876C443.16 203.451 443.883 202.631 444.347 201.415C444.81 200.199 444.838 199.08 444.43 198.058C444.01 197.008 443.225 196.227 442.075 195.715C441.861 195.619 441.799 195.452 441.89 195.213L443.056 192.514C443.094 192.414 443.154 192.348 443.235 192.314C443.324 192.26 443.407 192.251 443.485 192.285C444.81 192.876 445.862 193.706 446.639 194.775C447.397 195.836 447.833 197.056 447.945 198.436C448.057 199.815 447.832 201.242 447.269 202.717ZM436.001 168.78C436.039 168.681 436.109 168.618 436.209 168.593C436.298 168.539 436.392 168.534 436.489 168.578L438.74 169.581C438.837 169.624 438.909 169.703 438.957 169.818C438.993 169.903 438.991 169.996 438.953 170.096L436.855 175.597C436.817 175.697 436.847 175.769 436.944 175.812L453.955 183.393C454.053 183.437 454.125 183.516 454.173 183.63C454.209 183.716 454.207 183.809 454.169 183.908L453.12 186.659C453.082 186.759 453.019 186.836 452.93 186.889C452.829 186.914 452.73 186.905 452.633 186.862L435.622 179.28C435.524 179.237 435.456 179.265 435.418 179.365L433.4 184.657C433.362 184.756 433.299 184.833 433.21 184.887C433.109 184.912 433.01 184.903 432.913 184.859L430.662 183.856C430.564 183.813 430.498 183.748 430.462 183.662C430.415 183.548 430.41 183.441 430.448 183.341L436.001 168.78ZM445.325 152.223C445.423 152.267 445.495 152.345 445.543 152.46C445.578 152.546 445.577 152.639 445.539 152.738L441.662 162.904C441.624 163.004 441.654 163.075 441.751 163.119L447.217 165.555C447.314 165.598 447.382 165.57 447.42 165.47L450.031 158.623C450.07 158.524 450.139 158.461 450.24 158.436C450.329 158.382 450.422 158.377 450.519 158.421L452.74 159.411C452.838 159.454 452.91 159.533 452.958 159.648C452.994 159.733 452.992 159.826 452.954 159.926L450.343 166.773C450.305 166.872 450.335 166.944 450.432 166.987L458.792 170.713C458.889 170.756 458.961 170.835 459.009 170.95C459.045 171.036 459.043 171.128 459.005 171.228L457.956 173.979C457.918 174.079 457.855 174.155 457.766 174.209C457.665 174.234 457.566 174.225 457.469 174.181L437.71 165.375C437.613 165.332 437.546 165.267 437.511 165.182C437.463 165.067 437.458 164.96 437.496 164.86L442.616 151.436C442.654 151.336 442.724 151.274 442.824 151.248C442.913 151.195 443.007 151.19 443.104 151.233L445.325 152.223ZM469.43 144.612C468.86 146.107 468.076 147.297 467.077 148.181C466.059 149.057 464.916 149.573 463.648 149.731C462.379 149.889 461.063 149.664 459.699 149.056L452.48 145.838C451.116 145.23 450.035 144.387 449.238 143.309C448.441 142.231 447.976 140.998 447.845 139.61C447.713 138.222 447.932 136.78 448.502 135.285C449.065 133.81 449.836 132.626 450.815 131.733C451.793 130.84 452.898 130.306 454.127 130.131C455.356 129.956 456.624 130.16 457.93 130.741C458.027 130.785 458.099 130.864 458.147 130.978C458.183 131.064 458.181 131.157 458.143 131.256L457.24 134.072C457.149 134.312 456.996 134.383 456.782 134.288C455.632 133.775 454.566 133.732 453.583 134.157C452.608 134.562 451.889 135.372 451.425 136.588C450.961 137.804 450.94 138.937 451.36 139.987C451.78 141.037 452.565 141.818 453.715 142.331L461.168 145.652C462.298 146.156 463.355 146.196 464.337 145.771C465.32 145.346 466.043 144.525 466.507 143.31C466.971 142.094 466.999 140.975 466.59 139.953C466.17 138.903 465.385 138.122 464.235 137.61C464.021 137.514 463.96 137.347 464.051 137.107L465.217 134.409C465.255 134.309 465.314 134.242 465.396 134.209C465.485 134.155 465.568 134.146 465.646 134.18C466.971 134.771 468.022 135.601 468.8 136.67C469.558 137.731 469.993 138.951 470.105 140.331C470.218 141.71 469.993 143.137 469.43 144.612ZM458.162 110.675C458.2 110.575 458.269 110.513 458.37 110.488C458.459 110.434 458.552 110.429 458.649 110.473L460.9 111.476C460.997 111.519 461.07 111.598 461.117 111.712C461.153 111.798 461.152 111.891 461.114 111.991L459.016 117.492C458.978 117.592 459.007 117.663 459.105 117.707L476.116 125.288C476.213 125.332 476.286 125.411 476.333 125.525C476.369 125.611 476.368 125.704 476.33 125.803L475.281 128.554C475.243 128.654 475.179 128.73 475.09 128.784C474.99 128.809 474.891 128.8 474.793 128.757L457.782 121.175C457.685 121.132 457.617 121.16 457.579 121.26L455.561 126.552C455.523 126.651 455.459 126.728 455.37 126.782C455.27 126.807 455.17 126.798 455.073 126.754L452.822 125.751C452.725 125.708 452.658 125.643 452.623 125.557C452.575 125.443 452.57 125.336 452.608 125.236L458.162 110.675ZM467.486 94.118C467.583 94.1614 467.656 94.2404 467.703 94.3548C467.739 94.4407 467.738 94.5335 467.7 94.6331L463.823 104.799C463.785 104.899 463.814 104.97 463.912 105.014L469.377 107.449C469.475 107.493 469.543 107.465 469.581 107.365L472.192 100.518C472.23 100.418 472.299 100.356 472.4 100.331C472.489 100.277 472.582 100.272 472.68 100.316L474.901 101.306C474.998 101.349 475.071 101.428 475.118 101.543C475.154 101.628 475.153 101.721 475.115 101.821L472.504 108.668C472.465 108.767 472.495 108.839 472.593 108.882L480.952 112.608C481.049 112.651 481.122 112.73 481.169 112.845C481.205 112.931 481.204 113.023 481.166 113.123L480.117 115.874C480.079 115.973 480.015 116.05 479.927 116.104C479.826 116.129 479.727 116.12 479.629 116.076L459.871 107.27C459.773 107.227 459.707 107.162 459.671 107.076C459.624 106.962 459.619 106.855 459.657 106.755L464.777 93.3305C464.815 93.2308 464.884 93.1684 464.985 93.1434C465.074 93.0897 465.167 93.0846 465.264 93.128L467.486 94.118Z" fill="black"/>
<path d="M474.185 227.238L473.991 227.356C471.927 229.97 473.24 275.403 474.185 298.454C354.76 370.393 114.935 514.271 111.041 514.271H2L473.991 227.356C474.053 227.278 474.118 227.238 474.185 227.238Z" fill="#B10610" stroke="black"/>
<path d="M105.017 500.314C103.655 501.153 102.317 501.614 101.004 501.699C99.6821 501.764 98.4861 501.465 97.4164 500.8C96.3466 500.136 95.4772 499.137 94.8081 497.802L91.2667 490.735C90.5977 489.4 90.2914 488.054 90.348 486.697C90.4045 485.339 90.812 484.065 91.5703 482.874C92.3286 481.684 93.389 480.669 94.7515 479.83C96.0958 479.003 97.4195 478.537 98.7227 478.434C100.026 478.33 101.203 478.591 102.253 479.217C103.304 479.843 104.149 480.795 104.79 482.073C104.838 482.168 104.844 482.277 104.81 482.398C104.784 482.488 104.726 482.562 104.635 482.618L102.2 484.304C101.982 484.438 101.82 484.401 101.715 484.191C101.151 483.066 100.361 482.366 99.3446 482.094C98.3465 481.81 97.2934 482.009 96.1852 482.691C95.0771 483.373 94.359 484.265 94.0309 485.365C93.7028 486.465 93.8208 487.578 94.3847 488.704L98.0408 495.999C98.5952 497.105 99.3805 497.794 100.397 498.067C101.413 498.34 102.475 498.135 103.583 497.453C104.692 496.771 105.405 495.895 105.725 494.824C106.053 493.724 105.935 492.611 105.371 491.486C105.266 491.276 105.322 491.104 105.54 490.97L108.105 489.541C108.195 489.485 108.282 489.469 108.366 489.493C108.467 489.505 108.537 489.549 108.575 489.626C109.225 490.923 109.517 492.24 109.451 493.579C109.375 494.898 108.953 496.144 108.185 497.315C107.418 498.487 106.361 499.486 105.017 500.314ZM117.391 466.192C117.481 466.136 117.573 466.13 117.666 466.172C117.767 466.185 117.842 466.239 117.89 466.334L118.994 468.537C119.041 468.632 119.048 468.741 119.014 468.862C118.988 468.952 118.93 469.026 118.839 469.082L113.825 472.168C113.734 472.224 113.712 472.3 113.76 472.395L122.105 489.045C122.152 489.141 122.159 489.249 122.125 489.37C122.099 489.461 122.04 489.534 121.95 489.59L119.443 491.133C119.352 491.189 119.256 491.211 119.154 491.199C119.062 491.156 118.991 491.087 118.944 490.991L110.599 474.341C110.551 474.246 110.482 474.226 110.391 474.282L105.568 477.252C105.477 477.308 105.381 477.329 105.28 477.317C105.187 477.274 105.117 477.205 105.069 477.11L103.965 474.907C103.917 474.811 103.906 474.718 103.932 474.628C103.966 474.507 104.029 474.418 104.12 474.362L117.391 466.192ZM134.787 458.776C134.835 458.872 134.841 458.98 134.807 459.101C134.781 459.192 134.723 459.265 134.632 459.321L125.367 465.025C125.276 465.081 125.255 465.157 125.303 465.252L127.984 470.602C128.031 470.697 128.101 470.717 128.192 470.661L134.432 466.819C134.523 466.763 134.614 466.757 134.707 466.799C134.808 466.812 134.883 466.866 134.931 466.961L136.02 469.135C136.068 469.231 136.075 469.339 136.041 469.46C136.015 469.551 135.956 469.624 135.866 469.68L129.625 473.522C129.534 473.578 129.513 473.653 129.561 473.749L133.661 481.931C133.709 482.026 133.716 482.134 133.681 482.255C133.655 482.346 133.597 482.419 133.506 482.475L130.999 484.019C130.909 484.074 130.812 484.096 130.711 484.084C130.618 484.041 130.548 483.972 130.5 483.877L120.808 464.537C120.76 464.442 120.749 464.349 120.775 464.258C120.81 464.137 120.872 464.049 120.963 463.993L133.198 456.46C133.289 456.404 133.381 456.398 133.474 456.44C133.575 456.453 133.65 456.507 133.697 456.602L134.787 458.776ZM157.974 467.712C156.611 468.55 155.273 469.012 153.961 469.096C152.638 469.162 151.442 468.862 150.373 468.198C149.303 467.534 148.434 466.534 147.764 465.199L144.223 458.133C143.554 456.798 143.248 455.452 143.304 454.094C143.361 452.737 143.768 451.463 144.527 450.272C145.285 449.082 146.345 448.067 147.708 447.228C149.052 446.4 150.376 445.935 151.679 445.831C152.982 445.728 154.159 445.989 155.21 446.615C156.26 447.241 157.106 448.193 157.746 449.471C157.794 449.566 157.801 449.674 157.766 449.795C157.74 449.886 157.682 449.959 157.591 450.015L155.156 451.702C154.938 451.836 154.776 451.798 154.671 451.588C154.107 450.463 153.317 449.764 152.301 449.491C151.303 449.207 150.25 449.407 149.142 450.089C148.033 450.771 147.315 451.662 146.987 452.763C146.659 453.863 146.777 454.976 147.341 456.101L150.997 463.396C151.552 464.503 152.337 465.192 153.353 465.465C154.369 465.738 155.432 465.533 156.54 464.851C157.648 464.168 158.362 463.292 158.681 462.222C159.009 461.122 158.891 460.009 158.327 458.884C158.222 458.674 158.279 458.502 158.497 458.368L161.061 456.939C161.152 456.883 161.239 456.867 161.322 456.89C161.423 456.903 161.493 456.947 161.531 457.023C162.181 458.32 162.473 459.638 162.407 460.976C162.331 462.296 161.91 463.541 161.142 464.713C160.374 465.884 159.318 466.884 157.974 467.712ZM170.347 433.59C170.438 433.534 170.53 433.527 170.622 433.57C170.724 433.583 170.798 433.636 170.846 433.732L171.95 435.935C171.998 436.03 172.004 436.138 171.97 436.259C171.944 436.35 171.886 436.423 171.795 436.479L166.781 439.566C166.69 439.622 166.669 439.698 166.716 439.793L175.061 456.443C175.109 456.538 175.115 456.647 175.081 456.768C175.055 456.858 174.997 456.932 174.906 456.988L172.399 458.531C172.308 458.587 172.212 458.609 172.111 458.596C172.018 458.554 171.948 458.484 171.9 458.389L163.555 441.739C163.508 441.644 163.438 441.624 163.348 441.68L158.524 444.649C158.433 444.705 158.337 444.727 158.236 444.714C158.143 444.672 158.073 444.603 158.025 444.507L156.921 442.304C156.873 442.209 156.863 442.116 156.888 442.025C156.923 441.904 156.985 441.816 157.076 441.76L170.347 433.59ZM187.743 426.174C187.791 426.269 187.798 426.378 187.763 426.499C187.738 426.589 187.679 426.663 187.588 426.719L178.323 432.423C178.233 432.479 178.211 432.554 178.259 432.65L180.94 437.999C180.988 438.095 181.057 438.114 181.148 438.059L187.388 434.217C187.479 434.161 187.571 434.154 187.664 434.197C187.765 434.209 187.839 434.263 187.887 434.359L188.977 436.533C189.025 436.628 189.031 436.737 188.997 436.858C188.971 436.948 188.913 437.022 188.822 437.078L182.582 440.919C182.491 440.975 182.469 441.051 182.517 441.146L186.618 449.328C186.665 449.424 186.672 449.532 186.638 449.653C186.612 449.744 186.554 449.817 186.463 449.873L183.956 451.416C183.865 451.472 183.769 451.494 183.667 451.481C183.575 451.439 183.504 451.37 183.457 451.274L173.764 431.935C173.717 431.84 173.706 431.747 173.732 431.656C173.766 431.535 173.829 431.446 173.919 431.39L186.155 423.858C186.245 423.802 186.337 423.795 186.43 423.838C186.531 423.851 186.606 423.905 186.654 424L187.743 426.174ZM210.93 435.109C209.567 435.948 208.23 436.41 206.917 436.494C205.595 436.559 204.399 436.26 203.329 435.596C202.259 434.932 201.39 433.932 200.721 432.597L197.179 425.531C196.51 424.196 196.204 422.85 196.261 421.492C196.317 420.134 196.725 418.86 197.483 417.67C198.241 416.479 199.302 415.465 200.664 414.626C202.009 413.798 203.332 413.333 204.635 413.229C205.939 413.126 207.115 413.387 208.166 414.013C209.217 414.639 210.062 415.591 210.703 416.869C210.75 416.964 210.757 417.072 210.723 417.193C210.697 417.284 210.639 417.357 210.548 417.413L208.112 419.1C207.894 419.234 207.733 419.196 207.628 418.986C207.064 417.861 206.274 417.162 205.257 416.889C204.259 416.605 203.206 416.804 202.098 417.487C200.99 418.169 200.272 419.06 199.944 420.161C199.616 421.261 199.733 422.374 200.297 423.499L203.954 430.794C204.508 431.9 205.293 432.59 206.309 432.863C207.326 433.135 208.388 432.931 209.496 432.248C210.604 431.566 211.318 430.69 211.638 429.62C211.966 428.519 211.848 427.407 211.284 426.281C211.179 426.072 211.235 425.9 211.453 425.765L214.017 424.336C214.108 424.28 214.195 424.264 214.278 424.288C214.38 424.3 214.449 424.345 214.488 424.421C215.138 425.718 215.43 427.036 215.363 428.374C215.288 429.694 214.866 430.939 214.098 432.111C213.33 433.282 212.274 434.282 210.93 435.109ZM223.303 400.988C223.394 400.932 223.486 400.925 223.579 400.968C223.68 400.98 223.755 401.034 223.802 401.13L224.906 403.332C224.954 403.428 224.961 403.536 224.926 403.657C224.901 403.748 224.842 403.821 224.751 403.877L219.737 406.964C219.647 407.02 219.625 407.095 219.673 407.191L228.017 423.841C228.065 423.936 228.072 424.044 228.037 424.165C228.011 424.256 227.953 424.329 227.862 424.385L225.355 425.929C225.264 425.985 225.168 426.006 225.067 425.994C224.974 425.951 224.904 425.882 224.856 425.787L216.512 409.137C216.464 409.041 216.395 409.022 216.304 409.078L211.481 412.047C211.39 412.103 211.294 412.125 211.192 412.112C211.1 412.069 211.029 412 210.982 411.905L209.878 409.702C209.83 409.607 209.819 409.514 209.845 409.423C209.879 409.302 209.942 409.214 210.033 409.158L223.303 400.988ZM240.7 393.572C240.748 393.667 240.754 393.775 240.72 393.896C240.694 393.987 240.636 394.061 240.545 394.116L231.28 399.82C231.189 399.876 231.167 399.952 231.215 400.047L233.896 405.397C233.944 405.492 234.013 405.512 234.104 405.456L240.345 401.614C240.435 401.559 240.527 401.552 240.62 401.595C240.721 401.607 240.796 401.661 240.844 401.756L241.933 403.931C241.981 404.026 241.988 404.134 241.953 404.255C241.927 404.346 241.869 404.419 241.778 404.475L235.538 408.317C235.447 408.373 235.426 408.449 235.473 408.544L239.574 416.726C239.622 416.821 239.628 416.93 239.594 417.051C239.568 417.141 239.51 417.215 239.419 417.271L236.912 418.814C236.821 418.87 236.725 418.892 236.624 418.879C236.531 418.836 236.461 418.767 236.413 418.672L226.721 399.333C226.673 399.237 226.662 399.144 226.688 399.054C226.722 398.933 226.785 398.844 226.876 398.788L239.111 391.256C239.202 391.2 239.294 391.193 239.386 391.236C239.488 391.248 239.562 391.302 239.61 391.398L240.7 393.572ZM263.886 402.507C262.524 403.346 261.186 403.807 259.873 403.892C258.551 403.957 257.355 403.658 256.285 402.994C255.216 402.33 254.346 401.33 253.677 399.995L250.136 392.929C249.467 391.594 249.16 390.247 249.217 388.89C249.274 387.532 249.681 386.258 250.439 385.068C251.198 383.877 252.258 382.862 253.621 382.023C254.965 381.196 256.289 380.73 257.592 380.627C258.895 380.523 260.072 380.785 261.122 381.411C262.173 382.036 263.019 382.988 263.659 384.266C263.707 384.362 263.713 384.47 263.679 384.591C263.653 384.682 263.595 384.755 263.504 384.811L261.069 386.497C260.851 386.632 260.689 386.594 260.584 386.384C260.02 385.259 259.23 384.56 258.214 384.287C257.216 384.003 256.162 384.202 255.054 384.884C253.946 385.566 253.228 386.458 252.9 387.558C252.572 388.659 252.69 389.771 253.254 390.897L256.91 398.192C257.464 399.298 258.25 399.988 259.266 400.26C260.282 400.533 261.344 400.328 262.452 399.646C263.561 398.964 264.274 398.088 264.594 397.018C264.922 395.917 264.804 394.804 264.24 393.679C264.135 393.469 264.191 393.297 264.409 393.163L266.974 391.734C267.065 391.678 267.152 391.662 267.235 391.686C267.336 391.698 267.406 391.743 267.444 391.819C268.094 393.116 268.386 394.433 268.32 395.772C268.244 397.091 267.822 398.337 267.055 399.508C266.287 400.68 265.231 401.679 263.886 402.507ZM276.26 368.385C276.35 368.329 276.442 368.323 276.535 368.366C276.636 368.378 276.711 368.432 276.759 368.527L277.863 370.73C277.91 370.825 277.917 370.934 277.883 371.055C277.857 371.145 277.799 371.219 277.708 371.275L272.694 374.362C272.603 374.417 272.581 374.493 272.629 374.588L280.974 391.239C281.021 391.334 281.028 391.442 280.994 391.563C280.968 391.654 280.91 391.727 280.819 391.783L278.312 393.327C278.221 393.382 278.125 393.404 278.023 393.392C277.931 393.349 277.86 393.28 277.813 393.185L269.468 376.535C269.42 376.439 269.351 376.419 269.26 376.475L264.437 379.445C264.346 379.501 264.25 379.522 264.149 379.51C264.056 379.467 263.986 379.398 263.938 379.303L262.834 377.1C262.786 377.005 262.775 376.912 262.801 376.821C262.835 376.7 262.898 376.611 262.989 376.555L276.26 368.385ZM293.656 360.97C293.704 361.065 293.711 361.173 293.676 361.294C293.65 361.385 293.592 361.458 293.501 361.514L284.236 367.218C284.145 367.274 284.124 367.35 284.172 367.445L286.853 372.795C286.901 372.89 286.97 372.91 287.061 372.854L293.301 369.012C293.392 368.956 293.483 368.95 293.576 368.992C293.678 369.005 293.752 369.059 293.8 369.154L294.89 371.328C294.937 371.424 294.944 371.532 294.91 371.653C294.884 371.744 294.825 371.817 294.735 371.873L288.494 375.715C288.404 375.771 288.382 375.846 288.43 375.942L292.53 384.124C292.578 384.219 292.585 384.327 292.55 384.448C292.525 384.539 292.466 384.612 292.375 384.668L289.868 386.212C289.778 386.268 289.682 386.289 289.58 386.277C289.487 386.234 289.417 386.165 289.369 386.07L279.677 366.731C279.629 366.635 279.618 366.542 279.644 366.451C279.679 366.33 279.741 366.242 279.832 366.186L292.067 358.653C292.158 358.597 292.25 358.591 292.343 358.634C292.444 358.646 292.519 358.7 292.566 358.795L293.656 360.97ZM316.843 369.905C315.48 370.744 314.143 371.205 312.83 371.29C311.508 371.355 310.312 371.055 309.242 370.391C308.172 369.727 307.303 368.728 306.634 367.393L303.092 360.326C302.423 358.991 302.117 357.645 302.173 356.287C302.23 354.93 302.637 353.656 303.396 352.465C304.154 351.275 305.214 350.26 306.577 349.421C307.921 348.594 309.245 348.128 310.548 348.024C311.851 347.921 313.028 348.182 314.079 348.808C315.129 349.434 315.975 350.386 316.615 351.664C316.663 351.759 316.67 351.868 316.635 351.989C316.61 352.079 316.551 352.153 316.46 352.209L314.025 353.895C313.807 354.029 313.646 353.991 313.54 353.782C312.976 352.656 312.186 351.957 311.17 351.685C310.172 351.401 309.119 351.6 308.011 352.282C306.903 352.964 306.184 353.856 305.856 354.956C305.528 356.056 305.646 357.169 306.21 358.294L309.866 365.59C310.421 366.696 311.206 367.385 312.222 367.658C313.238 367.931 314.301 367.726 315.409 367.044C316.517 366.362 317.231 365.485 317.55 364.415C317.878 363.315 317.76 362.202 317.196 361.077C317.091 360.867 317.148 360.695 317.366 360.561L319.93 359.132C320.021 359.076 320.108 359.06 320.191 359.083C320.292 359.096 320.362 359.14 320.4 359.217C321.05 360.513 321.342 361.831 321.276 363.17C321.201 364.489 320.779 365.734 320.011 366.906C319.243 368.078 318.187 369.077 316.843 369.905ZM329.216 335.783C329.307 335.727 329.399 335.72 329.491 335.763C329.593 335.776 329.667 335.83 329.715 335.925L330.819 338.128C330.867 338.223 330.874 338.331 330.839 338.452C330.813 338.543 330.755 338.617 330.664 338.672L325.65 341.759C325.559 341.815 325.538 341.891 325.586 341.986L333.93 358.636C333.978 358.732 333.984 358.84 333.95 358.961C333.924 359.052 333.866 359.125 333.775 359.181L331.268 360.724C331.177 360.78 331.081 360.802 330.98 360.789C330.887 360.747 330.817 360.678 330.769 360.582L322.425 343.932C322.377 343.837 322.307 343.817 322.217 343.873L317.393 346.842C317.303 346.898 317.206 346.92 317.105 346.908C317.012 346.865 316.942 346.796 316.894 346.7L315.79 344.498C315.743 344.402 315.732 344.309 315.757 344.218C315.792 344.097 315.854 344.009 315.945 343.953L329.216 335.783ZM346.612 328.367C346.66 328.463 346.667 328.571 346.632 328.692C346.607 328.783 346.548 328.856 346.457 328.912L337.193 334.616C337.102 334.672 337.08 334.747 337.128 334.843L339.809 340.193C339.857 340.288 339.926 340.308 340.017 340.252L346.257 336.41C346.348 336.354 346.44 336.347 346.533 336.39C346.634 336.403 346.708 336.457 346.756 336.552L347.846 338.726C347.894 338.821 347.9 338.93 347.866 339.051C347.84 339.141 347.782 339.215 347.691 339.271L341.451 343.113C341.36 343.168 341.338 343.244 341.386 343.339L345.487 351.521C345.535 351.617 345.541 351.725 345.507 351.846C345.481 351.937 345.423 352.01 345.332 352.066L342.825 353.609C342.734 353.665 342.638 353.687 342.537 353.675C342.444 353.632 342.374 353.563 342.326 353.467L332.634 334.128C332.586 334.033 332.575 333.94 332.601 333.849C332.635 333.728 332.698 333.64 332.789 333.584L345.024 326.051C345.115 325.995 345.206 325.989 345.299 326.031C345.4 326.044 345.475 326.098 345.523 326.193L346.612 328.367ZM369.799 337.302C368.436 338.141 367.099 338.603 365.786 338.687C364.464 338.753 363.268 338.453 362.198 337.789C361.128 337.125 360.259 336.125 359.59 334.79L356.049 327.724C355.379 326.389 355.073 325.043 355.13 323.685C355.186 322.328 355.594 321.054 356.352 319.863C357.11 318.672 358.171 317.658 359.533 316.819C360.878 315.991 362.201 315.526 363.504 315.422C364.808 315.319 365.985 315.58 367.035 316.206C368.086 316.832 368.931 317.784 369.572 319.062C369.62 319.157 369.626 319.265 369.592 319.386C369.566 319.477 369.508 319.55 369.417 319.606L366.981 321.293C366.763 321.427 366.602 321.389 366.497 321.179C365.933 320.054 365.143 319.355 364.126 319.082C363.128 318.798 362.075 318.997 360.967 319.68C359.859 320.362 359.141 321.253 358.813 322.354C358.485 323.454 358.603 324.567 359.167 325.692L362.823 332.987C363.377 334.093 364.162 334.783 365.179 335.056C366.195 335.329 367.257 335.124 368.365 334.442C369.473 333.759 370.187 332.883 370.507 331.813C370.835 330.713 370.717 329.6 370.153 328.474C370.048 328.265 370.104 328.093 370.322 327.958L372.886 326.53C372.977 326.474 373.064 326.457 373.147 326.481C373.249 326.494 373.319 326.538 373.357 326.614C374.007 327.911 374.299 329.229 374.233 330.567C374.157 331.887 373.735 333.132 372.967 334.304C372.199 335.475 371.143 336.475 369.799 337.302ZM382.172 303.181C382.263 303.125 382.355 303.118 382.448 303.161C382.549 303.173 382.624 303.227 382.671 303.323L383.775 305.526C383.823 305.621 383.83 305.729 383.795 305.85C383.77 305.941 383.711 306.014 383.62 306.07L378.606 309.157C378.516 309.213 378.494 309.289 378.542 309.384L386.886 326.034C386.934 326.129 386.941 326.238 386.906 326.359C386.881 326.449 386.822 326.523 386.731 326.579L384.224 328.122C384.134 328.178 384.037 328.2 383.936 328.187C383.843 328.144 383.773 328.075 383.725 327.98L375.381 311.33C375.333 311.235 375.264 311.215 375.173 311.271L370.35 314.24C370.259 314.296 370.163 314.318 370.062 314.305C369.969 314.263 369.899 314.194 369.851 314.098L368.747 311.895C368.699 311.8 368.688 311.707 368.714 311.616C368.748 311.495 368.811 311.407 368.902 311.351L382.172 303.181ZM399.569 295.765C399.617 295.86 399.623 295.969 399.589 296.09C399.563 296.18 399.505 296.254 399.414 296.31L390.149 302.014C390.058 302.069 390.037 302.145 390.084 302.24L392.765 307.59C392.813 307.686 392.883 307.705 392.973 307.649L399.214 303.808C399.304 303.752 399.396 303.745 399.489 303.788C399.59 303.8 399.665 303.854 399.713 303.95L400.802 306.124C400.85 306.219 400.857 306.327 400.822 306.448C400.797 306.539 400.738 306.613 400.647 306.668L394.407 310.51C394.316 310.566 394.295 310.642 394.343 310.737L398.443 318.919C398.491 319.014 398.498 319.123 398.463 319.244C398.437 319.334 398.379 319.408 398.288 319.464L395.781 321.007C395.69 321.063 395.594 321.085 395.493 321.072C395.4 321.03 395.33 320.961 395.282 320.865L385.59 301.526C385.542 301.431 385.531 301.338 385.557 301.247C385.591 301.126 385.654 301.037 385.745 300.981L397.98 293.449C398.071 293.393 398.163 293.386 398.255 293.429C398.357 293.441 398.431 293.495 398.479 293.591L399.569 295.765ZM422.755 304.7C421.393 305.539 420.055 306.001 418.743 306.085C417.42 306.15 416.224 305.851 415.155 305.187C414.085 304.523 413.215 303.523 412.546 302.188L409.005 295.122C408.336 293.787 408.03 292.44 408.086 291.083C408.143 289.725 408.55 288.451 409.308 287.261C410.067 286.07 411.127 285.055 412.49 284.217C413.834 283.389 415.158 282.923 416.461 282.82C417.764 282.716 418.941 282.978 419.992 283.604C421.042 284.23 421.888 285.182 422.528 286.459C422.576 286.555 422.583 286.663 422.548 286.784C422.522 286.875 422.464 286.948 422.373 287.004L419.938 288.69C419.72 288.825 419.558 288.787 419.453 288.577C418.889 287.452 418.099 286.753 417.083 286.48C416.085 286.196 415.032 286.395 413.923 287.077C412.815 287.76 412.097 288.651 411.769 289.751C411.441 290.852 411.559 291.965 412.123 293.09L415.779 300.385C416.333 301.491 417.119 302.181 418.135 302.453C419.151 302.726 420.213 302.522 421.322 301.839C422.43 301.157 423.144 300.281 423.463 299.211C423.791 298.11 423.673 296.997 423.109 295.872C423.004 295.662 423.06 295.49 423.278 295.356L425.843 293.927C425.934 293.871 426.021 293.855 426.104 293.879C426.205 293.891 426.275 293.936 426.313 294.012C426.963 295.309 427.255 296.627 427.189 297.965C427.113 299.284 426.691 300.53 425.924 301.701C425.156 302.873 424.1 303.873 422.755 304.7ZM435.129 270.578C435.22 270.523 435.311 270.516 435.404 270.559C435.505 270.571 435.58 270.625 435.628 270.72L436.732 272.923C436.78 273.019 436.786 273.127 436.752 273.248C436.726 273.339 436.668 273.412 436.577 273.468L431.563 276.555C431.472 276.611 431.45 276.686 431.498 276.782L439.843 293.432C439.891 293.527 439.897 293.635 439.863 293.756C439.837 293.847 439.779 293.92 439.688 293.976L437.181 295.52C437.09 295.576 436.994 295.597 436.893 295.585C436.8 295.542 436.73 295.473 436.682 295.378L428.337 278.728C428.29 278.632 428.22 278.613 428.129 278.669L423.306 281.638C423.215 281.694 423.119 281.716 423.018 281.703C422.925 281.66 422.855 281.591 422.807 281.496L421.703 279.293C421.655 279.198 421.644 279.105 421.67 279.014C421.705 278.893 421.767 278.804 421.858 278.748L435.129 270.578ZM452.525 263.163C452.573 263.258 452.58 263.366 452.545 263.487C452.519 263.578 452.461 263.651 452.37 263.707L443.105 269.411C443.014 269.467 442.993 269.543 443.041 269.638L445.722 274.988C445.77 275.083 445.839 275.103 445.93 275.047L452.17 271.205C452.261 271.149 452.353 271.143 452.445 271.186C452.547 271.198 452.621 271.252 452.669 271.347L453.759 273.522C453.806 273.617 453.813 273.725 453.779 273.846C453.753 273.937 453.695 274.01 453.604 274.066L447.363 277.908C447.273 277.964 447.251 278.04 447.299 278.135L451.399 286.317C451.447 286.412 451.454 286.52 451.419 286.641C451.394 286.732 451.335 286.806 451.244 286.861L448.738 288.405C448.647 288.461 448.551 288.483 448.449 288.47C448.357 288.427 448.286 288.358 448.238 288.263L438.546 268.924C438.499 268.828 438.488 268.735 438.513 268.644C438.548 268.523 438.61 268.435 438.701 268.379L450.936 260.847C451.027 260.791 451.119 260.784 451.212 260.827C451.313 260.839 451.388 260.893 451.436 260.988L452.525 263.163Z" fill="black"/>
</svg>
