<svg width="323" height="384" viewBox="0 0 323 384" fill="none" xmlns="http://www.w3.org/2000/svg">
<mask id="path-1-inside-1_713_12819" fill="white">
<path d="M323 312.399C322.461 313.758 321.876 315.248 321.259 316.856C317.984 325.386 313.621 337.36 308.854 350.724C305.09 361.274 301.071 372.701 297.13 384H0V67.501L19.9932 0H323V312.399Z"/>
</mask>
<path d="M323 312.399C322.461 313.758 321.876 315.248 321.259 316.856C317.984 325.386 313.621 337.36 308.854 350.724C305.09 361.274 301.071 372.701 297.13 384H0V67.501L19.9932 0H323V312.399Z" fill="#181818"/>
<path d="M323 312.399L324.859 313.137L325 312.782V312.399H323ZM321.259 316.856L319.392 316.14L321.259 316.856ZM308.854 350.724L306.97 350.052L308.854 350.724ZM297.13 384V386H298.55L299.018 384.659L297.13 384ZM0 384H-2V386H0V384ZM0 67.501L-1.91765 66.933L-2 67.211V67.501H0ZM19.9932 0V-2H18.4997L18.0755 -0.567991L19.9932 0ZM323 0H325V-2H323V0ZM323 312.399L321.141 311.661C320.6 313.026 320.013 314.523 319.392 316.14L321.259 316.856L323.126 317.573C323.74 315.973 324.322 314.49 324.859 313.137L323 312.399ZM321.259 316.856L319.392 316.14C316.108 324.692 311.738 336.685 306.97 350.052L308.854 350.724L310.737 351.396C315.503 338.035 319.86 326.08 323.126 317.573L321.259 316.856ZM308.854 350.724L306.97 350.052C303.204 360.607 299.184 372.039 295.241 383.341L297.13 384L299.018 384.659C302.958 373.363 306.976 361.94 310.737 351.396L308.854 350.724ZM297.13 384V382H0V384V386H297.13V384ZM0 384H2V67.501H0H-2V384H0ZM0 67.501L1.91765 68.069L21.9108 0.567991L19.9932 0L18.0755 -0.567991L-1.91765 66.933L0 67.501ZM19.9932 0V2H323V0V-2H19.9932V0ZM323 0H321V312.399H323H325V0H323Z" fill="#363636" mask="url(#path-1-inside-1_713_12819)"/>
</svg>
