<svg width="908" height="465" viewBox="0 0 908 465" fill="none" xmlns="http://www.w3.org/2000/svg">
<path d="M350.602 201.353L320.185 232.769H235.336V251.619M331.391 94.5371L366.611 129.095H593.941" stroke="#E30613"/>
<path d="M227.332 234.34V246.906" stroke="#E30613"/>
<path d="M219.324 234.34V246.906" stroke="#E30613"/>
<path d="M209.719 234.34V246.906" stroke="#E30613"/>
<path d="M200.113 234.34V246.906" stroke="#E30613"/>
<path d="M192.109 234.34V246.906" stroke="#E30613"/>
<path d="M184.105 234.34V246.906" stroke="#E30613"/>
<path d="M174.5 234.34V246.906" stroke="#E30613"/>
<path d="M164.895 234.34V246.906" stroke="#E30613"/>
<path d="M156.891 234.34V246.906" stroke="#E30613"/>
<path d="M148.883 234.34V246.906" stroke="#E30613"/>
<path d="M139.281 234.34V246.906" stroke="#E30613"/>
<path d="M129.676 234.34V246.906" stroke="#E30613"/>
<path d="M121.668 234.34V246.906" stroke="#FF0000" stroke-opacity="0.5"/>
<path d="M113.664 234.34V246.906" stroke="#FF0000" stroke-opacity="0.41"/>
<path d="M104.059 234.34V246.906" stroke="#FF0000" stroke-opacity="0.38"/>
<path d="M94.4531 234.34V246.906" stroke="#FF0000" stroke-opacity="0.32"/>
<path d="M0 124.382H235.335L268.954 91.3945H316.982L350.601 124.382V190.356" stroke="#E30613" stroke-width="3"/>
<path d="M14.0352 105.244V120.952" stroke="#E30613"/>
<path d="M24.0352 29.8457V120.953" stroke="#E30613"/>
<path d="M34.0352 80.1113V120.953" stroke="#E30613"/>
<path d="M44.0352 114.67V120.953" stroke="#E30613"/>
<path d="M54.0352 91.1074V120.953" stroke="#E30613"/>
<path d="M64.0352 65.9746V120.953" stroke="#E30613"/>
<path d="M74.0352 98.9609V120.952" stroke="#E30613"/>
<path d="M84.0352 51.8379V120.954" stroke="#E30613"/>
<path d="M94.0352 0V120.953" stroke="#E30613"/>
<path d="M104.035 76.9707V120.954" stroke="#E30613"/>
<path d="M114.035 53.4082V120.953" stroke="#E30613"/>
<path d="M124.035 34.5586V120.954" stroke="#E30613"/>
<path d="M134.035 18.8496V120.953" stroke="#E30613"/>
<path d="M144.035 59.6914V120.953" stroke="#E30613"/>
<path d="M154.035 47.125V120.953" stroke="#E30613"/>
<path d="M164.035 1.57031V120.953" stroke="#E30613"/>
<path d="M174.035 18.8496V120.953" stroke="#E30613"/>
<path d="M184.035 100.533V120.954" stroke="#E30613"/>
<path d="M194.035 47.125V120.953" stroke="#E30613"/>
<path d="M204.035 59.6914V120.953" stroke="#E30613"/>
<path d="M214.035 94.25V120.954" stroke="#E30613"/>
<rect x="344.695" y="191.857" width="9.80734" height="9.56655" stroke="#E30613" stroke-width="3"/>
<rect x="324.902" y="89.0938" width="6.09972" height="5.96624" stroke="#E30613"/>
<path opacity="0.75" d="M140.248 464.981H130.059V463.981H139.248V455.585H140.248V464.981ZM95.0273 462.496H104.217V463.496H94.0273V454.1H95.0273V462.496ZM523.288 455.74H513.099V454.74H522.288V446.312H523.288V455.74ZM609.55 195.357L825.312 281.505L825.87 281.728L826.12 282.273L887.062 415.254H891.966V436.169H869.162V415.254H883.764L823.642 284.067L609.755 198.668L502.838 428.457H509.866V446.312H490.486V428.457H499.529L604.29 203.302L438.093 361.645L437.658 362.059H292.437L126.826 444.084V455.584H107.446V437.792H126.826V440.735L139.248 434.582V426.432H130.059V425.432H140.248V434.087L291.421 359.214L291.735 359.059H436.456L605.245 198.25H173.512V195.25H609.282L609.55 195.357ZM478.067 453.251H487.257V454.251H477.067V444.823H478.067V453.251ZM110.446 452.584H123.826V440.792H110.446V452.584ZM907.671 447.128H895.77V446.128H906.671V436.171H907.671V447.128ZM854.46 444.386H865.361V445.386H853.46V434.429H854.46V444.386ZM493.486 443.312H506.866V431.457H493.486V443.312ZM104.217 426.432H95.0273V434.828H94.0273V425.432H104.217V426.432ZM872.162 433.169H888.966V418.254H885.394L885.183 418.351L885.139 418.254H872.162V433.169ZM487.257 417.053H478.067V425.48H477.067V416.053H487.257V417.053ZM523.288 425.48H522.288V417.053H513.099V416.053H523.288V425.48ZM865.361 401.813H854.46V411.771H853.46V400.813H865.361V401.813ZM907.671 411.771H906.671V401.813H895.77V400.813H907.671V411.771Z" fill="#FF0000" fill-opacity="0.4"/>
</svg>
