<svg width="799" height="448" viewBox="0 0 799 448" fill="none" xmlns="http://www.w3.org/2000/svg">
<path d="M37.875 43.8091V443.609V446.222H709.413L797.005 367.83V2H84.5907L37.875 43.8091Z" stroke="#E30613" stroke-opacity="0.54" stroke-width="3"/>
<path d="M28.3008 445.994H10.0009" stroke="#FF0000"/>
<path d="M28.3008 429.246H10.0009" stroke="#FF0000"/>
<path d="M28.3008 409.148H10.0009" stroke="#FF0000"/>
<path d="M28.3008 389.055H10.0009" stroke="#FF0000"/>
<path d="M28.3008 372.307H10.0009" stroke="#FF0000"/>
<path d="M28.3008 355.562H10.0009" stroke="#FF0000"/>
<path d="M28.3008 335.463H10.0009" stroke="#FF0000"/>
<path d="M28.3008 315.369H10.0009" stroke="#FF0000"/>
<path d="M28.3008 298.625H10.0009" stroke="#FF0000"/>
<path d="M28.3008 281.875H10.0009" stroke="#FF0000"/>
<path d="M28.3008 261.781H10.0009" stroke="#FF0000" stroke-opacity="0.74"/>
<path d="M28.3008 241.684H10.0009" stroke="#FF0000" stroke-opacity="0.58"/>
<path d="M28.3008 224.938H10.0009" stroke="#FF0000" stroke-opacity="0.5"/>
<path d="M28.3008 208.191H10.0009" stroke="#FF0000" stroke-opacity="0.41"/>
<path d="M28.3008 188.092H10.0009" stroke="#FF0000" stroke-opacity="0.38"/>
<path d="M28.3008 168H10.0009" stroke="#FF0000" stroke-opacity="0.32"/>
<path d="M1 247V445.593" stroke="#E30613" stroke-opacity="0.54" stroke-width="2"/>
<path d="M99 24L67 51.5V100.5H767V24H99Z" fill="#A6141C" stroke="#640A0F" stroke-width="2"/>
</svg>
