<svg width="1025" height="720" viewBox="0 0 1025 720" fill="none" xmlns="http://www.w3.org/2000/svg">
<path d="M96.2656 23.8438L64.2656 51.3438V100.344H764.266V23.8438H96.2656Z" fill="#A6141C" stroke="#640A0F" stroke-width="2"/>
<path d="M83.5 146.5V150.5H79.5V146.5H83.5Z" fill="#E30613" stroke="#E30613"/>
<rect x="79.5" y="244.5" width="4" height="4" fill="#E30613" stroke="#E30613"/>
<rect x="79.5" y="293.5" width="4" height="4" fill="#E30613" stroke="#E30613"/>
<rect x="79.5" y="341.5" width="4" height="4" fill="#E30613" stroke="#E30613"/>
<rect x="79.5" y="393.5" width="4" height="4" fill="#E30613" stroke="#E30613"/>
<rect x="79.5" y="195.5" width="4" height="4" fill="#E30613" stroke="#E30613"/>
<path d="M1 247.658V446.252" stroke="#E30613" stroke-opacity="0.54" stroke-width="2"/>
<path d="M703.023 446.431C704.275 450.612 703.545 493.466 703.023 514.371L729.301 537.888V446.431M729.301 446.431L796.455 386.33H1024.19M729.301 446.431L729.301 693.173" stroke="#E30613" stroke-opacity="0.54" stroke-width="2"/>
<path d="M41.875 43.8091V443.609V446.222H713.413L801.005 367.83V2H88.5907L41.875 43.8091Z" stroke="#E30613" stroke-opacity="0.54" stroke-width="3"/>
<path d="M29.4922 445.297H11.1923" stroke="#FF0000"/>
<path d="M29.4922 428.549H11.1923" stroke="#FF0000"/>
<path d="M29.4922 408.451H11.1923" stroke="#FF0000"/>
<path d="M29.4922 388.357H11.1923" stroke="#FF0000"/>
<path d="M29.4922 371.609H11.1923" stroke="#FF0000"/>
<path d="M29.4922 354.865H11.1923" stroke="#FF0000"/>
<path d="M29.4922 334.766H11.1923" stroke="#FF0000"/>
<path d="M29.4922 314.672H11.1923" stroke="#FF0000"/>
<path d="M29.4922 297.928H11.1923" stroke="#FF0000"/>
<path d="M29.4922 281.178H11.1923" stroke="#FF0000"/>
<path d="M29.4922 261.084H11.1923" stroke="#FF0000" stroke-opacity="0.74"/>
<path d="M29.4922 240.986H11.1923" stroke="#FF0000" stroke-opacity="0.58"/>
<path d="M29.4922 224.24H11.1923" stroke="#FF0000" stroke-opacity="0.5"/>
<path d="M29.4922 207.494H11.1923" stroke="#FF0000" stroke-opacity="0.41"/>
<path d="M29.4922 187.395H11.1923" stroke="#FF0000" stroke-opacity="0.38"/>
<path d="M29.4922 167.303H11.1923" stroke="#FF0000" stroke-opacity="0.32"/>
<path d="M815.949 342.938V368.904" stroke="#FF0000"/>
<path d="M827.75 342.938V368.904" stroke="#FF0000"/>
<path d="M841.918 342.938V368.904" stroke="#FF0000"/>
<path d="M856.078 342.938V368.904" stroke="#FF0000"/>
<path d="M867.879 342.938V368.904" stroke="#FF0000"/>
<path d="M879.68 342.938V368.904" stroke="#FF0000"/>
<path d="M893.848 342.938V368.904" stroke="#FF0000"/>
<path d="M908.008 342.938V368.904" stroke="#FF0000"/>
<path d="M919.809 342.938V368.904" stroke="#FF0000"/>
<path d="M931.613 342.938V368.904" stroke="#FF0000"/>
<path d="M944.777 342.938V368.904" stroke="#FF0000" stroke-opacity="0.74"/>
<path d="M958.938 342.938V368.904" stroke="#FF0000" stroke-opacity="0.58"/>
<path d="M970.742 342.938V368.904" stroke="#FF0000" stroke-opacity="0.5"/>
<path d="M982.543 342.938V368.904" stroke="#FF0000" stroke-opacity="0.41"/>
<path d="M996.707 342.938V368.904" stroke="#FF0000" stroke-opacity="0.38"/>
<path d="M1010.87 342.938V368.904" stroke="#FF0000" stroke-opacity="0.32"/>
<path d="M714.016 708.668V716.933H721.297" stroke="#FF0000" stroke-opacity="0.52"/>
<path d="M714.016 690.072V679.741H721.297" stroke="#FF0000" stroke-opacity="0.52"/>
<path d="M744.594 708.668V718.999H737.313" stroke="#FF0000" stroke-opacity="0.52"/>
<path d="M744.594 690.072V679.741H737.313" stroke="#FF0000" stroke-opacity="0.52"/>
<rect x="723.25" y="692.639" width="12.1062" height="15.5303" stroke="#FF0000" stroke-opacity="0.52"/>
<path d="M815.949 330.539H944.098" stroke="#E30613" stroke-opacity="0.4"/>
</svg>
