<svg width="257" height="474" viewBox="0 0 257 474" fill="none" xmlns="http://www.w3.org/2000/svg">
<path d="M111 151L103.355 159.214H76V165.814M106.968 110.814L118.323 122.914L230 122.914" stroke="#860000"/>
<path d="M74.8555 160.021V164.452" stroke="#860000"/>
<path d="M71.4297 160.021V164.452" stroke="#860000"/>
<path d="M68.5703 160.021V164.452" stroke="#860000"/>
<path d="M65.7148 160.021V164.452" stroke="#860000"/>
<path d="M62.2852 160.021V164.452" stroke="#860000"/>
<path d="M58.8555 160.021V164.452" stroke="#860000"/>
<path d="M56 160.021V164.452" stroke="#860000"/>
<path d="M53.1445 160.021V164.452" stroke="#860000"/>
<path d="M49.7148 160.021V164.452" stroke="#FF0000" stroke-opacity="0.74"/>
<path d="M46.2852 160.021V164.452" stroke="#FF0000" stroke-opacity="0.58"/>
<path d="M43.4297 160.021V164.452" stroke="#FF0000" stroke-opacity="0.5"/>
<path d="M40.5703 160.021V164.452" stroke="#FF0000" stroke-opacity="0.41"/>
<path d="M37.1406 160.021V164.452" stroke="#FF0000" stroke-opacity="0.38"/>
<path d="M33.7148 160.021V164.452" stroke="#FF0000" stroke-opacity="0.32"/>
<path d="M0 121.481H75.8493L86.6849 109.814H102.164L113 121.481V147" stroke="#860000" stroke-width="2"/>
<path d="M3.00391 105.381V121.089" stroke="#860000"/>
<path d="M10.0039 29.9805V121.088" stroke="#860000"/>
<path d="M17.0039 80.248V121.089" stroke="#860000"/>
<path d="M24.0039 114.805V121.088" stroke="#860000"/>
<path d="M31.0039 91.2422V121.088" stroke="#860000"/>
<path d="M38.0039 66.1094V121.088" stroke="#860000"/>
<path d="M45.0039 99.0977V121.089" stroke="#860000"/>
<path d="M52.0039 51.9727V121.089" stroke="#860000"/>
<path d="M59.0039 0.134766V121.088" stroke="#860000"/>
<path d="M66.0039 77.1055V121.088" stroke="#860000"/>
<path d="M73.0039 53.543V121.088" stroke="#860000"/>
<path d="M115.129 149V147H111V151H115.129V149ZM115.129 149H257" stroke="#860000"/>
<rect x="106.5" y="109.5" width="1.53417" height="1.45583" stroke="#860000"/>
<path opacity="0.66" d="M177.5 349.502V346.002H176.5V348.502H172.615V349.502H177.5ZM175.771 335.502V338.002H176.771V334.502H171.887V335.502H175.771ZM173.5 473.502V469.145H172.5V472.502H168.847V473.502H173.5ZM171.807 455.502V458.859H172.807V454.502H168.153V455.502H171.807ZM171.718 225.16V221.519H170.718V224.16H167.937V225.16H171.718ZM170.172 210.502V213.144H171.172V209.502H167.391V210.502H170.172ZM76.1055 461.227L159 464.483V467.716H167.307V460.002H159V463.481L77.6563 460.286L141.827 416.547L142.021 416.414L142.044 416.18L146.481 368.716L167.787 345.429H170.114V339.741H164.608V345.429H166.432L145.632 368.164L145.519 368.288L145.503 368.455L141.069 415.853L77.0088 459.519L133.451 271.482L133.521 271.253L133.384 271.056L115.472 245.043L110.247 236.749L161 217.119V220.284H167.562V214.002H161V216.046L109.32 236.035L108.754 236.255L109.077 236.769L114.625 245.576L114.631 245.585L114.637 245.593L132.424 271.425L76.625 457.323L76.625 165.926H75.625L75.625 461.208L76.1055 461.227ZM168.114 341.741V343.429H166.608V341.741H168.114ZM165.562 216.002V218.284H163V216.002H165.562ZM165.307 462.002V465.716H161V462.002H165.307ZM158.501 338.002V335.502H162.386V334.502H157.501V338.002H158.501ZM162.386 349.502V348.502H158.501V346.002H157.501V349.502H162.386ZM156.5 213.144H157.5V210.502H160.281V209.502H156.5V213.144ZM160.281 225.16V224.16H157.5V221.519H156.5V225.16H160.281ZM155.5 458.859V455.502H159.153V454.502H154.5V458.859H155.5ZM159.153 473.502V472.502H155.5V469.145H154.5V473.502H159.153Z" fill="#FF0000" fill-opacity="0.4"/>
</svg>
