<svg width="13" height="9" viewBox="0 0 13 9" fill="none" xmlns="http://www.w3.org/2000/svg">
<path d="M10.62 1.15774C10.9782 0.795798 11.6394 0.732511 12.0967 1.01591C12.5539 1.29954 12.6344 1.82291 12.2764 2.18495L6.26856 8.25513C6.24253 8.28139 6.21509 8.30806 6.18452 8.33224C6.17055 8.34327 6.15508 8.35221 6.14055 8.36249C6.13082 8.36939 6.12122 8.37642 6.11123 8.38298C6.03699 8.43175 5.9566 8.47092 5.87188 8.50103C5.86567 8.50324 5.85957 8.50574 5.85332 8.50785C5.834 8.51436 5.8144 8.51985 5.79471 8.5254C5.78013 8.52952 5.76552 8.53349 5.75076 8.5371C5.72681 8.54292 5.70279 8.54825 5.67848 8.55269C5.67358 8.55359 5.66874 8.55476 5.66383 8.55561C5.53299 8.57793 5.39812 8.58075 5.26636 8.56322C5.26504 8.56304 5.26378 8.56242 5.26245 8.56224C5.24248 8.55952 5.22268 8.55608 5.20289 8.55244C5.18327 8.54885 5.16372 8.5452 5.14431 8.5407C5.13707 8.53901 5.13003 8.53663 5.12283 8.53483C5.10089 8.52932 5.079 8.5239 5.05741 8.51721C5.038 8.51119 5.01884 8.50463 4.99981 8.49765C4.98742 8.49312 4.97494 8.48891 4.96271 8.48396C4.94376 8.47629 4.92552 8.46719 4.90707 8.45854C4.89571 8.45323 4.88408 8.44859 4.8729 8.4429C4.8582 8.4354 4.84427 8.4266 4.82995 8.41847C4.81741 8.41136 4.80415 8.40554 4.79188 8.39794C4.75857 8.37727 4.72747 8.35454 4.69819 8.33148L0.491906 4.99731C0.081937 4.67186 0.082074 4.14448 0.492862 3.81958C0.903889 3.49457 1.57061 3.49494 1.98114 3.82034L5.34519 6.48806L10.62 1.15774Z" fill="#FEF2F3"/>
</svg>
