<svg width="24" height="23" viewBox="0 0 24 23" fill="none" xmlns="http://www.w3.org/2000/svg">
<path d="M8.57589 9.28572C10.7061 9.28572 12.433 7.55881 12.433 5.42857C12.433 3.29833 10.7061 1.57143 8.57589 1.57143C6.44565 1.57143 4.71875 3.29833 4.71875 5.42857C4.71875 7.55881 6.44565 9.28572 8.57589 9.28572Z" stroke="#FEF2F3" stroke-width="2" stroke-linecap="round" stroke-linejoin="round"/>
<path d="M16.2879 22.1429H0.859375V20.4286C0.859375 18.3826 1.67213 16.4205 3.11884 14.9737C4.56555 13.527 6.5277 12.7143 8.57366 12.7143C10.6196 12.7143 12.5818 13.527 14.0285 14.9737C15.4752 16.4205 16.2879 18.3826 16.2879 20.4286V22.1429Z" stroke="#FEF2F3" stroke-width="2" stroke-linecap="round" stroke-linejoin="round"/>
<path d="M15.4297 1.57143C16.4527 1.57143 17.4337 1.97781 18.1571 2.70116C18.8805 3.42452 19.2868 4.4056 19.2868 5.42857C19.2868 6.45155 18.8805 7.43263 18.1571 8.15598C17.4337 8.87934 16.4527 9.28572 15.4297 9.28572" stroke="#FEF2F3" stroke-width="2" stroke-linecap="round" stroke-linejoin="round"/>
<path d="M18.1719 13.04C19.6322 13.5955 20.8894 14.5813 21.7771 15.867C22.6648 17.1527 23.1412 18.6776 23.1433 20.24V22.1429H20.5719" stroke="#FEF2F3" stroke-width="2" stroke-linecap="round" stroke-linejoin="round"/>
</svg>
