<svg width="21" height="19" viewBox="0 0 21 19" fill="none" xmlns="http://www.w3.org/2000/svg">
<path d="M10.25 11.4617V18" stroke="#FEF2F3" stroke-width="2" stroke-linecap="round" stroke-linejoin="round"/>
<path d="M6.69531 17.9995H13.8098" stroke="#FEF2F3" stroke-width="2" stroke-linecap="round" stroke-linejoin="round"/>
<path d="M5.26869 7.53872C4.13656 7.53872 3.05081 7.1254 2.25027 6.3897C1.44974 5.65399 1 4.65616 1 3.61571V2.30804H5.98014V7.53872H5.26869Z" stroke="#FEF2F3" stroke-width="2" stroke-linecap="round" stroke-linejoin="round"/>
<path d="M15.2271 7.53872C16.3592 7.53872 17.445 7.1254 18.2455 6.3897C19.046 5.65399 19.4958 4.65616 19.4958 3.61571V2.30804H14.5156V7.53872H15.2271Z" stroke="#FEF2F3" stroke-width="2" stroke-linecap="round" stroke-linejoin="round"/>
<path d="M14.5139 7.53834C14.5139 8.57879 14.0642 9.57662 13.2637 10.3123C12.4631 11.048 11.3774 11.4614 10.2453 11.4614C9.11313 11.4614 8.02737 11.048 7.22683 10.3123C6.4263 9.57662 5.97656 8.57879 5.97656 7.53834V1H14.5139V7.53834Z" stroke="#FEF2F3" stroke-width="2" stroke-linecap="round" stroke-linejoin="round"/>
</svg>
