<svg width="24" height="24" viewBox="0 0 24 24" fill="none" xmlns="http://www.w3.org/2000/svg">
<g clip-path="url(#clip0_713_12031)">
<path d="M12.0033 22.1957C17.6445 22.1957 22.2176 17.6226 22.2176 11.9814C22.2176 6.34024 17.6445 1.76715 12.0033 1.76715C6.36215 1.76715 1.78906 6.34024 1.78906 11.9814C1.78906 17.6226 6.36215 22.1957 12.0033 22.1957Z" stroke="#FEF2F3" stroke-width="2" stroke-linecap="round" stroke-linejoin="round"/>
<path d="M2.57812 15.91H5.32812C6.05747 15.91 6.75694 15.6203 7.27267 15.1045C7.78839 14.5888 8.07812 13.8893 8.07812 13.16V10.8029C8.07812 10.0735 8.36786 9.37403 8.88358 8.85831C9.39931 8.34258 10.0988 8.05285 10.8281 8.05285C11.5575 8.05285 12.2569 7.76312 12.7727 7.24739C13.2884 6.73167 13.5781 6.0322 13.5781 5.30285V1.87714" stroke="#FEF2F3" stroke-width="2" stroke-linecap="round" stroke-linejoin="round"/>
<path d="M22.221 11.8243C21.4342 11.4161 20.5617 11.2006 19.6753 11.1957H16.3281C15.5988 11.1957 14.8993 11.4855 14.3836 12.0012C13.8679 12.5169 13.5781 13.2164 13.5781 13.9457C13.5781 14.6751 13.8679 15.3746 14.3836 15.8903C14.8993 16.406 15.5988 16.6957 16.3281 16.6957C16.8491 16.6957 17.3487 16.9027 17.7171 17.2711C18.0855 17.6394 18.2924 18.1391 18.2924 18.66V20.0272" stroke="#FEF2F3" stroke-width="2" stroke-linecap="round" stroke-linejoin="round"/>
</g>
<defs>
<clipPath id="clip0_713_12031">
<rect width="24" height="24" fill="white"/>
</clipPath>
</defs>
</svg>
