<svg width="24" height="24" viewBox="0 0 24 24" fill="none" xmlns="http://www.w3.org/2000/svg">
<g clip-path="url(#clip0_713_12041)">
<path d="M8.57589 8.5714C10.7061 8.5714 12.433 6.8445 12.433 4.71426C12.433 2.58402 10.7061 0.857117 8.57589 0.857117C6.44565 0.857117 4.71875 2.58402 4.71875 4.71426C4.71875 6.8445 6.44565 8.5714 8.57589 8.5714Z" stroke="#FEF2F3" stroke-width="2" stroke-linecap="round" stroke-linejoin="round"/>
<path d="M10.288 11.3314C9.15758 11.0705 7.98279 11.0684 6.85147 11.3254C5.72015 11.5824 4.66155 12.0918 3.75482 12.8155C2.8481 13.5392 2.1167 14.4586 1.61531 15.5048C1.11393 16.551 0.855523 17.697 0.859418 18.8571V21.4286H10.288" stroke="#FEF2F3" stroke-width="2" stroke-linecap="round" stroke-linejoin="round"/>
<path d="M18.2954 23.0914C18.1071 23.1595 17.9009 23.1595 17.7126 23.0914C16.2829 22.525 15.0561 21.5425 14.1912 20.271C13.3262 18.9996 12.8629 17.4977 12.8611 15.96V13.7142C12.8536 13.5997 12.8705 13.4849 12.9109 13.3775C12.9513 13.27 13.0142 13.1725 13.0954 13.0913C13.1765 13.0102 13.2741 12.9473 13.3815 12.9069C13.4889 12.8665 13.6038 12.8495 13.7183 12.8571H22.2897C22.4042 12.8495 22.519 12.8665 22.6265 12.9069C22.7339 12.9473 22.8315 13.0102 22.9126 13.0913C22.9938 13.1725 23.0567 13.27 23.097 13.3775C23.1374 13.4849 23.1544 13.5997 23.1468 13.7142V15.96C23.1451 17.4977 22.6818 18.9996 21.8168 20.271C20.9518 21.5425 19.7251 22.525 18.2954 23.0914V23.0914Z" stroke="#FEF2F3" stroke-width="2" stroke-linecap="round" stroke-linejoin="round"/>
</g>
<defs>
<clipPath id="clip0_713_12041">
<rect width="24" height="24" fill="white"/>
</clipPath>
</defs>
</svg>
